<?xml version="1.0" encoding="UTF-8"?><svg id="a" xmlns="http://www.w3.org/2000/svg" viewBox="0 0 3198.9 641.16"><defs><style>.b{fill:none;}.b,.c,.d,.e,.f,.g{stroke-width:0px;}.c{fill:#ccd7e4;}.d{fill:#feecb2;}.e{fill:#fcc000;}.f{fill:#003976;}.g{fill:#6688ad;}</style></defs><rect class="f" x="2439.35" y="74.89" width="10.6" height="537.68"/><path class="e" d="m3198.68,321.29c-2.67-54.5-24.01-100.34-64.68-135.86-52.53-45.88-113.87-59.74-181.15-40.8-55.97,15.76-96.1,51.43-121.32,103.77-.94,1.96-1.47,5.78-.4,6.76,4.94,4.52,10.52,8.35,15.37,12.04,8.87-14.64,15.82-28.75,25.14-41.05,45.8-60.42,126.27-82.21,197.57-54.26,87.81,34.42,130.15,137.34,93.32,223.97-28.35,66.67-103.08,113.27-179.55,101.51-49.68-7.64-89.38-31.1-116.79-72.99-10.52-16.07-17.39-34.72-24.56-52.73-20.25-50.88-68.98-86.16-126.14-85.89-9.73.05-19.45,0-29.18,0l-1.8-2.61c32.84-48.9,65.69-97.81,98.88-147.23-2.82-.93-3.6-1.41-4.38-1.41-49.69-.06-99.38-.11-149.06-.03v22.89c31.51.23,63.03.08,94.54.12,4.58,0,9.16.45,16.01.81-33.97,50.62-66.78,99.51-99.59,148.4.66.73,1.32,1.46,1.98,2.18,2.74,0,5.47,0,8.21,0,22.9.03,45.82-.56,68.69.24,34.25,1.21,62.16,15.71,83.69,42.46,10.53,13.08,15.73,28.51,21.33,44.08,12.68,35.25,34.51,64.32,64.61,86.6,58.21,43.08,121.78,51.7,189.13,25.61,74.21-28.75,124.13-104.84,120.12-186.59Z"/><path class="f" d="m3115.2,209.39c-48.85-43.87-105.92-53.77-167.55-31.14-44.24,16.25-74.58,47.69-92.13,91.37-.77,1.91-.73,5.19.43,6.63,3.78,4.69,8.26,8.83,13.3,14.04,1.6-2.72,3-4.37,3.63-6.28,23.52-70.95,101.74-111.62,174.26-89.49,69.13,21.09,109.72,92.16,98.25,156.47-10.97,61.54-55.49,108.3-117.71,117.74-69.44,10.53-132.55-28.43-154.34-92.85-18.61-55.02-53.5-93.02-109.05-111.23-8.58-2.81-17.42-4.8-27.65-7.57,33.92-50.46,67.16-99.9,101.72-151.3-6.12-.28-9.09-.54-12.05-.54-49.43-.03-98.85-.04-148.28-.04-16.03,0-32.07-.15-48.1.13v21.89c51.93.04,103.87.06,155.8.14,3.15,0,6.3.57,11.41,1.06-33.89,50.43-66.72,99.28-99.55,148.13.69.73,1.38,1.47,2.08,2.2,3.59,0,7.23-.38,10.77.07,15.95,2.01,32.44,2.31,47.7,6.77,45.5,13.3,75.75,43.97,91.3,88.26,9.89,28.17,23.11,53.85,45.44,73.9,48.99,44,105.64,56.08,167.22,33.83,56.58-20.44,91.85-62.03,103.27-121.56,11.34-59.13-5.53-110.55-50.17-150.64Z"/><path class="e" d="m3137.44,302.01c-11.71-57.5-62.96-102.33-121.63-106.4-58.68-4.07-114.74,32.12-135.12,87.42-1.9,5.14-5.21,11.74-3.5,15.84,3.92,9.42,10.53,17.72,17.26,28.39,1.05-4.2,1.66-5.7,1.77-7.24,3.53-51.58,44.89-95.09,98.62-100.89,80.95-8.74,143.69,72.02,115.61,148.28-16.49,44.77-59.02,73.35-107.93,72.52-45.29-.77-87.44-32.04-101.77-76.4-17.9-55.42-53.43-94.99-105.74-119.92-9.76-4.65-9.81-4.59-3.87-13.4,32.72-48.57,65.46-97.12,98.14-145.72,1.6-2.37,2.76-5.04,4.88-8.96-4.62-.28-7.57-.62-10.51-.62-84.57-.03-169.14-.04-253.71-.04v23.21c70,.02,139.99,0,209.99.06,3.14,0,6.29.49,10.85.87-2.31,4.05-3.64,6.75-5.3,9.23-29.4,43.74-58.81,87.46-88.27,131.15-8.4,12.46-8.49,12.4,6.03,17.05,58.02,18.58,96.24,57.04,116.05,114.53,18.53,53.79,57.05,84.94,112.93,91.35,90.22,10.35,163.35-71.41,145.24-160.31Z"/><path class="e" d="m2878.99,483.49c-7.32-2.99-7.29,4.44-8.93,8.02-47.45,103.77-186.61,130.95-269.12,52.35-32.63-31.09-51.55-68.72-53.56-114.27-.03-.71-.07-1.36-.12-1.98h-23.4c.1.89.21,1.79.26,2.65,2.91,54.37,25.5,99.33,66.2,135.02,36.79,32.24,80.28,47.12,129.04,47.28,8.9-.78,17.81-1.41,26.69-2.41,3.85-.43,7.63-1.58,11.43-2.45,61.04-13.95,104.83-49.65,132.75-105.32,3.53-7.04-.69-14.59-11.24-18.89Z"/><path class="f" d="m2865.47,471.66c-2.44-4.74-7.13-8.32-11.85-13.48-2,3.24-3.09,4.48-3.62,5.93-16.51,45.8-47.38,77.13-94.44,90.49-53.71,15.25-100.96,2.04-140.42-37.02-24.81-24.56-37.36-55.32-39.76-89.96h-21.15c.02.13.03.25.05.38,2.1,12.87,2.99,26.15,6.87,38.48,19.46,61.79,62.07,100.13,124.8,112.71,50.94,10.21,97.9-2.83,137.76-37.57,18.39-16.03,32.22-35.42,41.83-57.71,1.52-3.52,1.61-8.95-.08-12.24Z"/><path class="e" d="m2845.48,448.8c-5.12-8.49-10.71-16.69-17.24-26.68-1.96,9.97-3.18,17.59-4.98,25.07-10.63,44.01-48.69,78.07-95.47,82.58-62.14,5.99-115.07-37.43-121.7-99.31-.11-1.03-.25-1.96-.42-2.84h-23.21c1.08,7.62,1.63,15.37,3.45,22.8,17.34,70.61,86.88,115.23,156.49,100.18,53-11.46,86.72-44.05,102.92-95.34.64-2.02,1.11-4.89.16-6.47Z"/><path class="e" d="m2961.38,345.16h-16.89l-3.32,9.46h-6.08l14.64-39.41h6.42l14.64,39.41h-6.08l-3.32-9.46Zm-1.86-5.18l-6.59-18.75-6.64,18.75h13.23Z"/><path class="e" d="m3006.82,315.22v39.41h-4.9l-20.43-29.05v29.05h-5.63v-39.41h4.9l20.43,29.05v-29.05h5.63Zm-6.92-9.8c-.45,3.38-2.03,5.12-4.78,5.12s-4.73-1.86-6.87-1.86c-1.41,0-1.91,1.29-2.03,2.31l-3.38-.62c.56-3.49,2.2-5.12,4.84-5.12s4.62,1.86,6.81,1.86c1.63,0,1.91-1.35,2.03-2.31l3.38.62Z"/><path class="e" d="m3053.32,334.92c0,11.54-8.33,20.44-19.98,20.44s-20.04-8.89-20.04-20.44,8.33-20.38,20.04-20.38,19.98,8.84,19.98,20.38Zm-5.69,0c0-7.66-5.12-15.14-14.3-15.14s-14.3,7.49-14.3,15.14,5.12,15.14,14.3,15.14,14.3-7.49,14.3-15.14Z"/><path class="e" d="m3084.51,343.7c0,5.52-3.77,11.65-13.91,11.65-6.02,0-12.27-2.7-14.19-8.89l5.57-1.75c.56,2.59,3.49,5.35,8.73,5.35,4.28,0,8.05-1.86,8.05-5.91,0-5.35-4.78-5.57-11.03-7.09-7.94-1.91-9.74-6.08-9.74-11.2,0-6.64,5.69-11.31,13-11.31,5.63,0,10.3,3.04,11.93,8.5l-5.52,1.35c-.79-2.36-2.81-4.62-6.98-4.62-3.77,0-6.81,2.31-6.81,6.08,0,5.01,4.78,5.8,9.8,6.92,7.66,1.8,11.09,4.56,11.09,10.92Z"/><path class="b" d="m1235.29,133.61v49.9h10.89c16.78,0,21.78-13.39,21.78-24.96,0-13.48-6.19-24.94-21.96-24.94h-10.72Z"/><polygon class="b" points="1773.01 333.33 1744.92 432.4 1803.82 432.4 1773.01 333.33"/><polygon class="b" points="1328.6 138.05 1318.76 168.6 1339.37 168.6 1328.6 138.05"/><path class="b" d="m1064.89,133.61h-8.44v17.91h8.81c4.62,0,9.14-2.29,9.14-8.97,0-5.91-3.24-8.94-9.52-8.94Z"/><path class="b" d="m1398.92,133.61v49.9h10.92c16.76,0,21.76-13.39,21.76-24.96,0-13.48-6.16-24.94-21.97-24.94h-10.71Z"/><path class="b" d="m1587.59,158.55c0,14.44,8.44,24.01,21.19,24.01s21.08-9.57,21.08-24.01-8.44-23.97-21.08-23.97-21.19,9.58-21.19,23.97Z"/><polygon class="b" points="2243.14 138.05 2233.36 168.6 2254 168.6 2243.14 138.05"/><path class="b" d="m2236.1,577.74c-10.89,0-18.1,6.93-18.1,17.4s7.21,17.43,18.1,17.43,17.96-6.94,17.96-17.43-7.19-17.4-17.96-17.4Z"/><path class="b" d="m1519.39,133.61v18.27h7.76c7.68,0,10.39-3.25,10.39-9.11,0-6.72-3.24-9.16-12.22-9.16h-5.93Z"/><polygon class="b" points="2200.61 432.4 2259.54 432.4 2228.67 333.33 2200.61 432.4"/><path class="b" d="m2161.87,577.05h-9.11v36.18h9.3c14.29,0,18.58-9.74,18.58-18.1,0-9.82-5.26-18.08-18.77-18.08Z"/><polygon class="b" points="2090.22 602.42 2107.78 602.42 2098.58 580.24 2090.22 602.42"/><polygon class="b" points="940.69 333.33 912.68 432.4 971.53 432.4 940.69 333.33"/><path class="b" d="m2300.48,577.05h-7.2v12.97h7.51c3.95,0,7.82-1.67,7.82-6.5,0-4.3-2.77-6.47-8.13-6.47Z"/><path class="f" d="m675.86,119.2v44.78c0,24.35,14.02,34.98,33.4,34.98,18.38,0,33.49-9.01,33.49-35.1v-44.66h-16.69v43.85c0,14.06-8.14,19.5-16.96,19.5-9.62,0-16.57-6.8-16.57-18.12v-45.24h-16.66Z"/><polygon class="f" points="779.43 119.21 764.09 119.21 764.09 197.91 780.78 197.91 780.78 147.48 817.76 197.91 831.83 197.91 831.83 119.21 815.13 119.21 815.13 167.34 779.43 119.21"/><rect class="f" x="854.26" y="119.2" width="16.65" height="78.71"/><polygon class="f" points="903.91 119.2 885.76 119.2 918.13 198.96 925.41 198.96 956.29 119.2 938.35 119.2 921.6 164.11 903.91 119.2"/><polygon class="f" points="1019.47 133.61 1019.47 119.21 970.82 119.21 970.82 197.91 1020.17 197.91 1020.17 183.51 987.49 183.51 987.49 164.56 1018.02 164.56 1018.02 150.14 987.49 150.14 987.49 133.61 1019.47 133.61"/><path class="f" d="m1091.58,141.83c0-11.76-8.15-22.62-21.86-22.62h-29.92v78.71h16.66v-31.96h4.8c9.02,0,11.67,15.11,18.84,31.96h18.33c-9.41-23.06-11.46-32.76-18.33-36.8,7.69-4.15,11.49-10.64,11.49-19.28Zm-26.32,9.69h-8.81v-17.91h8.44c6.27,0,9.52,3.03,9.52,8.94,0,6.68-4.52,8.97-9.14,8.97Z"/><path class="f" d="m1134.02,184.52c-7.31,0-13.22-2.66-22.89-10.15v16.95c6.74,4.05,12.51,7.63,24.19,7.63,14.89,0,25.69-8.8,25.69-23.9,0-27.46-34.01-24.13-34.01-35.99,0-3.92,3.84-6.46,9.79-6.46s11.48,1.97,21.2,7.02v-15.35c-8.41-4.25-15.2-6.11-22.67-6.11-15.5,0-25.52,8.99-25.52,22.62,0,28.3,34.03,23.55,34.03,36.48,0,4.6-3.39,7.26-9.81,7.26Z"/><rect class="f" x="1179.78" y="119.2" width="16.66" height="78.71"/><path class="f" d="m1218.62,119.21v78.71h27.66c26.71,0,38.84-16.63,38.84-39.24s-12.51-39.47-36.94-39.47h-29.56Zm49.34,39.34c0,11.57-5.01,24.96-21.78,24.96h-10.89v-49.9h10.72c15.77,0,21.96,11.46,21.96,24.94Z"/><path class="f" d="m1291.73,197.91h17.63l5-15.6h29.91l5.52,15.6h17.96l-29.75-78.71h-19.32l-26.95,78.71Zm36.87-59.86l10.77,30.55h-20.61l9.84-30.55Z"/><path class="f" d="m1382.27,119.21v78.71h27.63c26.72,0,38.9-16.63,38.9-39.24s-12.58-39.47-36.99-39.47h-29.55Zm49.34,39.34c0,11.57-5,24.96-21.76,24.96h-10.92v-49.9h10.71c15.81,0,21.97,11.46,21.97,24.94Z"/><path class="f" d="m1502.72,119.2v78.71h16.67v-31.61h13.26c15.4,0,22.07-12.7,22.07-23.76s-6.87-23.34-22.16-23.34h-29.82Zm34.82,23.56c0,5.86-2.72,9.11-10.39,9.11h-7.76v-18.27h5.93c8.97,0,12.22,2.43,12.22,9.16Z"/><path class="f" d="m1570.42,158.55c0,20.09,13.81,40.41,38.35,40.41s38.27-20.2,38.27-40.41c0-18.92-13.04-40.38-38.27-40.38s-38.35,21.33-38.35,40.38Zm59.43,0c0,14.44-8.44,24.01-21.08,24.01s-21.19-9.57-21.19-24.01,8.44-23.97,21.19-23.97,21.08,9.58,21.08,23.97Z"/><polygon class="f" points="1665.98 119.21 1665.98 197.91 1716.99 197.91 1716.99 183.51 1682.62 183.51 1682.62 119.21 1665.98 119.21"/><rect class="f" x="1733.75" y="119.2" width="16.67" height="78.71"/><polygon class="f" points="1808.89 197.91 1808.89 133.61 1833.13 133.61 1833.13 119.21 1767.99 119.21 1767.99 133.61 1792.21 133.61 1792.21 197.91 1808.89 197.91"/><polygon class="f" points="1850.29 197.91 1899.62 197.91 1899.62 183.51 1866.99 183.51 1866.99 164.56 1897.47 164.56 1897.47 150.14 1866.99 150.14 1866.99 133.61 1898.95 133.61 1898.95 119.21 1850.29 119.21 1850.29 197.91"/><path class="f" d="m1957.78,134.57c8.27,0,15.69,3.22,23.08,8.07v-17.55c-6.59-4.63-14.9-6.93-24.27-6.93-25.54,0-40.17,19.62-40.17,40.61s12.95,40.18,38.91,40.18c9.93,0,17.01-2.21,26.28-7.86v-17.18c-9.61,5.42-15.48,8.64-24.19,8.64-13.97,0-23.88-10.03-23.88-24.14s10.02-23.85,24.23-23.85Z"/><polygon class="f" points="2017.16 119.21 2001.83 119.21 2001.83 197.91 2018.53 197.91 2018.53 147.48 2055.46 197.91 2069.53 197.91 2069.53 119.21 2052.86 119.21 2052.86 167.34 2017.16 119.21"/><rect class="f" x="2092.02" y="119.2" width="16.66" height="78.71"/><path class="f" d="m2169.5,134.57c8.23,0,15.67,3.22,23.03,8.07v-17.55c-6.55-4.63-14.9-6.93-24.22-6.93-25.57,0-40.22,19.62-40.22,40.61s12.98,40.18,38.95,40.18c9.93,0,16.97-2.21,26.27-7.86v-17.18c-9.61,5.42-15.46,8.64-24.2,8.64-13.92,0-23.83-10.03-23.83-24.14s9.99-23.85,24.22-23.85Z"/><path class="f" d="m2206.26,197.91h17.66l5.01-15.6h29.93l5.52,15.6h17.93l-29.75-78.71h-19.31l-26.99,78.71Zm36.88-59.86l10.85,30.55h-20.64l9.78-30.55Z"/><path class="f" d="m746.33,484.03c-20.97,0-37.83-8.59-65.32-32.92v54.96c19.06,13.07,35.64,24.68,68.99,24.68,42.63,0,73.48-28.43,73.48-77.4,0-89.01-97.32-78.13-97.32-116.65,0-12.72,10.95-20.95,28.05-20.95s32.82,6.36,60.57,22.83v-49.74c-24.12-13.84-43.44-19.82-64.78-19.82-44.31,0-72.89,29.16-72.89,73.29,0,91.61,97.31,76.28,97.31,118.15,0,14.99-9.86,23.58-28.09,23.58Z"/><path class="f" d="m835.24,527.38h50.47l14.34-50.45h85.49l15.72,50.45h51.31l-84.97-254.99h-55.25l-77.12,254.99Zm105.46-194.05l30.84,99.07h-58.86l28.02-99.07Z"/><polygon class="f" points="1074.72 272.39 1074.72 527.38 1220.56 527.38 1220.56 480.65 1122.37 480.65 1122.37 272.39 1074.72 272.39"/><polygon class="f" points="1386.86 319.12 1386.86 272.39 1247.76 272.39 1247.76 527.38 1388.82 527.38 1388.82 480.65 1295.45 480.65 1295.45 419.31 1382.66 419.31 1382.66 372.6 1295.45 372.6 1295.45 319.12 1386.86 319.12"/><path class="f" d="m1485.28,484.03c-21.04,0-37.88-8.59-65.32-32.92v54.96c19.05,13.07,35.6,24.68,68.95,24.68,42.66,0,73.48-28.43,73.48-77.4,0-89.01-97.31-78.13-97.31-116.65,0-12.72,10.95-20.95,28.06-20.95s32.82,6.36,60.57,22.83v-49.74c-24.12-13.84-43.48-19.82-64.79-19.82-44.26,0-72.88,29.16-72.88,73.29,0,91.61,97.28,76.28,97.28,118.15,0,14.99-9.82,23.58-28.03,23.58Z"/><rect class="f" x="1596.33" y="272.39" width="47.65" height="254.99"/><path class="f" d="m1667.56,527.38h50.45l14.3-50.45h85.55l15.69,50.45h51.34l-85-254.99h-55.24l-77.09,254.99Zm105.45-194.05l30.81,99.07h-58.9l28.09-99.07Z"/><polygon class="f" points="1955.01 364 2060.68 527.38 2100.78 527.38 2100.78 272.39 2053.13 272.39 2053.13 428.31 1951.02 272.39 1907.3 272.39 1907.3 527.38 1955.01 527.38 1955.01 364"/><path class="f" d="m2200.37,272.39l-77.13,254.99h50.47l14.29-50.45h85.54l15.68,50.45h51.36l-85-254.99h-55.21Zm.24,160.02l28.06-99.07,30.87,99.07h-58.93Z"/><path class="c" d="m45.72,445.69s-1.55-7-4.99-8.94c0,0-4-8.47,6.98-3l5.94-1.98,1.49-11.44s-7.96-11.44,0-12.45c0,0,4.97-.52,5.47-10.95l3.95-.65c.78.93,1.55,1.87,2.33,2.8,1.78-.67,3.57-1.35,5.35-2.02,1.47-2.06,2.93-4.12,4.4-6.18-1.22-1.94-2.21-3.59-2.97-4.88,0,0-.79-1.34-2.04-3.66-.16-.3-.46-.92-1.04-2.16-.23-.48-.48-1.03-.66-1.8-.07-.31-.11-.57-.13-.75-.08-1.7-.16-3.4-.24-5.1l1.72-.15c.3.11,3.41,1.17,5.36-.41,2.13-1.71,2.42-6.16-.71-9.63-.95-.08-1.91-.16-2.86-.25l-1.97-4.95-.52-9.97,1.97-3.49v-3.47l-3.47.98-3.04,21.36-4.66-13.08-1.74,6.67v2.99l-1.97,1.98-.56,3.97-4.93,2.48v3.47h-10.96s-10.98-7.39-13.43-11.9c0,0-13.41.99-6.5-11.95l6.5-1.99s3.49-11.93-3.96-14.97c0,0-.02-.04-.03-.07h-14.47c1.14,38.56,9.3,75.98,24.35,111.35,2.6,6.11,5.4,12.11,8.37,18.01l1.99-3.81c-2-.52-2.94-2.79,1.7-10.01Z"/><path class="c" d="m257.38,58.11c3.68-3.48,5.08-6.44,2.45-10.4-6.86-10.35,6.87-6.88,3.4-17.24-1.63-4.96-1.44-10.24-.8-14.41-14.08,2.66-27.95,6.28-41.56,10.87,8.85,13.67,21.38,24,36.51,31.18Z"/><path class="c" d="m126.59,175.38c-.97-.2-1.94-.41-2.88-.61-1.35,3.47-2.66,6.96-3.91,10.49.65.38,1.88,1.17,3.34,2.41l3.45-12.29Z"/><path class="c" d="m26.8,310.37l-4.01-4.49-.49-13.44s13.44-1.47,15.18-6.2c0,0-5.2-11.19,8.24-5.96,0,0,6.45-2.73.97-6.23,0,0-14.94-7.94-1.5-16.9,0,0,8.46-4,11.44-6.95l1.48-11.97,3-.98.5-15.93s-10.95-6.47,2.01-10.93c0,0,5.94-9.97,35.31-11.44,0,0,3.29-3.51,6.96-5.24,2.3-7.19,4.79-14.27,7.47-21.23-.48-.11-.97-.22-1.45-.33-29.73-6.95-46.39-13.35-54.58-17.05-9.08,14.27-16.99,29.28-23.66,44.97-16.11,37.89-24.34,78.12-24.49,119.6h15.89l1.73-9.29Z"/><path class="c" d="m133.38,152.26c-1.96,4.15-3.82,8.37-5.63,12.63,2.7.57,5.49,1.14,8.39,1.72,6.34-5.27,15.12-11.66,24.12-15.28,17.18-6.94,20.58-6.94,37.77-20.76,17.15-13.8,10.29-10.34,20.61-27.62,10.28-17.27-6.89,6.93,10.28-17.27,6.64-9.33,13.78-15.56,19.66-20.3-10.65-5.61-20.05-12.74-27.85-21.4-35.45,24.97-65.54,62.23-87.34,108.29Z"/><path class="c" d="m117.32,162.59c2.1-5.01,4.27-9.97,6.57-14.83,22.47-47.47,53.56-86,90.27-112.01-1.19-1.68-2.32-3.41-3.41-5.19-3.73,1.4-7.44,2.86-11.12,4.41-37.13,15.62-70.49,38-99.13,66.49-13.9,13.83-26.35,28.78-37.28,44.72,8.52,3.68,24.61,9.56,51.6,15.85.82.19,1.67.38,2.51.57Z"/><path class="d" d="m227.09,459.43c.7,3.07,1.43,6.13,2.18,9.17,10.27,41.43,25.02,78.62,42.79,108.04,14.06-4.24,29.05-6.31,43.7-6.65v-115.58c-32.79.66-62.36,2.5-88.68,5.02Z"/><path class="d" d="m125.96,474.69c22.55,55.09,57.15,100.63,100.19,129,9.81-10.48,22.16-18.18,35.77-23.55-19.73-33.19-35.13-74.06-45.43-119.64-37.13,3.94-67.34,9.19-90.54,14.19Z"/><path class="d" d="m263.22,30.47c3.47,10.35-10.26,6.89-3.4,17.24,2.63,3.97,1.23,6.92-2.45,10.4,16.76,7.95,36.72,12.04,58.4,12.53V10.65c-18.06.29-35.87,2.11-53.35,5.41-.63,4.17-.82,9.45.8,14.41Z"/><path class="d" d="m87.96,467.09s0-13.42-11.45-11.96c0,0-8.44,2.52-17.35-8.47,0,0-8.51-4-10.49,8.47,0,0-2.79,1.06-4.66.57l-1.99,3.81c4.13,8.21,8.6,16.21,13.43,23.99,6.5-2.53,18.09-6.55,36.74-11.5-1.36-1.33-2.77-2.94-4.23-4.91Z"/><path class="d" d="m315.78,184.52v-103.37c-17.51-.38-34.03-3.03-48.89-8-16.74,30.14-30.03,66.43-39.35,106.48,26.15,2.46,55.56,4.25,88.23,4.9Z"/><path class="d" d="m228.9,85.68c-17.17,24.2,0,0-10.28,17.27-10.32,17.28-3.46,13.82-20.61,27.62-17.19,13.83-20.59,13.83-37.77,20.76-9,3.62-17.79,10.01-24.12,15.28,21.63,4.29,48.59,8.62,80.87,11.98,9.42-40.97,22.93-78.18,39.96-109.22-2.88-1.24-5.68-2.56-8.4-4-5.88,4.74-13.02,10.97-19.66,20.3Z"/><path class="d" d="m230.32,237.72l3.91-7.96s.49-6.94,23.9,15.38l8.45.55,2.02,6,13.39,1.95s3.98,3.48-14.41,2.47l1.03,7.95s9.96,3.99,14.41,10.53l.97,19.81s-6.95-1.44-10.91,10l-.48,10.41s-1.12,1.83-3.23,4.82h46.43v-124.62c-33.57-.66-63.75-2.52-90.54-5.07-3.26,15.39-5.94,31.29-8.02,47.56l13.1.2Z"/><path class="d" d="m125.41,499.37c-3.54-7.28-6.82-14.74-9.89-22.33-.57.13-1.15.26-1.7.4-27.34,6.44-43.79,11.85-52.54,15.11,11.39,17.01,24.48,32.91,39.21,47.57,28.65,28.49,62,50.86,99.13,66.48,6.13,2.58,12.32,4.93,18.56,7.1.42-.62.83-1.23,1.26-1.84-38.14-25.4-70.53-64.11-94.03-112.49Z"/><path class="d" d="m196.96,372.54s-19.41,5.99-39.84,18.44c0,0-16.46,12.44-17.38,14.93l-1.52,15.93s-3.47,9.46-8.47,10.42c0,0,1.55,13.95-2.95,14.41,0,0,9,13.11-5.65,15.65.3.83.61,1.65.92,2.47,23.52-5.13,54.28-10.54,92.2-14.61-5.21-25.24-8.88-51.82-10.91-79.23-2.1.6-4.22,1.16-6.39,1.6Z"/><path class="d" d="m261.23,330.16c-10.08,12.01-26.49,28.13-47.61,37.14,1.96,28.17,5.71,55.51,11.22,81.79,26.95-2.62,57.28-4.52,90.94-5.19v-113.74h-54.55Z"/><path class="d" d="m126.59,175.38l-3.45,12.29c1.59,1.36,3.46,3.25,5.15,5.77,0,0,9.43,2.99,10.41,7.94,0,0,12.47,1.99,17.92,11.96,0,0,7.48,1.97,7.99-.52,0,0,.5-6.45,13.94,8.48l2.5,9.94,16.38,1.47,1.46,4.53,7.75.12c2.09-16.57,4.8-32.76,8.1-48.45-35.92-3.78-65.3-8.74-88.15-13.53Z"/><path class="d" d="m228.57,617.11c28.14,8.68,57.34,13.31,87.2,13.79v-50.42c-33.14.78-68.03,10.45-87.2,36.63Z"/><path class="g" d="m86.35,318.7c.32-43.35,6.99-85.76,19.53-125.01-3.67,1.73-6.96,5.24-6.96,5.24-29.36,1.47-35.31,11.44-35.31,11.44-12.96,4.46-2.01,10.93-2.01,10.93l-.5,15.93-3,.98-1.48,11.97c-2.98,2.95-11.44,6.95-11.44,6.95-13.45,8.96,1.5,16.9,1.5,16.9,5.49,3.5-.97,6.23-.97,6.23-13.45-5.22-8.24,5.96-8.24,5.96-1.74,4.74-15.18,6.2-15.18,6.2l.49,13.44,4.01,4.49-1.73,9.29h61.01l.27-.95Z"/><path class="g" d="m86.41,330.16H23.79s.03.07.03.07c7.45,3.04,3.96,14.97,3.96,14.97l-6.5,1.99c-6.91,12.94,6.5,11.95,6.5,11.95,2.45,4.51,13.43,11.9,13.43,11.9h10.96v-3.47l4.93-2.48.56-3.97,1.97-1.98v-2.99l1.74-6.67,4.66,13.08,3.04-21.36,3.47-.98v3.47l-1.97,3.49.52,9.97c.66,1.65,1.31,3.3,1.97,4.95.95.08,1.91.16,2.86.25.27.29.63.71.98,1.28,1.56,2.55,1.7,6.02.32,7.76-.37.47-.83.77-.85.79-.9.6-1.86.63-2.43.66-.56.02-.99-.04-1.22-.07-.6-.09-1.09-.24-1.45-.37-.57.05-1.14.1-1.72.15.03.66.06,1.32.09,1.99.13,2.75.15,3.08.15,3.11.07,1.32,1.45,4.66,6.84,13.25-1.47,2.06-2.93,4.12-4.4,6.18-1.78.67-3.57,1.35-5.35,2.02-.78-.93-1.55-1.87-2.33-2.8l-3.95.65c-.51,10.43-5.47,10.95-5.47,10.95-7.96,1.01,0,12.45,0,12.45l-1.49,11.44-5.94,1.98c-10.98-5.48-6.98,3-6.98,3,3.44,1.94,4.99,8.94,4.99,8.94-4.64,7.22-3.7,9.49-1.7,10.01,1.87.48,4.66-.57,4.66-.57,1.98-12.47,10.49-8.47,10.49-8.47,8.91,10.98,17.35,8.47,17.35,8.47,11.45-1.46,11.45,11.96,11.45,11.96,1.46,1.97,2.87,3.58,4.23,4.91,5.59-1.48,11.79-3.05,18.7-4.68.26-.06.53-.12.78-.18-15.76-42.4-24.38-89.02-25.26-136.98Z"/><path class="g" d="m96.9,330.16c.89,46.79,9.42,91.77,24.25,132.16,14.65-2.54,5.65-15.65,5.65-15.65,4.5-.46,2.95-14.41,2.95-14.41,5-.96,8.47-10.42,8.47-10.42l1.52-15.93c.92-2.49,17.38-14.93,17.38-14.93,20.44-12.46,39.84-18.44,39.84-18.44,2.17-.44,4.3-1,6.39-1.6-.99-13.41-1.6-27.02-1.8-40.78h-104.66Z"/><path class="g" d="m261.23,330.16h-49.16c.17,12.52.7,24.91,1.55,37.14,21.12-9.01,37.53-25.14,47.61-37.14Z"/><path class="g" d="m198.9,237.24l-1.46-4.53-16.38-1.47-2.5-9.94c-13.45-14.93-13.94-8.48-13.94-8.48-.51,2.49-7.99.52-7.99.52-5.44-9.97-17.92-11.96-17.92-11.96-.98-4.95-10.41-7.94-10.41-7.94-1.69-2.52-3.56-4.42-5.15-5.77-1.46-1.24-2.7-2.03-3.34-2.41-9.56,26.86-16.22,55.42-19.82,84.9-1.99,16.27-3.05,32.81-3.14,49.5h104.66c.03-28.04,1.79-55.65,5.15-82.3l-7.75-.12Z"/><path class="g" d="m272.58,314.83l.48-10.41c3.96-11.44,10.91-10,10.91-10l-.97-19.81c-4.45-6.54-14.41-10.53-14.41-10.53l-1.03-7.95c18.39,1.01,14.41-2.47,14.41-2.47l-13.39-1.95-2.02-6-8.45-.55c-23.4-22.33-23.9-15.38-23.9-15.38l-3.91,7.96-13.1-.2c-3.39,26.56-5.18,54.12-5.21,82.13h57.34c2.12-2.99,3.23-4.82,3.23-4.82Z"/><path class="e" d="m569.25,316.65c-6.08,13.67-9.1,9.06-9.1,9.06l-1.52-22.71-19.7-24.27-1.55-22.77c6.42-8.13,10.07-16.37,11.99-24.03.92-3.67,1.44-7.19,1.69-10.51,1.07-14.3-3.03-24.62-3.03-24.62-12.15-1.51-13.67-4.55-13.67-4.55v-9.12c-13.66-21.23-25.77,3.05-25.77,3.05l-15.24,1.52c-9,30.49-36.5,13.09-49.99,2.18-4.64-3.75-7.63-6.74-7.63-6.74l-30.34,15.21c-37.95,12.12-22.77-13.66-22.77-13.66l-5.97-13.21c-14.48,14.55-25.77,37.11-25.77,37.11l-1.66,21-1.43,15.77c-5,22.88-3.06,78.89-3.06,78.89-4.57,12.14,7.58,37.94,7.58,37.94-4.52,21.19,9.08,13.67,9.08,13.67l22.79-16.72c15.18,3.04,1.52,16.72,1.52,16.72-19.73,22.73,4.55,25.71,4.55,25.71,13.62,0,6.05-21.17,6.05-21.17,9.44,22.42,38.2,14.5,50.47,9.89-14.94,7.92-18.6,24.99-18.6,24.99,2.12,2.82,11.14,3.66,20.18,3.76,10.38.11,20.79-.76,20.79-.76,3.01-7.58,18.19-9.08,18.19-9.08,9.1-9.12-9.08-22.76-9.08-22.76-13.69-7.55-15.2-22.74-15.2-22.74,7.61,15.18,37.96,28.84,37.96,28.84v19.67c-7.65,3.06-1.56,37.93-1.56,37.93,6.38,20.4,22.43,8.64,27.38,4.37l-33.47,30.51v12.2c60.71,0,59.21-36.43,59.21-36.43v-34.91c15.16-4.54,10.6-36.38,10.6-36.38,16.73,16.65,18.22,3.05,19.73-1.56,1.54-4.56,12.16-18.14,12.16-18.14,18.2-42.51,6.07-54.68,6.07-54.68-21.24-12.1-13.69,10.6-13.69,10.6,4.6,18.22-7.55,31.88-7.55,31.88l-4.59-6c16.74-16.75,0-27.35,0-27.35,6.08-13.64,16.74-24.27,16.74-24.27,13.63-10.64,24.22,7.58,24.22,7.58l1.54-13.71c-34.9-25.73-48.56,22.81-48.56,22.81Zm-157.76-1.54l-4.56,18.22s-7.57,0-13.68-19.69h-24.25s-27.33,9.09-9.09-9.13v-6.05l-10.65-1.51v-25.79l3.05-12.17,3-28.85s4.6,18.25,10.66,22.79c0,0,6.02,7.57-6.06,7.57,0,0,1.47,22.81,12.08,22.81l34.94,4.49s15.17,15.21,4.56,27.31Zm97.11,3.05c4.5,13.65-6.13,4.57-6.13,4.57-3.02-9.09-12.11-6.08-12.11-6.08-7.57,7.58-24.26,1.51-24.26,1.51h-12.14c-2.74-.27-5.38-1.34-7.87-2.9-11.3-7.08-19.41-24.41-19.41-24.41,2.32,3.25,9.78,4.78,19,5.35,20.86,1.29,50.75-2.36,50.75-2.36,9.13,12.19,22.75,21.27,22.75,21.27l-10.58,3.05Z"/><path class="e" d="m476.69,424.37s-13.45-1.96-28.3-3.23c-19.72-1.69-41.91-2.17-38.45,4.73,0,0-3.02,7.61,22.77,7.61,0,0-12.09,6.04-7.58,10.6,0,0-19.73,6.06-22.75-4.56,0,0-7.59-34.85-22.76-6.04,0,0,6.08,12.14,12.11,16.66l1.52,12.15s6.12,15.15,48.59,21.24c0,0,3.13.77,7.93,1,11.58.55,32.9-2.13,43.58-26.79,0,0,1.55-22.74-16.66-33.36Z"/><polygon class="f" points="1904.71 599.5 1930.77 599.5 1930.77 589.05 1904.71 589.05 1904.71 577.05 1932.02 577.05 1932.02 566.57 1890.47 566.57 1890.47 623.7 1932.59 623.7 1932.59 613.23 1904.71 613.23 1904.71 599.5"/><path class="f" d="m1955.7,595.09c0-10.17,8.53-17.36,20.69-17.36,7.05,0,13.4,2.34,19.67,5.84v-12.72c-5.62-3.35-12.68-5.04-20.64-5.04-21.88,0-34.33,14.24-34.33,29.47s11.02,29.15,33.21,29.15c8.44,0,14.5-1.58,22.45-5.7v-12.48c-8.18,3.95-13.25,6.3-20.69,6.3-11.9,0-20.36-7.28-20.36-17.47Z"/><path class="f" d="m2050.43,598.42c0,10.21-6.97,14.15-14.5,14.15-8.19,0-14.16-4.95-14.16-13.14v-32.85h-14.21v32.5c0,17.66,11.98,25.38,28.56,25.38,15.64,0,28.55-6.51,28.55-25.45v-32.43h-14.24v31.85Z"/><path class="f" d="m2090.12,566.58l-23.03,57.12h15.08l4.28-11.28h25.54l4.68,11.28h15.32l-25.37-57.12h-16.49Zm.1,35.85l8.37-22.19,9.2,22.19h-17.56Z"/><path class="f" d="m2163.73,566.57h-25.19v57.12h23.58c22.81,0,33.18-12.07,33.18-28.47s-10.73-28.65-31.57-28.65Zm-1.67,46.66h-9.3v-36.18h9.11c13.51,0,18.77,8.26,18.77,18.08,0,8.37-4.29,18.1-18.58,18.1Z"/><path class="f" d="m2236.1,565.83c-21.56,0-32.79,15.5-32.79,29.31,0,14.58,11.82,29.31,32.79,29.31s32.63-14.63,32.63-29.31c0-13.71-11.16-29.31-32.63-29.31Zm0,46.74c-10.89,0-18.1-6.94-18.1-17.43s7.21-17.4,18.1-17.4,17.96,6.93,17.96,17.4-7.19,17.43-17.96,17.43Z"/><path class="f" d="m2313.44,597c6.56-3.01,9.81-7.72,9.81-13.98,0-8.54-6.95-16.44-18.7-16.44h-25.49v57.12h14.22v-23.19h4.1c7.69,0,9.94,10.98,16.05,23.19h15.7c-8.02-16.74-9.82-23.76-15.7-26.7Zm-12.65-6.97h-7.51v-12.97h7.2c5.36,0,8.13,2.17,8.13,6.47,0,4.83-3.87,6.5-7.82,6.5Z"/><polygon class="f" points="1871.72 110.87 1896.63 102.57 1884.18 94.25 1871.72 110.87"/><polygon class="f" points="67.58 385.52 67.6 385.47 67.59 385.48 67.58 385.52"/><path class="f" d="m371.99,283.31c-10.6,0-12.08-22.81-12.08-22.81,12.08,0,6.06-7.57,6.06-7.57-6.06-4.55-10.66-22.79-10.66-22.79l-3,28.85-3.05,12.17v25.79l10.65,1.51v6.05c-18.24,18.23,9.09,9.13,9.09,9.13h24.25c6.11,19.69,13.68,19.69,13.68,19.69l4.56-18.22c10.61-12.11-4.56-27.31-4.56-27.31l-34.94-4.49Z"/><path class="f" d="m496.43,293.84s-29.89,3.65-50.75,2.36c-9.22-.57-16.68-2.11-19-5.35,0,0,8.11,17.33,19.41,24.41,2.49,1.56,5.12,2.63,7.87,2.9h12.14s16.69,6.07,24.26-1.51c0,0,9.09-3.01,12.11,6.08,0,0,10.64,9.08,6.13-4.57l10.58-3.05s-13.62-9.08-22.75-21.27Z"/><path class="f" d="m2344.03,74.89H526.48C471.04,28.38,399.63.27,321.66.01c-.36,0-.72-.01-1.08-.01-42.46,0-82.98,8.27-120.07,23.27C82.95,70.79,0,185.99,0,320.58c0,177.05,143.53,320.58,320.58,320.58,46.74,0,91.13-10.01,131.18-27.99h1409.79v-10.51H473.01c100.14-54.23,168.14-160.21,168.14-282.08,0-30.75-4.36-60.49-12.44-88.64h1715.31v-10.51H625.52c-17.11-52.63-47.46-99.29-87.13-136.04h1805.64v-10.51ZM201.5,319.65h-104.66c.09-16.69,1.15-33.23,3.14-49.5,3.6-29.48,10.26-58.04,19.82-84.9,1.25-3.53,2.56-7.02,3.91-10.49.95.2,1.91.41,2.88.61,22.85,4.79,52.23,9.75,88.15,13.53-3.3,15.69-6.01,31.88-8.1,48.45-3.36,26.65-5.12,54.26-5.15,82.3Zm12.77,130.52c-37.92,4.07-68.68,9.48-92.2,14.61-.31-.82-.61-1.64-.92-2.47-14.84-40.39-23.36-85.37-24.25-132.16h104.66c.19,13.76.8,27.37,1.8,40.78,2.03,27.42,5.71,53.99,10.91,79.23Zm-78.14-283.57c-2.89-.57-5.68-1.15-8.39-1.72,1.81-4.26,3.67-8.48,5.63-12.63,21.81-46.06,51.89-83.32,87.34-108.29,7.8,8.67,17.19,15.79,27.85,21.4,2.72,1.43,5.53,2.76,8.4,4-17.03,31.04-30.55,68.25-39.96,109.22-32.28-3.36-59.25-7.69-80.87-11.98Zm-35.64-65.15c28.65-28.49,62-50.87,99.13-66.49,3.68-1.55,7.4-3.01,11.12-4.41,1.08,1.78,2.22,3.51,3.41,5.19-36.71,26.01-67.79,64.54-90.27,112.01-2.3,4.87-4.47,9.83-6.57,14.83-.84-.19-1.69-.38-2.51-.57-26.99-6.28-43.08-12.17-51.6-15.85,10.93-15.94,23.37-30.88,37.28-44.72Zm-66.83,98.6c6.67-15.7,14.59-30.71,23.66-44.97,8.19,3.7,24.85,10.1,54.58,17.05.47.11.97.22,1.45.33-2.69,6.96-5.18,14.04-7.47,21.23-12.54,39.26-19.21,81.66-19.53,125.01l-.27.95H9.17c.15-41.48,8.37-81.71,24.49-119.6Zm8.37,259.45c-2.97-5.9-5.77-11.9-8.37-18.01-15.04-35.37-23.21-72.79-24.35-111.35h77.1c.88,47.96,9.51,94.58,25.26,136.98-.26.06-.53.12-.78.18-6.91,1.63-13.11,3.2-18.7,4.68-18.65,4.95-30.24,8.97-36.74,11.5-4.82-7.78-9.3-15.78-13.43-23.99Zm176.15,154.18c-6.24-2.17-12.43-4.53-18.56-7.1-37.13-15.62-70.49-38-99.13-66.48-14.73-14.66-27.82-30.56-39.21-47.57,8.75-3.27,25.2-8.67,52.54-15.11.56-.13,1.14-.26,1.7-.4,3.07,7.59,6.35,15.05,9.89,22.33,23.5,48.38,55.89,87.09,94.03,112.49-.43.6-.84,1.22-1.26,1.84Zm-92.22-139c23.19-5,53.4-10.25,90.54-14.19,10.31,45.58,25.7,86.45,45.43,119.64-13.62,5.37-25.97,13.07-35.77,23.55-43.04-28.36-77.65-73.9-100.19-129Zm189.82,128.12v28.1c-29.87-.48-59.07-5.11-87.2-13.79,19.18-26.18,54.07-35.85,87.2-36.63v22.33Zm0-32.82c-14.65.34-29.64,2.41-43.7,6.65-17.77-29.42-32.52-66.61-42.79-108.04-.75-3.04-1.48-6.1-2.18-9.17,26.32-2.52,55.89-4.36,88.68-5.02v115.58Zm0-126.09c-33.66.67-63.99,2.58-90.94,5.19-5.51-26.28-9.26-53.63-11.22-81.79-.85-12.23-1.37-24.62-1.55-37.14h103.71v113.74Zm0-124.25h-103.77c.03-28.02,1.82-55.58,5.21-82.13,2.08-16.27,4.76-32.17,8.02-47.56,26.79,2.55,56.97,4.41,90.54,5.07v124.62Zm0-135.13c-32.67-.65-62.08-2.44-88.23-4.9,9.31-40.05,22.61-76.34,39.35-106.48,14.86,4.97,31.38,7.62,48.89,8v103.37Zm0-113.88c-21.69-.49-41.64-4.58-58.4-12.53-15.14-7.18-27.67-17.51-36.51-31.18,13.61-4.59,27.48-8.21,41.56-10.87,17.48-3.3,35.3-5.12,53.35-5.41v59.99Zm133.99,413.88c-4.79-.23-7.93-1-7.93-1-42.48-6.08-48.59-21.24-48.59-21.24l-1.52-12.15c-6.03-4.52-12.11-16.66-12.11-16.66,15.17-28.81,22.76,6.04,22.76,6.04,3.02,10.62,22.75,4.56,22.75,4.56-4.51-4.56,7.58-10.6,7.58-10.6-25.79,0-22.77-7.61-22.77-7.61-3.46-6.91,18.74-6.42,38.45-4.73,14.85,1.27,28.3,3.23,28.3,3.23,18.21,10.61,16.66,33.36,16.66,33.36-10.68,24.66-32.01,27.34-43.58,26.79Zm98.27-287.71s4.1,10.32,3.03,24.62c-.25,3.32-.77,6.84-1.69,10.51-1.93,7.66-5.57,15.91-11.99,24.03l1.55,22.77,19.7,24.27,1.52,22.71s3.02,4.61,9.1-9.06c0,0,13.65-48.54,48.56-22.81l-1.54,13.71s-10.59-18.22-24.22-7.58c0,0-10.66,10.63-16.74,24.27,0,0,16.74,10.6,0,27.35l4.59,6s12.15-13.66,7.55-31.88c0,0-7.55-22.71,13.69-10.6,0,0,12.13,12.17-6.07,54.68,0,0-10.62,13.58-12.16,18.14-1.52,4.61-3,18.2-19.73,1.56,0,0,4.56,31.84-10.6,36.38v34.91s1.5,36.43-59.21,36.43v-12.2l33.47-30.51c-4.95,4.27-21,16.04-27.38-4.37,0,0-6.09-34.87,1.56-37.93v-19.67s-30.35-13.66-37.96-28.84c0,0,1.52,15.18,15.2,22.74,0,0,18.18,13.64,9.08,22.76,0,0-15.18,1.5-18.19,9.08,0,0-10.41.87-20.79.76-9.04-.1-18.07-.94-20.18-3.76,0,0,3.66-17.06,18.6-24.99-12.27,4.61-41.03,12.53-50.47-9.89,0,0,7.57,21.17-6.05,21.17,0,0-24.28-2.98-4.55-25.71,0,0,13.66-13.67-1.52-16.72l-22.79,16.72s-13.6,7.51-9.08-13.67c0,0-12.15-25.8-7.58-37.94,0,0-1.93-56.01,3.06-78.89l1.43-15.77,1.66-21s11.29-22.56,25.77-37.11l5.97,13.21s-15.17,25.78,22.77,13.66l30.34-15.21s2.99,2.99,7.63,6.74c13.49,10.91,40.98,28.31,49.99-2.18l15.24-1.52s12.11-24.27,25.77-3.05v9.12s1.52,3.05,13.67,4.55Z"/></svg>