<?xml version="1.0" encoding="UTF-8" standalone="no"?>
<!-- Created with Inkscape (http://www.inkscape.org/) -->

<svg
   width="177.94003mm"
   height="177.14214mm"
   viewBox="0 0 177.94009 177.14224"
   version="1.1"
   id="svg5"
   xml:space="preserve"
   inkscape:export-filename="../App/ups-white-iso.png"
   inkscape:export-xdpi="96"
   inkscape:export-ydpi="96"
   inkscape:version="1.2.2 (b0a84865, 2022-12-01)"
   sodipodi:docname="ups-dev-white-iso.svg"
   xmlns:inkscape="http://www.inkscape.org/namespaces/inkscape"
   xmlns:sodipodi="http://sodipodi.sourceforge.net/DTD/sodipodi-0.dtd"
   xmlns="http://www.w3.org/2000/svg"
   xmlns:svg="http://www.w3.org/2000/svg"><sodipodi:namedview
     id="namedview7"
     pagecolor="#0000ff"
     bordercolor="#000050"
     borderopacity="0.31372549"
     inkscape:showpageshadow="false"
     inkscape:pageopacity="0"
     inkscape:pagecheckerboard="true"
     inkscape:deskcolor="#ccccc6"
     inkscape:document-units="mm"
     showgrid="false"
     showguides="false"
     inkscape:zoom="0.46982308"
     inkscape:cx="871.60469"
     inkscape:cy="368.22371"
     inkscape:window-width="1512"
     inkscape:window-height="916"
     inkscape:window-x="0"
     inkscape:window-y="25"
     inkscape:window-maximized="0"
     inkscape:current-layer="g13246"
     showborder="true"
     borderlayer="true" /><defs
     id="defs2"><style
       id="style148">.cls-1{fill:none;}.cls-2{fill:#003976;}.cls-3{fill:#ccd7e4;}.cls-4{fill:#feecb2;}.cls-5{fill:#6688ad;}.cls-6{fill:#fcc000;}</style><style
       id="style11622">.cls-1{fill:none;}.cls-2{fill:#003976;}.cls-3{fill:#ccd7e4;}.cls-4{fill:#feecb2;}.cls-5{fill:#6688ad;}.cls-6{fill:#fcc000;}</style><style
       id="style13110">.cls-1{fill:#fff;}</style></defs><g
     inkscape:label="Capa 1"
     inkscape:groupmode="layer"
     id="layer1"
     transform="translate(-13.229,-13.229)"><g
       id="g13246"
       transform="matrix(2.398803,0,0,2.4012761,13.229,12.96486)"><path
         class="cls-1"
         d="m 61.67,21.62 a 1.34,1.34 0 0 0 -0.26,-0.87 c -0.67,-0.87 -1.48,-0.93 -2.15,-0.07 a 2.13,2.13 0 0 1 -1.86,0.88 0.66,0.66 0 0 0 -0.67,0.48 2.09,2.09 0 0 1 -3,1.33 8.27,8.27 0 0 1 -2.93,-1.86 0.8,0.8 0 0 0 -1.09,-0.15 21.15,21.15 0 0 1 -2.61,1.3 7.78,7.78 0 0 1 -2.17,0.5 c -0.93,0.08 -1.3,-0.44 -0.92,-1.29 0.38,-0.85 -0.28,-1.39 -0.5,-2.17 a 8.26,8.26 0 0 0 -0.62,0.66 c -0.65,0.92 -1.28,1.86 -1.93,2.79 a 3.5,3.5 0 0 0 -0.58,2 c 0,0.51 -0.06,1 -0.12,1.53 a 56.67,56.67 0 0 0 -0.55,7.92 17.77,17.77 0 0 1 0,2.73 A 6.73,6.73 0 0 0 40,40 c 0.26,0.89 0.79,1.73 0.54,2.72 0,0 0,0.09 0,0.14 0.11,0.53 0.42,0.73 0.93,0.56 a 2.23,2.23 0 0 0 0.58,-0.33 c 0.68,-0.48 1.35,-1 2,-1.47 a 0.53,0.53 0 0 1 0.77,0 0.89,0.89 0 0 1 0.2,0.71 3.92,3.92 0 0 1 -0.54,0.89 12.36,12.36 0 0 0 -0.72,1.06 1.16,1.16 0 0 0 0,1.36 1.62,1.62 0 0 0 1.39,0.62 0.75,0.75 0 0 0 0.78,-0.65 c 0.06,-0.36 0.06,-0.73 0.09,-1.1 1.43,1.5 3.15,1.11 4.71,0.76 -0.37,0.59 -0.83,1.22 -1.18,1.91 -0.35,0.69 -0.25,0.91 0.53,1 1.27,0.1 2.55,0.07 3.82,0.08 a 0.36,0.36 0 0 0 0.25,-0.11 2.52,2.52 0 0 1 1.79,-0.9 C 56.28,47.19 56.5,47 56.48,46.68 a 1.9,1.9 0 0 0 -0.22,-1 6.42,6.42 0 0 0 -1.26,-1.29 3.78,3.78 0 0 1 -1.47,-2.12 7.74,7.74 0 0 0 3,2.33 1.74,1.74 0 0 1 1.21,2.15 c 0,0.26 0,0.53 -0.11,0.79 a 3.59,3.59 0 0 0 -0.27,0.8 27.52,27.52 0 0 0 0.16,3.14 c 0.19,1.46 0.81,1.87 2.32,1.65 -0.79,0.72 -1.49,1.45 -2.28,2.05 a 1.81,1.81 0 0 0 -0.7,1.75 c 0,0.29 0.12,0.38 0.41,0.38 a 9.14,9.14 0 0 0 4,-0.79 4,4 0 0 0 2.52,-3.89 c 0,-1 0,-2 0,-3.07 a 0.65,0.65 0 0 1 0.31,-0.63 1.77,1.77 0 0 0 0.61,-0.77 10.54,10.54 0 0 0 0.35,-1.76 11.66,11.66 0 0 0 0,-1.33 c 0.2,0.17 0.32,0.28 0.45,0.37 a 3.4,3.4 0 0 0 0.45,0.28 c 0.54,0.26 0.88,0.09 1.14,-0.45 0.26,-0.54 0.7,-1.31 1.06,-2 a 17.07,17.07 0 0 0 0.88,-1.63 9.66,9.66 0 0 0 0.78,-3.87 c 0,-1.13 -0.41,-1.68 -1.31,-1.9 -0.62,-0.15 -1,0.1 -1,0.75 a 8.62,8.62 0 0 0 0.2,1.22 4.14,4.14 0 0 1 -0.85,3.19 c -0.41,-0.3 -0.48,-0.55 -0.16,-1 A 1.7,1.7 0 0 0 66.61,37.5 c -0.19,-0.2 -0.23,-0.36 -0.08,-0.58 0.51,-0.72 1,-1.47 1.52,-2.15 a 1.44,1.44 0 0 1 2.16,-0.21 9.24,9.24 0 0 1 0.85,0.83 c 0.06,-0.54 0.12,-1 0.16,-1.48 a 0.38,0.38 0 0 0 -0.13,-0.24 3.12,3.12 0 0 0 -2.87,-0.66 3.47,3.47 0 0 0 -2,1.8 c -0.36,0.65 -0.61,1.37 -1,2 A 3.59,3.59 0 0 1 64.7,37.47 L 64.54,37.4 a 9.85,9.85 0 0 1 -0.1,-1.08 3.12,3.12 0 0 0 -0.95,-2.58 c -0.18,-0.16 -0.3,-0.38 -0.46,-0.55 a 2.86,2.86 0 0 1 -1,-2.44 c 0,-0.05 0,-0.09 0,-0.14 a 2.57,2.57 0 0 1 0.39,-1.89 6.94,6.94 0 0 0 1,-4.95 C 63.32,23 63.15,22.39 62.2,22.36 61.87,22.46 61.65,22.15 61.67,21.62 Z M 47.51,36.33 a 5.72,5.72 0 0 0 -0.46,1.6 c -0.12,0.44 -0.31,0.51 -0.58,0.13 a 8.48,8.48 0 0 1 -0.86,-1.53 c -0.14,-0.3 -0.27,-0.45 -0.62,-0.44 A 13.1,13.1 0 0 0 41.57,36.35 0.74,0.74 0 0 1 41.19,36.3 L 41,36.22 v 0 c 0,0 0,-0.09 0,-0.14 a 1.59,1.59 0 0 1 0.16,-0.41 5,5 0 0 1 0.37,-0.43 0.54,0.54 0 0 0 -0.37,-0.93 c -0.9,-0.11 -0.7,-0.15 -0.76,-0.88 a 21.29,21.29 0 0 1 0.44,-4.51 c 0.08,-0.6 0.13,-1.19 0.2,-1.79 h 0.09 l 0.11,0.26 c 0.33,0.61 0.63,1.24 1,1.84 0.25,0.41 0.22,0.66 -0.23,0.73 -0.45,0.07 -0.49,0.32 -0.4,0.67 0.09,0.35 0.14,0.62 0.23,0.93 a 1.54,1.54 0 0 0 1.54,1.25 c 1.08,0.08 2.15,0.23 3.22,0.4 a 1.17,1.17 0 0 1 0.66,0.4 2.2,2.2 0 0 1 0.25,2.72 z M 58.75,37.4 A 0.7,0.7 0 0 1 58,37 1,1 0 0 0 56.43,36.6 2.66,2.66 0 0 1 54.57,36.81 6.85,6.85 0 0 0 53,36.63 2.52,2.52 0 0 1 50.84,35.7 C 50.37,35.15 49.95,34.55 49.5,33.97 l 0.1,-0.09 a 15.82,15.82 0 0 0 5.18,0.28 c 0.76,0 1.52,-0.14 2.28,-0.2 a 0.51,0.51 0 0 1 0.3,0.09 c 0.77,0.75 1.53,1.52 2.32,2.3 -0.53,0.14 -1.26,0.15 -0.93,1.05 z"
         id="path13194" /><path
         class="cls-1"
         d="m 57,52.31 a 5.66,5.66 0 0 0 -0.34,-1.53 c -0.4,-1 -0.93,-1.86 -2.11,-2 -1.44,-0.16 -2.88,-0.32 -4.33,-0.4 a 14.23,14.23 0 0 0 -2.52,0.16 0.53,0.53 0 0 0 -0.18,1 1.88,1.88 0 0 0 0.69,0.31 c 0.45,0.09 0.91,0.14 1.29,0.19 -0.19,0.34 -0.36,0.68 -0.56,1 a 0.55,0.55 0 0 1 -0.29,0.2 4.31,4.31 0 0 1 -0.61,0.1 1.33,1.33 0 0 1 -1.6,-1 6.29,6.29 0 0 0 -0.8,-1.49 0.77,0.77 0 0 0 -0.75,-0.14 3.53,3.53 0 0 0 -1,1.14 c -0.09,0.19 0.18,0.59 0.33,0.88 a 2.19,2.19 0 0 0 0.5,0.7 1.67,1.67 0 0 1 0.57,1.4 1.38,1.38 0 0 0 0.55,1.07 7.9,7.9 0 0 0 0.78,0.55 11.87,11.87 0 0 0 5.94,1.42 4.6,4.6 0 0 0 4.24,-2.73 1.56,1.56 0 0 0 0.2,-0.83 z"
         id="path13196" /><path
         class="cls-1"
         d="M 72.22,25.16 C 71.65,23.72 71.12,22.26 70.46,20.87 68.578326,16.945359 65.995996,13.397197 62.84,10.4 61.714748,9.2872158 61.502912,9.1532575 60.44,8.27 57.311115,5.7332146 53.783278,3.7327552 50,2.35 46.335326,1.0056045 42.480994,0.24958845 38.58,0.11 h -2 l -1.73,0.07 c -2.290013,0.0817254 -4.563905,0.41710771 -6.78,1 C 17.034769,3.9517414 7.8755092,11.622529 3.21,22 1.1183403,26.6445 0.0247675,31.676297 0,36.77 c 0,1.46 0.13,2.93 0.26,4.39 0.24231977,2.567669 0.7963974,5.096278 1.65,7.53 1.9009083,5.682089 5.170283,10.809375 9.52,14.93 6.334901,6.044234 14.601089,9.656707 23.34,10.2 0.58,0 1.17,0.05 1.76,0.06 v 0 C 43.550814,73.606826 49.599364,72.253116 55.09,69.37 61.472582,65.836458 66.661967,60.486972 70,54 c 0.48,-0.93 0.93,-1.89 1.34,-2.87 3.223907,-7.748867 3.717586,-16.363569 1.4,-24.43 -0.255275,-0.887259 -0.238999,-0.912574 -0.52,-1.54 z M 12.73,53.85 v -0.09 c -0.0079,-0.139889 -0.0079,-0.280111 0,-0.42 0.18,0.32 0.18,0.42 0,0.51 z M 24.21,25.62 c -0.06,0.42 -0.11,0.84 -0.16,1.26 -0.309968,0.08315 -0.641008,0.01248 -0.89,-0.19 -0.37589,-0.286565 -0.854611,-0.402618 -1.32,-0.32 -0.752317,0.216782 -1.450684,-0.475952 -1.24,-1.23 0,-0.29 -0.07,-0.44 -0.39,-0.47 -0.359696,0.0141 -0.678683,-0.229333 -0.76,-0.58 -0.05,-0.38 -0.22,-0.37 -0.47,-0.29 -0.25,0.08 -0.6,0.16 -0.78,0 -0.564788,-0.421474 -1.18801,-0.75835 -1.85,-1 -0.63,-0.32 -1.05,-0.91 -1.74,-1.13 -0.236893,-0.07701 -0.459771,-0.191823 -0.66,-0.34 0.08,-0.24 0.16,-0.48 0.23,-0.72 0.07,-0.24 0.26,-0.46 0.68,-0.39 2.74,0.47 5.49,0.91 8.23,1.35 0.426946,0.0664 0.857977,0.103152 1.29,0.11 0.37,0 0.5,0.14 0.43,0.53 -0.22,1.15 -0.45,2.27 -0.6,3.41 z M 14.15,52.13 c -0.17866,-0.740084 -0.01729,-1.521285 0.44,-2.13 0.06137,-0.123768 0.08236,-0.263673 0.06,-0.4 -0.008,-0.47953 0.21531,-0.933596 0.6,-1.22 0.202005,-0.161662 0.325645,-0.40167 0.34,-0.66 0.05,-0.4 0.12,-0.8 0.19,-1.2 0,-0.14 0.11,-0.27 0.27,-0.24 0.16,0.03 0.2,0.16 0.16,0.31 -0.005,0.09326 -0.005,0.186735 0,0.28 0.37,-0.11 0.63,-0.26 0.38,-0.64 -0.25,-0.38 -0.06,-0.36 0.1,-0.51 l 1.57,-1.53 c 0.07546,-0.09095 0.176487,-0.157139 0.29,-0.19 1.6997,-0.4961 3.369174,-1.090432 5,-1.78 0.13,1.74 0.33,3.47 0.55,5.2 0.17,1.35 0.44,2.7 0.69,4 0.06,0.34 0,0.43 -0.34,0.46 -3.258972,0.326761 -6.497288,0.834209 -9.7,1.52 -0.16,0 -0.34,0 -0.52,0.06 -0.12,-0.34 -0.24,-0.68 -0.35,-1 0.12,-0.01 0.31,-0.13 0.27,-0.33 z M 24.74,20.6 c -1.76,-0.24 -3.53,-0.45 -5.29,-0.71 -1.35,-0.2 -2.69,-0.48 -4,-0.72 -0.17,0 -0.33,-0.09 -0.57,-0.15 2.204306,-5.505126 5.869329,-10.3042306 10.6,-13.88 0.7,0.58 1.33,1.17 2,1.66 0.67,0.49 1.44,0.85 2.13,1.25 -0.75,1.68 -1.59,3.32 -2.2,5 -0.83,2.35 -1.5,4.76 -2.21,7.15 -0.06,0.34 -0.2,0.44 -0.46,0.4 z M 8.93,14.83 c 2.728223,-3.472813 6.095354,-6.3918987 9.92,-8.6 1.62,-0.92 3.35,-1.64 5,-2.47 0.33,-0.16 0.55,-0.15 0.71,0 0.09111,0.1145307 0.155968,0.247663 0.19,0.39 C 19.61,7.94 16.14,13 13.6,18.86 L 7.65,17.08 7.32,17 C 7.93,16.16 8.41,15.48 8.93,14.83 Z M 4.47,22.08 C 5.08,20.77 5.84,19.52 6.52,18.24 6.5865114,18.041383 6.8011999,17.934039 7,18 v 0 c 1.87,0.61 3.76,1.18 5.65,1.76 l 0.42,0.13 c -0.23,0.69 -0.44,1.35 -0.67,2 -0.10734,0.04767 -0.222664,0.07481 -0.34,0.08 -0.251283,-0.0018 -0.494052,0.09097 -0.68,0.26 -0.171712,0.162052 -0.404943,0.242225 -0.64,0.22 C 10.301103,22.36597 9.8478923,22.48756 9.51,22.78 9.3762663,22.918592 9.192582,22.997829 9,23 8.8040443,22.991268 8.6106927,23.047516 8.45,23.16 7.96,23.4 7.62,23.95 7,23.9 6.740766,23.85108 6.4850204,24.000267 6.4,24.25 c -0.1087455,0.265145 0.022259,0.567812 0.29,0.67 0.2,0.08 0.3,0.33 0.2,0.46 -0.24,0.3 -0.14,0.52 0,0.77 0,0.07 0.09,0.16 0,0.21 -0.09,0.05 -0.16,0.36 -0.14,0.54 0.068119,0.829713 -0.3698625,1.61887 -1.11,2 -0.4377193,0.301709 -0.8228557,0.673332 -1.14,1.1 -0.2104495,0.190696 -0.2448318,0.508733 -0.08,0.74 0.2419364,0.338534 0.2170183,0.799518 -0.06,1.11 -0.102901,0.132963 -0.1839201,0.281498 -0.24,0.44 -0.29,0.82 -0.29,0.82 -1.18,0.79 -0.5439466,-0.05164 -0.9449313,0.497657 -0.73,1 0.084373,0.23877 0.2133243,0.459345 0.38,0.65 0.4479755,0.288121 0.4882792,0.927942 0.08,1.27 -0.2263016,0.252632 -0.3091253,0.602751 -0.22,0.93 H 1.52 c -0.26,0 -0.35,-0.16 -0.35,-0.5 0.06201,-4.96418 1.187283,-9.857411 3.3,-14.35 z M 6.88,55.61 C 6.6288784,55.697619 6.3537117,55.568912 6.26,55.32 3.9781513,51.535969 2.4279032,47.356745 1.69,43 1.46,41.69 1.38,40.35 1.27,39 1.22,38.34 1.22,38.12 1.54,38 1.7729249,37.98047 2.0070751,37.98047 2.24,38 H 3 c 0.3172754,0.829517 -0.2202401,1.738407 -1.1,1.86 -0.33,0.11 -0.15,0.29 0,0.41 0.292604,0.318814 0.6769545,0.538941 1.1,0.63 0.3158585,0.05019 0.5956554,0.231877 0.77,0.5 0.3530706,0.542738 0.8722561,0.956683 1.48,1.18 0.17,0.06 0.31,0.1 0.39,-0.07 0.25,-0.52 0.78,-0.85 0.91,-1.43 0.028684,-0.190567 0.1533394,-0.352996 0.33,-0.43 0.013083,0.05112 0.03695,0.09886 0.07,0.14 0.08,0.13 0.16,0.15 0.24,0.24 0.08,0.09 0.08,0.4 0.12,0.4 0.04,0 0.09,-0.34 0.1,-0.4 0.083975,-0.370873 0.1275616,-0.749746 0.13,-1.13 0,-0.26 -0.08,-0.39 0,-0.53 0.079201,-0.109516 0.197248,-0.184637 0.33,-0.21 0,0.8 -0.28,1.63 0.35,2.36 0.1450024,0.192406 0.1450024,0.457594 0,0.65 -0.2714241,0.540908 -0.4794691,1.111354 -0.62,1.7 -0.065748,0.722094 -0.4278022,1.384654 -1,1.83 -0.3355201,0.208399 -0.7252339,0.312786 -1.12,0.3 -0.1,0 -0.22,0 -0.26,0.09 -0.04,0.09 0.07,0.14 0.13,0.2 0.3621598,0.317621 0.5484238,0.790732 0.5,1.27 -0.028957,0.369892 0.022206,0.741679 0.15,1.09 0.098763,0.176584 -0.00202,0.3983 -0.2,0.44 -0.23,0.1 -0.33,0.52 -0.7,0.25 -0.1771927,-0.145812 -0.4328073,-0.145812 -0.61,0 -0.2249986,0.219434 -0.2816686,0.559454 -0.14,0.84 0.06,0.19 0.07,0.4 0.38,0.35 0.31,-0.05 0.3,0.1 0.16,0.3 L 4.63,51.2 c -0.1,0.17 -0.3,0.34 -0.09,0.53 0.1755636,0.174986 0.447714,0.207974 0.66,0.08 0.2487648,-0.150689 0.4633399,-0.35164 0.63,-0.59 0.27,-0.35 0.55,-0.31 0.86,-0.05 0.31,0.26 0.38,0.28 0.57,0.42 0.3479424,0.307025 0.8390595,0.3921 1.27,0.22 0.42,-0.18 0.67,0 0.84,0.41 0.1842333,0.397769 0.3153574,0.818039 0.39,1.25 0.025703,0.196549 0.1092393,0.381025 0.24,0.53 0.145487,0.194125 0.325078,0.360162 0.53,0.49 l -3.59,1.1 z m 18.44,15 c -0.179051,-0.01369 -0.356465,-0.04382 -0.53,-0.09 -2.451852,-0.883656 -4.799254,-2.033883 -7,-3.43 C 15.345548,65.574748 13.112763,63.742117 11.15,61.64 9.82,60.21 8.65,58.64 7.41,57.1 7.326904,56.972273 7.2533704,56.838575 7.19,56.7 l 0.33,-0.11 c 0.45,-0.16 0.88,-0.32 1.32,-0.45 1.36,-0.38 2.73,-0.71 4.09,-1.11 0.42,-0.12 0.55,0 0.7,0.37 1.36752,3.355929 3.220638,6.492753 5.5,9.31 1.646221,2.038667 3.564064,3.842113 5.7,5.36 l 0.22,0.16 0.3,0.23 z m 0.46,-1.34 c -2.240071,-1.562485 -4.238124,-3.445978 -5.93,-5.59 -2.052332,-2.591696 -3.73505,-5.455682 -5,-8.51 -0.06,-0.14 -0.11,-0.29 -0.2,-0.51 3.419172,-0.716569 6.874058,-1.250658 10.35,-1.6 0.75,2.39 1.44,4.75 2.23,7.08 0.806002,2.330145 1.848085,4.571796 3.11,6.69 -0.390469,0.164554 -0.771103,0.351532 -1.14,0.56 -0.9,0.6 -1.79,1.21 -2.64,1.87 -0.187081,0.260256 -0.567278,0.279754 -0.78,0.04 z m 10,3.37 c -3.170759,-0.09887 -6.313147,-0.63045 -9.34,-1.58 l 0.26,-0.3 c 2.48,-2.79 5.64,-3.63 9.08,-3.9 z m 0,-7 c -0.69,0.07 -1.38,0.14 -2.06,0.24 -0.628012,0.09289 -1.249322,0.226507 -1.86,0.4 -0.223523,0.103663 -0.488268,-0.0013 -0.58,-0.23 -1.265404,-2.163301 -2.310636,-4.44807 -3.12,-6.82 -0.65,-2 -1.18,-4 -1.77,-6 0,-0.12 0,-0.24 -0.06,-0.47 l 9.45,-0.51 z m 0,-14.52 c -1.1,0 -2.19,0 -3.28,0.1 -2,0.13 -4,0.29 -6,0.45 -0.33,0 -0.51,0 -0.56,-0.39 -0.36,-2.52 -0.77,-5 -1.05,-7.55 -0.08,-0.67 -0.12,-1.35 -0.15,-2 0.790766,-0.329293 1.510584,-0.808039 2.12,-1.41 L 28.25,39 c 0.31,-0.31 0.61,-0.62 0.9,-0.94 h 6.6 z m 0,-14.29 h -5.64 c 0.64952,-0.87834 1.053363,-1.913836 1.17,-3 0,-0.34 0.15,-0.56 0.57,-0.48 0.42,0.08 0.5,0 0.38,-0.46 -0.224286,-0.45661 -0.246063,-0.986526 -0.06,-1.46 0.126426,-0.264895 0.0087,-0.581864 -0.26,-0.7 -0.42005,-0.165451 -0.713057,-0.550988 -0.76,-1 -0.101663,-0.31282 -0.335696,-0.565137 -0.64,-0.69 -0.08,-0.05 -0.25,0 -0.21,-0.22 0.120414,-0.104728 0.299586,-0.104728 0.42,0 0.3,0.21 0.62,0.08 0.93,0.09 0.09,0 0.23,0 0.25,-0.11 0.02,-0.11 -0.1,-0.23 -0.22,-0.23 -0.374965,-0.05269 -0.724353,-0.220397 -1,-0.48 -0.102303,-0.06325 -0.219745,-0.09779 -0.34,-0.1 -0.637522,0.01254 -1.240091,-0.290617 -1.61,-0.81 -0.13,-0.15 -0.28,-0.29 -0.41,-0.44 -0.508125,-0.55081 -1.26261,-0.803563 -2,-0.67 -0.14,0 -0.19,0.07 -0.24,0.2 -0.18,0.46 -0.48,0.68 -0.86,0.62 0.19,-1.52 0.44,-3 0.74,-4.55 0.09,-0.42 0.26,-0.51 0.69,-0.46 1,0.13 2,0.19 3,0.24 2,0.11 4.08,0.19 6.12,0.27 z m 0,-15.63 c -3.12,0 -6.23,-0.26 -9.44,-0.52 0.19,-0.77 0.37,-1.47 0.56,-2.18 0.888032,-3.358667 2.145716,-6.60852 3.75,-9.69 0.18,-0.34 0.35,-0.41 0.7,-0.3 1.43744,0.4415064 2.927104,0.6903442 4.43,0.74 z m 0,-13.15 C 34.494052,7.9192086 33.215692,7.7222812 31.95,7.46 30.139514,7.0798732 28.460344,6.2316686 27.08,5 26.6,4.55 26.18,4 25.68,3.46 L 25.48,3.24 C 28.789308,2.0976041 32.251021,1.4571703 35.75,1.34 Z M 37.31,1.46 C 40.944556,1.5082439 44.550059,2.1153445 48,3.26 46.829766,4.8493702 45.292821,6.132445 43.52,7 42.375145,7.4972091 41.167038,7.8337291 39.93,8 39.054199,8.1418435 38.166746,8.1987744 37.28,8.17 Z m 0,70.79 v -5.33 c 0.886963,-0.02042 1.773946,0.03983 2.65,0.18 1.241717,0.171898 2.451356,0.525692 3.59,1.05 1.393274,0.666147 2.648515,1.588919 3.7,2.72 -3.235788,0.963776 -6.593734,1.455511 -9.97,1.46 z M 48.55,70.38 C 47.309774,68.943633 45.775054,67.790887 44.05,67 42.802938,66.427476 41.47898,66.040058 40.12,65.85 39.180959,65.701514 38.230451,65.637923 37.28,65.66 V 9.43 h 0.38 C 38.483995,9.42841 39.306569,9.361531 40.12,9.23 41.460066,9.0323347 42.765992,8.6486346 44,8.09 46.096214,7.0940974 47.90078,5.5753695 49.24,3.68 63.410975,8.771694 72.799205,22.283519 72.627846,37.340494 72.456488,52.397468 62.763183,65.692133 48.48,70.46 Z"
         id="path13198"
         sodipodi:nodetypes="cccccccccccccccscccccccccccccccccsccccscccccccccccsccsccccccccccccccccscccccccccccccccssccccccccccccccscccccccccccsccccccccccccccccccsscccccccccscccccccscccccsccccccccccccccccccccccccccccccccccccccccccccccccccccccccccccccsccccccccscccccccccccccccccccccccccccccccccccccccccccccccccscc" /></g></g></svg>
