<?xml version="1.0" encoding="UTF-8"?><svg id="a" xmlns="http://www.w3.org/2000/svg" viewBox="0 0 3217.56 639.86"><defs><style>.b{fill:#fff;stroke-width:0px;}</style></defs><path class="b" d="m3217.34,320.29c-2.67-54.42-23.98-100.19-64.59-135.66-52.45-45.81-113.7-59.65-180.88-40.74-55.88,15.73-95.95,51.35-121.14,103.61-.94,1.96-1.47,5.77-.4,6.75,4.93,4.52,10.51,8.33,15.35,12.02,8.86-14.62,15.8-28.71,25.11-40.99,45.73-60.33,126.08-82.09,197.28-54.18,87.68,34.37,129.96,137.14,93.18,223.64-28.3,66.57-102.92,113.1-179.28,101.36-49.6-7.62-89.24-31.05-116.62-72.88-10.5-16.04-17.36-34.66-24.52-52.65-20.22-50.8-68.88-86.03-125.95-85.76-9.71.05-19.42,0-29.13,0l-1.8-2.61c32.8-48.83,65.59-97.66,98.73-147.01-2.81-.92-3.59-1.41-4.38-1.41-49.61-.06-99.23-.11-148.84-.03v22.85c31.46.23,62.93.08,94.4.12,4.58,0,9.15.45,15.99.81-33.92,50.55-66.68,99.36-99.44,148.18.66.73,1.32,1.45,1.98,2.18,2.73,0,5.46,0,8.19,0,22.86.03,45.75-.56,68.58.24,34.19,1.21,62.06,15.68,83.57,42.4,10.52,13.06,15.71,28.47,21.3,44.01,12.66,35.2,34.46,64.22,64.52,86.47,58.13,43.02,121.6,51.63,188.85,25.57,74.1-28.71,123.94-104.68,119.94-186.31Z"/><path class="b" d="m3133.99,208.56c-48.78-43.8-105.76-53.69-167.3-31.09-44.18,16.23-74.47,47.62-92,91.23-.77,1.91-.73,5.18.43,6.62,3.78,4.68,8.24,8.81,13.28,14.02,1.6-2.72,3-4.37,3.63-6.27,23.48-70.84,101.58-111.46,173.99-89.36,69.02,21.06,109.56,92.03,98.11,156.24-10.96,61.45-55.41,108.14-117.53,117.56-69.34,10.52-132.35-28.39-154.11-92.71-18.58-54.94-53.42-92.88-108.88-111.06-8.56-2.81-17.4-4.79-27.61-7.56,33.87-50.39,67.06-99.75,101.56-151.08-6.11-.28-9.07-.54-12.03-.54-49.35-.03-98.7-.04-148.05-.04-16.01,0-32.02-.15-48.03.13v21.86c51.86.04,103.71.06,155.57.14,3.15,0,6.29.57,11.4,1.06-33.84,50.35-66.62,99.13-99.4,147.91l2.07,2.2c3.59,0,7.22-.38,10.75.07,15.93,2.01,32.39,2.31,47.63,6.76,45.43,13.28,75.64,43.9,91.16,88.13,9.87,28.13,23.07,53.77,45.37,73.79,48.92,43.93,105.49,55.99,166.96,33.78,56.49-20.41,91.71-61.93,103.11-121.38,11.32-59.04-5.52-110.38-50.1-150.41Z"/><path class="b" d="m3156.2,301.04c-11.7-57.41-62.87-102.18-121.44-106.24-58.59-4.07-114.57,32.07-134.92,87.29-1.89,5.14-5.2,11.72-3.49,15.82,3.91,9.41,10.51,17.69,17.23,28.35,1.05-4.2,1.66-5.69,1.77-7.23,3.53-51.51,44.82-94.94,98.47-100.73,80.82-8.72,143.48,71.91,115.43,148.06-16.46,44.71-58.93,73.24-107.77,72.41-45.22-.77-87.31-31.99-101.62-76.28-17.87-55.33-53.35-94.85-105.58-119.74-9.75-4.65-9.79-4.58-3.86-13.38,32.67-48.49,65.36-96.98,98-145.5,1.59-2.37,2.75-5.03,4.87-8.95-4.61-.28-7.56-.62-10.5-.62-84.44-.03-168.89-.04-253.33-.04v23.17c69.89.02,139.78,0,209.67.06,3.14,0,6.28.49,10.83.87-2.31,4.05-3.63,6.74-5.29,9.21-29.35,43.67-58.72,87.33-88.14,130.95-8.39,12.44-8.48,12.38,6.02,17.02,57.94,18.56,96.09,56.95,115.87,114.36,18.51,53.71,56.97,84.81,112.76,91.21,90.08,10.34,163.1-71.31,145.02-160.07Z"/><path class="b" d="m2898.14,482.25c-7.31-2.98-7.28,4.43-8.92,8.01-47.38,103.61-186.33,130.75-268.72,52.27-32.58-31.04-51.48-68.62-53.48-114.09-.03-.71-.07-1.36-.12-1.98h-23.36c.1.89.21,1.79.26,2.64,2.91,54.29,25.46,99.19,66.1,134.82,36.73,32.2,80.16,47.05,128.84,47.21,8.89-.78,17.79-1.41,26.65-2.41,3.85-.43,7.62-1.58,11.41-2.45,60.95-13.93,104.68-49.57,132.55-105.16,3.53-7.03-.69-14.57-11.22-18.86Z"/><path class="b" d="m2884.63,470.44c-2.44-4.73-7.12-8.3-11.83-13.46-2,3.23-3.09,4.47-3.61,5.92-16.48,45.74-47.31,77.01-94.3,90.35-53.63,15.23-100.81,2.04-140.21-36.97-24.77-24.52-37.3-55.24-39.7-89.82h-21.12c.02.13.03.25.05.38,2.1,12.85,2.99,26.11,6.86,38.42,19.43,61.7,61.98,99.98,124.61,112.54,50.86,10.2,97.75-2.82,137.56-37.52,18.36-16,32.18-35.36,41.77-57.63,1.51-3.51,1.61-8.94-.08-12.22Z"/><path class="b" d="m2864.68,447.61c-5.11-8.48-10.69-16.67-17.21-26.64-1.96,9.95-3.17,17.56-4.97,25.03-10.61,43.95-48.62,77.95-95.33,82.45-62.04,5.98-114.9-37.37-121.52-99.16-.11-1.03-.25-1.96-.42-2.83h-23.18c1.08,7.6,1.62,15.34,3.45,22.77,17.31,70.51,86.75,115.06,156.25,100.03,52.92-11.44,86.59-43.98,102.76-95.2.64-2.01,1.11-4.89.16-6.46Z"/><path class="b" d="m2981.96,344h-16.86l-3.32,9.44h-6.07l14.61-39.35h6.41l14.61,39.35h-6.07l-3.32-9.44Zm-1.85-5.17l-6.58-18.72-6.63,18.72h13.21Z"/><path class="b" d="m3027.33,314.1v39.35h-4.89l-20.4-29.01v29.01h-5.62v-39.35h4.89l20.4,29v-29h5.62Zm-6.91-9.78c-.45,3.37-2.02,5.11-4.78,5.11s-4.72-1.86-6.86-1.86c-1.41,0-1.91,1.29-2.02,2.3l-3.37-.62c.56-3.48,2.19-5.12,4.83-5.12s4.61,1.86,6.8,1.86c1.63,0,1.91-1.35,2.02-2.3l3.37.62Z"/><path class="b" d="m3073.76,333.77c0,11.52-8.32,20.4-19.95,20.4s-20.01-8.88-20.01-20.4,8.32-20.35,20.01-20.35,19.95,8.82,19.95,20.35Zm-5.68,0c0-7.64-5.12-15.12-14.28-15.12s-14.28,7.48-14.28,15.12,5.12,15.12,14.28,15.12,14.28-7.48,14.28-15.12Z"/><path class="b" d="m3104.9,342.54c0,5.51-3.77,11.64-13.88,11.64-6.01,0-12.25-2.7-14.16-8.88l5.56-1.74c.56,2.59,3.49,5.34,8.71,5.34,4.27,0,8.04-1.86,8.04-5.9,0-5.34-4.78-5.56-11.02-7.08-7.93-1.91-9.72-6.07-9.72-11.19,0-6.63,5.68-11.3,12.98-11.3,5.62,0,10.29,3.04,11.92,8.49l-5.51,1.35c-.79-2.36-2.81-4.61-6.97-4.61-3.77,0-6.8,2.3-6.8,6.07,0,5,4.78,5.79,9.78,6.91,7.64,1.8,11.07,4.55,11.07,10.91Z"/><rect class="b" x="2439.35" y="74.26" width="10.6" height="537.68"/><polygon class="b" points="1902.37 598.16 1928.23 598.16 1928.23 587.77 1902.37 587.77 1902.37 575.88 1929.47 575.88 1929.47 565.49 1888.24 565.49 1888.24 622.18 1930.06 622.18 1930.06 611.79 1902.37 611.79 1902.37 598.16"/><path class="b" d="m1953,593.76c0-10.06,8.48-17.21,20.53-17.21,6.98,0,13.3,2.33,19.53,5.82v-12.63c-5.57-3.33-12.64-4.99-20.53-4.99-21.7,0-34.08,14.13-34.08,29.26s10.97,28.93,33,28.93c8.4,0,14.38-1.58,22.28-5.65v-12.39c-8.15,3.91-13.13,6.24-20.53,6.24-11.8,0-20.2-7.23-20.2-17.37Z"/><path class="b" d="m2047.01,597.08c0,10.14-6.9,14.05-14.38,14.05-8.15,0-14.05-4.9-14.05-13.05v-32.59h-14.13v32.25c0,17.54,11.89,25.19,28.35,25.19,15.54,0,28.35-6.48,28.35-25.27v-32.17h-14.13v31.59Z"/><path class="b" d="m2086.41,565.49l-22.86,56.69h14.96l4.24-11.22h25.35l4.66,11.22h15.21l-25.19-56.69h-16.38Zm.08,35.58l8.31-22.03,9.14,22.03h-17.46Z"/><path class="b" d="m2159.47,565.49h-25.02v56.69h23.44c22.61,0,32.92-11.97,32.92-28.26s-10.64-28.43-31.34-28.43Zm-1.66,46.3h-9.23v-35.91h9.06c13.38,0,18.62,8.23,18.62,17.95,0,8.31-4.24,17.96-18.45,17.96Z"/><path class="b" d="m2231.29,564.74c-21.36,0-32.5,15.38-32.5,29.09,0,14.46,11.72,29.1,32.5,29.1s32.42-14.55,32.42-29.1c0-13.63-11.06-29.09-32.42-29.09Zm0,46.39c-10.81,0-17.96-6.9-17.96-17.29s7.15-17.29,17.96-17.29,17.87,6.9,17.87,17.29-7.15,17.29-17.87,17.29Z"/><path class="b" d="m2308.09,595.67c6.48-2.99,9.73-7.65,9.73-13.88,0-8.48-6.9-16.29-18.54-16.29h-25.35v56.69h14.13v-23.03h4.07c7.65,0,9.89,10.89,15.96,23.03h15.54c-7.98-16.63-9.73-23.61-15.54-26.52Zm-12.55-6.9h-7.48v-12.88h7.15c5.32,0,8.06,2.16,8.06,6.4,0,4.82-3.82,6.48-7.73,6.48Z"/><path class="b" d="m746.11,480.48c-20.98,0-37.76-8.47-65.18-32.42v54.16c19.02,12.9,35.53,24.32,68.81,24.32,42.52,0,73.29-28,73.29-76.26,0-87.68-97.07-77-97.07-114.95,0-12.53,10.91-20.63,27.97-20.63s32.73,6.26,60.42,22.47v-49c-24.06-13.63-43.36-19.53-64.62-19.53-44.2,0-72.73,28.74-72.73,72.21,0,90.26,97.07,75.16,97.07,116.42,0,14.74-9.79,23.21-27.97,23.21Z"/><path class="b" d="m834.79,523.21h50.35l14.27-49.74h85.32l15.67,49.74h51.19l-84.76-251.26h-55.11l-76.93,251.26Zm105.18-191.21l30.77,97.63h-58.74l27.97-97.63Z"/><polygon class="b" points="1073.68 271.95 1073.68 523.21 1219.15 523.21 1219.15 477.16 1121.24 477.16 1121.24 271.95 1073.68 271.95"/><polygon class="b" points="1385.03 318 1385.03 271.95 1246.28 271.95 1246.28 523.21 1386.99 523.21 1386.99 477.16 1293.84 477.16 1293.84 416.74 1380.83 416.74 1380.83 370.69 1293.84 370.69 1293.84 318 1385.03 318"/><path class="b" d="m1483.22,480.48c-20.98,0-37.76-8.47-65.18-32.42v54.16c19.02,12.9,35.53,24.32,68.81,24.32,42.52,0,73.29-28,73.29-76.26,0-87.68-97.07-77-97.07-114.95,0-12.53,10.91-20.63,27.97-20.63s32.73,6.26,60.42,22.47v-49c-24.06-13.63-43.36-19.53-64.62-19.53-44.2,0-72.73,28.74-72.73,72.21,0,90.26,97.07,75.16,97.07,116.42,0,14.74-9.79,23.21-27.97,23.21Z"/><rect class="b" x="1593.99" y="271.95" width="47.55" height="251.26"/><path class="b" d="m1665.05,523.21h50.35l14.27-49.74h85.32l15.67,49.74h51.19l-84.76-251.26h-55.11l-76.93,251.26Zm105.18-191.21l30.77,97.63h-58.74l27.97-97.63Z"/><polygon class="b" points="1951.78 362.21 2057.24 523.21 2097.24 523.21 2097.24 271.95 2049.68 271.95 2049.68 425.58 1947.86 271.95 1904.22 271.95 1904.22 523.21 1951.78 523.21 1951.78 362.21"/><path class="b" d="m2196.55,271.95l-76.93,251.26h50.35l14.27-49.74h85.32l15.67,49.74h51.19l-84.76-251.26h-55.11Zm.28,157.68l27.97-97.63,30.77,97.63h-58.74Z"/><path class="b" d="m676.41,117.83v43.74c0,23.79,15.46,34.16,36.87,34.16,20.22,0,36.87-8.79,36.87-34.27v-43.63h-18.38v42.84c0,13.75-8.97,19.05-18.7,19.05-10.59,0-18.27-6.65-18.27-17.7v-44.19h-18.38Z"/><polygon class="b" points="783.01 117.83 766.14 117.83 766.14 194.71 784.52 194.71 784.52 145.44 825.28 194.71 840.74 194.71 840.74 117.83 822.36 117.83 822.36 164.83 783.01 117.83"/><rect class="b" x="857.92" y="117.83" width="18.38" height="76.88"/><polygon class="b" points="905.06 117.83 885.06 117.83 920.73 195.72 928.73 195.72 962.79 117.83 943 117.83 924.52 161.68 905.06 117.83"/><polygon class="b" points="1024.84 131.92 1024.84 117.83 971.22 117.83 971.22 194.71 1025.6 194.71 1025.6 180.62 989.6 180.62 989.6 162.13 1023.22 162.13 1023.22 148.04 989.6 148.04 989.6 131.92 1024.84 131.92"/><path class="b" d="m1096.73,139.92c0-11.5-8.97-22.1-24.11-22.1h-32.97v76.88h18.38v-31.23h5.3c9.95,0,12.87,14.77,20.76,31.23h20.22c-10.38-22.55-12.65-32.01-20.22-35.96,8.43-4.06,12.65-10.37,12.65-18.83Zm-28.97,9.47h-9.73v-17.47h9.3c6.92,0,10.49,2.93,10.49,8.68,0,6.54-4.97,8.79-10.05,8.79Z"/><path class="b" d="m1135.97,181.63c-8.11,0-14.6-2.59-25.19-9.92v16.57c7.35,3.95,13.73,7.44,26.6,7.44,16.43,0,28.33-8.57,28.33-23.33,0-26.83-37.51-23.56-37.51-35.17,0-3.83,4.22-6.31,10.81-6.31s12.65,1.92,23.35,6.88v-14.99c-9.3-4.17-16.76-5.97-24.97-5.97-17.08,0-28.11,8.79-28.11,22.09,0,27.62,37.51,23,37.51,35.62,0,4.51-3.78,7.1-10.81,7.1Z"/><rect class="b" x="1178.78" y="117.83" width="18.38" height="76.88"/><path class="b" d="m1246.56,117.83h-32.54v76.88h30.49c29.41,0,42.81-16.23,42.81-38.33s-13.84-38.55-40.76-38.55Zm-2.16,62.79h-12v-48.7h11.78c17.41,0,24.22,11.16,24.22,24.35,0,11.27-5.51,24.35-24,24.35Z"/><path class="b" d="m1311.96,179.49h32.97l6.05,15.22h19.78l-32.76-76.88h-21.3l-29.73,76.88h19.46l5.51-15.22Zm15.68-43.29l11.89,29.87h-22.7l10.81-29.87Z"/><path class="b" d="m1379.2,117.83v76.88h30.49c29.41,0,42.81-16.23,42.81-38.33s-13.84-38.55-40.76-38.55h-32.54Zm54.38,38.44c0,11.27-5.51,24.35-24,24.35h-12v-48.7h11.78c17.41,0,24.22,11.16,24.22,24.35Z"/><path class="b" d="m1496.82,117.83v76.88h18.38v-30.89h14.59c16.97,0,24.33-12.4,24.33-23.22s-7.57-22.77-24.43-22.77h-32.87Zm38.38,23c0,5.75-3.03,8.9-11.46,8.9h-8.54v-17.81h6.49c9.95,0,13.51,2.37,13.51,8.91Z"/><path class="b" d="m1563.85,156.27c0,19.61,15.24,39.45,42.27,39.45s42.16-19.73,42.16-39.45c0-18.49-14.38-39.46-42.16-39.46s-42.27,20.85-42.27,39.46Zm65.52,0c0,14.09-9.3,23.45-23.24,23.45s-23.35-9.36-23.35-23.45,9.3-23.45,23.35-23.45,23.24,9.36,23.24,23.45Z"/><polygon class="b" points="1661.58 117.83 1661.58 194.71 1717.79 194.71 1717.79 180.62 1679.95 180.62 1679.95 117.83 1661.58 117.83"/><rect class="b" x="1728.71" y="117.83" width="18.38" height="76.88"/><polygon class="b" points="1803.95 194.71 1803.95 131.92 1830.66 131.92 1830.66 117.83 1758.87 117.83 1758.87 131.92 1785.57 131.92 1785.57 194.71 1803.95 194.71"/><polygon class="b" points="1842 194.71 1896.38 194.71 1896.38 180.62 1860.38 180.62 1860.38 162.13 1894 162.13 1894 148.04 1860.38 148.04 1860.38 131.92 1895.63 131.92 1895.63 117.83 1842 117.83 1842 194.71"/><polygon class="b" points="1867.3 93.93 1859.3 110.39 1867.3 110.39 1885.14 93.93 1867.3 93.93"/><path class="b" d="m1952.92,132.82c9.08,0,17.3,3.16,25.41,7.89v-17.13c-7.24-4.51-16.43-6.76-26.7-6.76-28.22,0-44.33,19.16-44.33,39.68s14.27,39.23,42.92,39.23c10.92,0,18.7-2.14,28.97-7.67v-16.8c-10.59,5.3-17.08,8.46-26.7,8.46-15.35,0-26.27-9.81-26.27-23.56s11.03-23.34,26.7-23.34Z"/><polygon class="b" points="2010.76 117.83 1993.89 117.83 1993.89 194.71 2012.27 194.71 2012.27 145.44 2053.03 194.71 2068.49 194.71 2068.49 117.83 2050.11 117.83 2050.11 164.83 2010.76 117.83"/><rect class="b" x="2085.67" y="117.83" width="18.38" height="76.88"/><path class="b" d="m2163.51,132.82c9.08,0,17.3,3.16,25.41,7.89v-17.13c-7.24-4.51-16.43-6.76-26.7-6.76-28.22,0-44.33,19.16-44.33,39.68s14.27,39.23,42.92,39.23c10.92,0,18.7-2.14,28.97-7.67v-16.8c-10.59,5.3-17.08,8.46-26.7,8.46-15.35,0-26.27-9.81-26.27-23.56s11.03-23.34,26.7-23.34Z"/><path class="b" d="m2196.48,194.71h19.46l5.51-15.22h32.97l6.05,15.22h19.78l-32.76-76.88h-21.3l-29.73,76.88Zm40.65-58.51l11.89,29.87h-22.7l10.81-29.87Z"/><path class="b" d="m534.63,186.62c.11-2.53-.71-5.64-2.25-7.6-5.85-7.47-12.87-8.06-18.67-.61-4.43,5.69-9.43,7.76-16.09,7.67-2.85-.04-4.61,1.19-5.82,4.15-5.03,12.36-13.26,15.92-25.98,11.56-9.75-3.34-17.88-9.32-25.4-16.14-3.02-2.74-5.49-3.57-9.41-1.34-7.33,4.18-14.83,8.2-22.66,11.28-5.94,2.33-12.43,3.82-18.79,4.38-8.03.71-11.29-3.83-8.01-11.18,3.45-7.73-2.37-12.11-4.33-18.82-2.32,2.46-4.04,3.9-5.29,5.68-5.65,8.03-11.1,16.19-16.75,24.22-3.74,5.33-4.96,11.24-5.05,17.62-.06,4.41-.56,8.83-1.08,13.22-2.7,22.81-5.26,45.62-4.7,68.65.19,7.89.88,15.87,0,23.65-.91,8.1.13,15.66,2.36,23.3,2.25,7.69,6.91,14.92,4.74,23.52-.09.36.16.8.24,1.21.96,4.65,3.63,6.37,8.1,4.88,1.79-.6,3.45-1.71,5.01-2.82,5.85-4.19,11.72-8.37,17.41-12.77,2.45-1.89,4.98-1.87,6.69.05,1.31,1.47,2.23,4.37,1.7,6.14-.83,2.79-2.99,5.2-4.67,7.71-2.07,3.09-4.47,5.99-6.27,9.23-2.11,3.8-2.81,8,.12,11.74,2.98,3.81,7.17,5.55,12.02,5.4,3.63-.11,6.09-2.11,6.76-5.62.58-3.09.56-6.29.82-9.52,12.38,13.03,27.26,9.59,40.81,6.6-3.22,5.12-7.2,10.56-10.21,16.5-3.04,5.99-2.15,7.89,4.56,8.38,11.01.8,22.09.55,33.15.66.73,0,1.76-.41,2.16-.98,3.83-5.33,9.61-6.73,15.52-7.8,2.89-.52,4.8-2.18,4.7-4.91-.1-2.91-.37-6.37-1.98-8.56-3.06-4.16-6.75-8.08-10.87-11.19-6.08-4.59-10.42-10.03-12.75-18.38,7.47,9.26,15.98,15.95,25.71,20.13,9.05,3.89,12.1,9.56,10.47,18.69-.4,2.25-.4,4.59-.94,6.8-.58,2.37-2.3,4.64-2.27,6.94.13,9.08.14,18.24,1.32,27.22,1.67,12.7,7.01,16.27,20.11,14.31-6.84,6.27-12.87,12.59-19.73,17.82-5.4,4.12-6.52,8.99-6.06,15.11.19,2.54,1.05,3.34,3.49,3.32,12.03-.09,23.85-1.54,34.74-6.86,13.88-6.78,22.3-17.35,21.8-33.7-.27-8.86,0-17.73-.07-26.59-.02-2.35.49-3.94,2.66-5.5,2.24-1.6,4.49-4.08,5.3-6.62,1.57-4.94,2.38-10.17,3.03-15.34.45-3.56.09-7.21.09-11.48,1.79,1.47,2.8,2.41,3.92,3.2,1.24.88,2.51,1.74,3.87,2.41,4.68,2.31,7.67.83,9.92-3.89,2.77-5.82,6.09-11.39,9.18-17.06,2.57-4.7,5.68-9.19,7.61-14.13,4.2-10.73,7.21-21.81,6.8-33.53-.34-9.83-3.6-14.6-11.34-16.48-5.39-1.31-8.45.85-8.3,6.46.1,3.55,1.19,7.06,1.74,10.61,1.57,10.24-1.19,19.29-7.36,27.61-3.57-2.57-4.16-4.76-1.34-8.31,6.27-7.89,5.86-14.79-.85-21.89-1.65-1.74-1.95-3.17-.63-5.06,4.36-6.22,8.4-12.7,13.15-18.61,5.1-6.34,12.38-6.86,18.77-1.83,2.45,1.93,4.49,4.37,7.32,7.17.52-4.7,1.03-8.77,1.36-12.85.05-.66-.54-1.63-1.13-2.04-7.5-5.23-15.41-8.84-24.84-5.75-8.02,2.63-13.19,8.55-17,15.61-3.08,5.7-5.3,11.86-8.2,17.66-1.06,2.12-3,3.8-4.54,5.68-.47-.22-.93-.43-1.4-.65-.29-3.1-.86-6.2-.83-9.29.09-8.56-1.37-16.42-8.28-22.4-1.54-1.34-2.56-3.27-3.97-4.78-5.59-5.96-10.37-12.23-8.98-21.14.06-.38-.18-.81-.23-1.22-.66-5.84-.25-11.03,3.41-16.41,8.74-12.87,11.1-27.43,9.07-42.86-.88-6.67-2.3-11.94-10.57-12.27-4.11-.16-6.05-2.86-5.85-7.4Zm-122.8,127.45c-2.47,3.9-2.66,9.23-3.92,13.89-1.04,3.85-2.7,4.45-5.07,1.18-2.96-4.09-5.4-8.64-7.48-13.25-1.18-2.62-2.28-3.93-5.35-3.84-9.92.3-19.91-.69-29.68,2.19-.96.28-2.11-.05-3.27-.43-.7-.23-1.4-.48-2.07-.62h0c.14-.4.27-.81.4-1.22.38-1.23.74-2.48,1.38-3.56.83-1.4,2.27-2.42,3.25-3.75,2.63-3.58,1.07-7.57-3.23-8.09-7.76-.94-6.04-1.29-6.61-7.61-1.22-13.31,2.32-26.08,3.88-39.07.62-5.17,1.12-10.36,1.67-15.55.27-.05.54-.1.82-.15.32.74.61,1.5.98,2.21,2.8,5.34,5.44,10.77,8.5,15.95,2.11,3.58,1.85,5.79-2.03,6.37-4.05.6-4.22,2.75-3.49,5.8.64,2.69,1.27,5.38,2,8.04,1.87,6.76,6.03,10.3,13.34,10.84,9.36.69,18.69,2.05,27.97,3.5,2.05.32,4.42,1.81,5.67,3.48,5.48,7.31,7.97,14.79,2.34,23.68Zm97.42,9.31c-3.63.65-5.4-.91-6.86-3.33-3.39-5.61-8.17-6.87-13.67-3.54-5.12,3.1-10.52,2.73-16.08,1.83-4.48-.72-9.03-1.91-13.49-1.66-7.76.42-13.87-2.34-18.7-8-4.1-4.8-7.74-9.99-11.58-15.01l.85-.79c14.76,4.45,29.85,2.96,44.87,2.42,6.62-.24,13.21-1.17,19.83-1.69.85-.07,2,.19,2.57.75,6.68,6.53,13.28,13.15,20.12,19.96-4.34,1.21-10.65,1.25-7.86,9.07Z"/><path class="b" d="m493.87,452.67c-.52-4.49-1.25-9.13-2.95-13.28-3.43-8.35-8.02-16.1-18.27-17.24-12.49-1.39-25-2.82-37.55-3.46-7.25-.37-14.62.38-21.83,1.39-4.22.59-5.08,5.85-1.61,8.49,1.7,1.29,3.9,2.17,6,2.63,3.9.84,7.89,1.23,11.14,1.71-1.6,2.91-3.09,5.85-4.81,8.64-.5.81-1.57,1.5-2.52,1.75-1.72.47-3.54.59-5.32.83-7.32.96-11.19-1.8-13.82-8.68-1.74-4.56-4.1-9.01-6.98-12.93-.99-1.36-5.28-2.12-6.48-1.16-3.34,2.68-6.56,6.06-8.39,9.85-.82,1.71,1.56,5.17,2.85,7.64,1.14,2.19,2.43,4.56,4.29,6.06,4.01,3.24,4.87,7.51,5.01,12.15.12,3.89,1.78,6.92,4.77,9.25,2.18,1.7,4.34,3.48,6.75,4.79,16.05,8.69,33.46,12.65,51.49,12.34,16.63-.28,29.18-8.57,36.74-23.64,1.06-2.12,1.73-4.82,1.46-7.13Z"/><path class="b" d="m2334.16,221c-1.11,0-2.22,0-3.32,0-564.81,0-1129.62,0-1694.43,0-1.66,0-3.34-.16-4.98.03-1.87.21-3.08-.23-3.99-1.26-.55-.62-.99-1.46-1.4-2.5-4.9-12.46-9.5-25.08-15.26-37.15-16.37-34.3-38.56-64.49-66.02-90.78-1.11-1.07-2.1-2.28-3.63-4.04-.27-.31-.55-.63-.86-.98h1799.48v-9.62h-7.45c-599.17,0-1198.33,0-1797.5.08-2.78,0-5.14-.47-7.36-1.53-1.2-.57-2.36-1.31-3.52-2.26-27.21-22.27-57.48-39.21-90.4-51.45C401.56,7.67,368.45,1.53,334.48.14c-5.93-.24-11.88-.13-17.83.07-4.83.16-9.67.38-14.5.52-19.94.59-39.56,3.77-58.82,8.68-59.69,15.21-111.13,44.76-153.99,89.18-25.82,26.75-46.23,57.08-61.53,90.92C9.35,230.35.41,273.29,0,317.97c-.12,12.66,1.14,25.35,2.25,37.98,1.96,22.36,7.04,44.12,14.26,65.32,16.98,49.85,44.4,93.07,82.61,129.45,25.78,24.55,54.75,44.29,87.04,59.27,36.64,17,75.14,26.42,115.22,29.09,5.07.31,10.16.5,15.26.57v.11c16.75.38,33.5-.49,50.13-2.85,28.41-4.03,55.92-11.45,82.24-22.95,4.15-1.81,8.25-2.66,12.78-2.66,383.33.06,766.66.06,1149.98.06,80.35,0,160.7,0,241.05-.01,1.88,0,3.75-.17,5.73-.26v-9.62H477.54l-.35-.96c56.81-32.28,100.55-76.35,129.75-133.11,4.15-8.06,8-16.37,11.56-24.94,28.55-68.8,31.56-139.42,12.06-211.81h7.54c564.81,0,1129.62,0,1694.43,0,1.8,0,3.63.17,5.39-.12.81-.13,1.92-1.07,2.11-1.83,1.48-6.05.16-7.7-5.86-7.71ZM110.34,465.98c.03-.25.06-.5.09-.76.11-1.44.27-2.63.49-3.65.96,2.8,1.03,3.68-.58,4.41Zm99.54-244.74c-.48,3.66-.96,7.31-1.43,10.97-2.66.89-5.19.08-7.72-1.64-3.44-2.32-6.84-3.58-11.44-2.81-6.87,1.14-11.27-3.75-10.75-10.67.18-2.46-.59-3.8-3.32-4.05-3.15-.28-6.2-1.87-6.6-5.03-.41-3.3-1.89-3.21-4.08-2.55-2.33.7-5.18,1.45-6.8-.05-4.61-4.25-10.81-5.69-16.04-8.36-5.45-2.78-9.04-7.89-15.07-9.79-1.85-.58-3.88-1.53-5.68-2.92.68-2.07,1.34-4.15,1.98-6.24.98-3.22,2.27-4.05,5.9-3.42,23.74,4.13,47.55,7.9,71.35,11.7,3.67.59,7.41.9,11.12,1,3.25.09,4.37,1.21,3.73,4.54-1.86,9.74-3.86,19.48-5.16,29.3Zm-87.24,229.86c-1.61-6.78.22-12.55,3.86-18.12.58-.89.58-2.29.54-3.44-.16-4.5,1.87-7.94,5.2-10.65,1.87-1.53,2.61-3.37,2.89-5.66.43-3.48,1.03-6.95,1.66-10.41.22-1.2.98-2.35,2.37-2.12,1.4.23,1.7,1.36,1.39,2.72-.15.66-.03,1.39-.03,2.38,3.24-.93,5.45-2.19,3.3-5.54-1.3-2.02-.52-3.07.89-4.42,4.57-4.37,9.03-8.83,13.54-13.25.73-.71,1.43-1.36,2.53-1.64,14.84-3.79,28.8-9.99,43.04-15.44,1.13,15.06,2.86,30.08,4.76,45.07,1.48,11.75,3.77,23.4,5.97,35.05.55,2.93-.28,3.67-2.93,3.95-28.26,2.91-56.31,7.19-84.1,13.16-1.45.31-2.95.35-4.48.52-1.06-2.91-2.1-5.82-3.11-8.74,1.66-.69,3.1-1.76,2.7-3.43Zm91.86-273.33c-15.3-2.07-30.64-3.87-45.9-6.17-11.71-1.77-23.34-4.12-35-6.25-1.46-.27-2.88-.74-4.99-1.3,20.98-48.37,49.97-89.53,92.28-120.3,6.02,4.98,11.48,10.12,17.56,14.36,5.96,4.15,12.55,7.4,18.47,10.82-6.45,14.6-13.76,28.8-19.05,43.72-7.24,20.38-13.02,41.29-19.2,62.04-.77,2.57-1.65,3.43-4.17,3.09Zm-137.1-50.07c24.05-30.17,52.53-55.38,86.04-74.51,13.99-7.99,29-14.17,43.44-21.39,2.86-1.43,4.77-1.29,6.14.35.65.78,1.19,1.89,1.65,3.34-44.71,32.5-74.75,76.06-96.74,127.16-16.91-5.05-33.74-10.06-51.58-15.39-.98-.29-1.94-.58-2.93-.87,5.27-7.08,9.45-13.02,13.97-18.68Zm-38.69,62.87c5.34-11.35,11.88-22.15,17.81-33.22,1.09-2.03,2.16-2.61,4.47-1.97.15.04.28.07.44.12,16.27,5.25,32.64,10.2,48.97,15.24,1.15.36,2.31.71,3.69,1.14-1.99,5.94-3.84,11.65-5.8,17.31-.92.41-1.95.63-2.98.69-2.45.15-4.34.77-5.9,2.25-1.65,1.58-3.43,2.04-5.59,1.92-3.85-.23-7.54-.21-10.62,2.9-1.3,1.31-3.51,1.48-5.46,1.17-1.88-.29-3.19.65-4.79,1.43-4.22,2.06-7.15,6.79-12.54,6.37-2.61-.2-4.64.99-5.24,3.06-.6,2.09-.3,4.64,2.53,5.77,1.77.71,2.62,2.89,1.76,3.96-2.08,2.59-1.25,4.52.32,6.7.41.57.78,1.4-.15,1.84-2.27,1.07-1.43,3.13-1.27,4.65.9,8.2-3.33,14.09-9.63,17.8-4.36,2.57-6.7,6.36-9.77,9.77-1.73,1.92-2.11,4.12-.66,6.41,2.12,3.36,1.8,6.5-.58,9.63-.87,1.15-1.54,2.5-2.03,3.86-2.52,7.05-2.49,7.06-10.24,6.82-5.27-.17-8.33,4.03-6.37,8.99.8,2.01,1.86,4.09,3.34,5.63,3.2,3.34,3.56,6.57.69,10.2-2.1,2.64-2.73,5.31-1.93,8-2.2.02-4.4.04-6.6.06-.54,0-1.03-.01-1.46-.06-2.22-.25-3.04-1.32-2.99-4.35.82-43.39,10.06-84.85,28.54-124.12Zm20.91,290.66c-2.58.66-3.9-.04-5.34-2.45-19.87-33.21-33.24-68.85-39.66-106.99-1.92-11.39-2.66-23-3.59-34.53-.46-5.74-.49-7.59,2.29-8.19,1.31-.28,3.25-.29,6.08-.29,2.15,0,4.31,0,6.46,0,2.29,7.46-1.07,13.38-9.36,15.95-2.91.9-1.35,2.47-.37,3.5,2.68,2.82,6.01,4.82,9.85,5.47,3.01.51,4.97,1.89,6.69,4.39,3.2,4.67,7.42,8.22,12.88,10.22,1.45.53,2.71.8,3.4-.66,2.11-4.46,6.71-7.32,7.87-12.38.37-1.6,1.22-2.99,2.86-3.7.1.3.28.73.58,1.2.73,1.14,1.44,1.3,2.07,2.04,1.25,1.46.75,3.51,1.04,3.53.35.03.84-2.94.94-3.53.84-5.15,1.25-7.73,1.07-9.75-.2-2.27-.68-3.37.09-4.58.56-.89,1.56-1.47,2.92-1.82-.09,6.89-2.43,14.09,2.96,20.49,1.4,1.66,1.21,3.42.11,5.59-2.37,4.66-4.05,9.58-5.35,14.75-1.47,5.85-2.83,12.11-8.94,15.84-3.17,1.94-6.24,2.17-9.59,2.14-.89,0-1.9-.2-2.24.83-.27.8.54,1.24,1.11,1.7,3.55,2.86,4.38,6.94,4.29,11.07-.07,3.43.09,6.73,1.46,9.87.87,2.01-.14,3.18-1.71,3.83-1.95.81-2.86,4.51-6.04,2.14-1.74-1.29-3.93-.83-5.28.38-2.16,1.93-2.14,4.65-1.27,7.35.54,1.66.68,3.47,3.32,3.03,2.28-.38,2.57.82,1.44,2.56-.72,1.1-1.52,2.16-2.25,3.26-.93,1.42-2.64,2.89-.84,4.59,1.61,1.52,3.77,1.71,5.76.64,2.24-1.2,3.91-3.1,5.45-5.07,2.35-3.01,4.75-2.68,7.42-.45,1.57,1.31,3.3,2.45,4.99,3.61,3.35,2.31,6.8,3.81,10.99,1.97,3.65-1.61,5.85.33,7.29,3.52,1.58,3.48,2.79,7.09,3.35,10.87.25,1.7,1.09,2.89,2.09,4.21,1.39,1.84,2.92,3.24,4.62,4.25-10.44,3.09-20.87,6.22-31.27,9.45-.21.07-.39.1-.59.15Zm159.87,130.32c-1.54-.25-3.17-.27-4.61-.8-21.24-7.72-41.4-17.61-60.51-29.7-21.14-13.39-40.66-28.84-57.57-47.22-11.48-12.48-21.64-26.18-32.35-39.36-.67-.83-1.07-1.88-1.95-3.47.96-.33,1.89-.66,2.83-1,3.9-1.39,7.63-2.79,11.45-3.86,11.81-3.31,23.74-6.21,35.51-9.67,3.63-1.06,4.75.17,6.02,3.19,12.17,29.11,27.66,56.28,47.72,80.75,14.45,17.64,30.73,33.32,49.44,46.42.63.44,1.24.91,1.85,1.38.88.67,1.75,1.36,2.63,2.03l-.44,1.32Zm3.99-11.61c-19.59-13.58-36.6-29.91-51.43-48.49-17.96-22.49-32.25-47.19-43.39-73.72-.52-1.25-.99-2.52-1.74-4.42,29.91-6.64,59.81-10.92,89.41-14.18,6.46,20.74,12.42,41.21,19.26,61.39,6.83,20.15,16.07,39.31,27.01,58.01-3.56,1.71-6.98,2.9-9.9,4.85-7.77,5.2-15.5,10.5-22.87,16.24-2.51,1.96-3.95,1.99-6.34.33Zm86.41,29.22c-27.32-.73-53.89-5.5-80.93-13.69.75-.91,1.51-1.79,2.27-2.65,21.45-24.18,48.84-31.44,78.65-33.75v50.09Zm0-60.31c-5.99.64-11.93,1.26-17.84,2.12-5.44.8-10.84,2.03-16.16,3.46-2.5.67-3.72.14-4.96-2.01-10.82-18.87-20.22-38.44-27.06-59.07-5.68-17.13-10.28-34.63-15.33-51.97-.29-1-.3-2.07-.57-4.03,27.48-1.5,54.58-2.98,81.92-4.47v115.98Zm0-125.79c-9.48.03-18.97.27-28.44.86-17.33,1.09-34.63,2.47-51.94,3.87-2.83.23-4.43-.34-4.85-3.39-3.04-21.82-6.65-43.57-9.07-65.45-.65-5.84-1.03-11.71-1.32-17.59,6.77-3.02,13.09-6.75,18.43-12.19,4.01-4.09,8.14-8.06,12.18-12.11,2.66-2.67,5.3-5.35,7.82-8.1,19.06-.04,38.12-.11,57.19-.25v114.35Zm0-123.96c-16.3-.11-32.61-.18-48.91-.23,5.34-7.54,9.24-15.93,10.17-26.07.27-2.92,1.28-4.83,4.97-4.19,2.68.46,4.33-.27,3.24-3.95-1.19-4.04-2.82-8.21-.48-12.7,1.07-2.07.2-4.99-2.27-6.03-3.89-1.63-5.69-4.32-6.57-8.33-.6-2.75-2.93-4.64-5.51-6-.75-.4-2.2-.35-1.89-1.92,1.18-1.05,2.58-.95,3.65-.17,2.59,1.89,5.39.76,8.09.78.74,0,1.98.14,2.18-.96.23-1.29-.9-1.94-1.89-1.98-3.61-.13-6.3-2.05-9-4.1-.76-.58-1.95-.95-2.9-.88-6.09.41-10.22-2.86-13.92-7.06-1.16-1.32-2.48-2.5-3.63-3.83-4.6-5.38-10.69-6.22-17.26-5.76-1.22.09-1.62.58-2.06,1.73-1.56,4.02-4.16,5.86-7.46,5.41,1.7-13.22,3.82-26.39,6.46-39.49.73-3.63,2.23-4.43,5.99-3.94,8.6,1.1,17.3,1.63,25.97,2.07,17.68.89,35.36,1.66,53.04,2.32v125.32Zm0-135.44c-27.05-.15-53.97-2.3-81.83-4.52,1.7-6.66,3.18-12.79,4.83-18.87,7.9-29.15,18.39-57.28,32.52-84.03,1.55-2.94,3.06-3.57,6.11-2.61,12.49,3.93,25.33,5.94,38.37,6.47v103.56Zm0-113.98c-11.09-1.46-22.3-2.58-33.14-5.18-15.78-3.78-30.07-11.13-41.97-22.4-4.16-3.94-7.81-8.41-12.2-13.38-.54-.62-1.09-1.24-1.66-1.87,29.46-10.09,58.56-15.44,88.97-16.52v59.34Zm13.3-57.14c32.53.17,63.88,5.38,93.3,14.89-8.42,10.97-21.21,23.74-39.21,32.08-13.81,6.39-26.84,8.45-31.13,9.13-7.58,1.2-15.28,1.69-22.96,1.49V12.55Zm0,613.68v-46.89c7.69-.2,15.39.29,22.96,1.49,5.23.82,17.46,2.75,31.11,9.12,11.83,5.52,22.76,13.59,32.09,23.61-27.34,8.1-56.25,12.51-86.16,12.67Zm97.45-16.26c-10.97-12.8-24.25-23.03-38.81-29.82-15.03-7.01-28.32-9.11-34-10-8.13-1.28-16.4-1.82-24.64-1.63V80.94c1.08.03,2.16.04,3.24.04,7.16,0,14.36-.56,21.41-1.68,4.65-.73,18.81-2.97,33.98-9.99,21.53-9.97,36.26-25.58,45.41-38.19,118.1,43.03,202.62,156.01,202.62,288.27s-87.67,249.41-209.2,290.58Z"/></svg>