<?xml version="1.0" encoding="UTF-8" standalone="no"?>
<!-- Created with Inkscape (http://www.inkscape.org/) -->

<svg
   width="647.69995mm"
   height="177.16199mm"
   viewBox="0 0 647.70017 177.16209"
   version="1.1"
   id="svg5"
   xml:space="preserve"
   inkscape:export-filename="../App/ups-white.png"
   inkscape:export-xdpi="96"
   inkscape:export-ydpi="96"
   inkscape:version="1.2.2 (b0a84865, 2022-12-01)"
   sodipodi:docname="ups-icc-dev-white.svg"
   xmlns:inkscape="http://www.inkscape.org/namespaces/inkscape"
   xmlns:sodipodi="http://sodipodi.sourceforge.net/DTD/sodipodi-0.dtd"
   xmlns="http://www.w3.org/2000/svg"
   xmlns:svg="http://www.w3.org/2000/svg"><sodipodi:namedview
     id="namedview7"
     pagecolor="#ffffff"
     bordercolor="#000000"
     borderopacity="0.31372549"
     inkscape:showpageshadow="false"
     inkscape:pageopacity="0"
     inkscape:pagecheckerboard="true"
     inkscape:deskcolor="#d0ccc6"
     inkscape:document-units="mm"
     showgrid="false"
     showguides="false"
     inkscape:zoom="0.20564334"
     inkscape:cx="2331.7069"
     inkscape:cy="359.84632"
     inkscape:window-width="1512"
     inkscape:window-height="916"
     inkscape:window-x="0"
     inkscape:window-y="38"
     inkscape:window-maximized="0"
     inkscape:current-layer="layer1"
     showborder="true"
     borderlayer="true" /><defs
     id="defs2"><style
       id="style148">.cls-1{fill:none;}.cls-2{fill:#003976;}.cls-3{fill:#ccd7e4;}.cls-4{fill:#feecb2;}.cls-5{fill:#6688ad;}.cls-6{fill:#fcc000;}</style><style
       id="style11622">.cls-1{fill:none;}.cls-2{fill:#003976;}.cls-3{fill:#ccd7e4;}.cls-4{fill:#feecb2;}.cls-5{fill:#6688ad;}.cls-6{fill:#fcc000;}</style><style
       id="style13110">.cls-1{fill:#fff;}</style></defs><g
     inkscape:label="Capa 1"
     inkscape:groupmode="layer"
     id="layer1"
     transform="translate(-13.229,-13.229)"><g
       id="g13246"
       transform="matrix(2.398803,0,0,2.4012761,13.229,12.96486)"><polygon
         class="cls-1"
         points="222.64,70.67 219.45,70.67 219.45,69.1 222.43,69.1 222.43,67.9 219.45,67.9 219.45,66.53 222.58,66.53 222.58,65.33 217.82,65.33 217.82,71.87 222.64,71.87 "
         id="polygon13116" /><path
         class="cls-1"
         d="m 225.29,68.59 a 2.12,2.12 0 0 1 2.37,-2 4.6,4.6 0 0 1 2.25,0.67 v -1.44 a 4.55,4.55 0 0 0 -2.37,-0.58 c -2.5,0 -3.93,1.63 -3.93,3.38 0,1.75 1.27,3.38 3.81,3.38 A 5.07,5.07 0 0 0 230,71.3 v -1.43 a 5.11,5.11 0 0 1 -2.37,0.72 2.1,2.1 0 0 1 -2.34,-2 z"
         id="path13118" /><path
         class="cls-1"
         d="m 236.14,69 a 1.51,1.51 0 0 1 -1.66,1.62 1.47,1.47 0 0 1 -1.62,-1.5 v -3.79 h -1.63 v 3.72 c 0,2 1.37,2.9 3.27,2.9 1.9,0 3.27,-0.74 3.27,-2.91 v -3.71 h -1.63 z"
         id="path13120" /><path
         class="cls-1"
         d="M 240.68,65.33 238,71.87 h 1.73 l 0.49,-1.3 h 2.92 l 0.54,1.3 h 1.75 l -2.9,-6.54 z m 0,4.1 1,-2.54 1,2.54 z"
         id="path13122" /><path
         class="cls-1"
         d="m 249.11,65.33 h -2.89 v 6.54 h 2.71 c 2.6,0 3.79,-1.38 3.79,-3.26 0,-1.88 -1.22,-3.28 -3.61,-3.28 z m -0.19,5.34 h -1.07 v -4.14 h 1.05 a 2.07,2.07 0 1 1 0,4.14 z"
         id="path13124" /><path
         class="cls-1"
         d="m 257.39,65.24 a 3.37,3.37 0 1 0 3.74,3.36 3.49,3.49 0 0 0 -3.74,-3.36 z m 0,5.35 a 2,2 0 1 1 2.06,-2 1.92,1.92 0 0 1 -2.06,2 z"
         id="path13126" /><path
         class="cls-1"
         d="m 266.25,68.81 a 1.69,1.69 0 0 0 1.12,-1.6 2,2 0 0 0 -2.13,-1.88 h -2.93 v 6.54 h 1.63 v -2.66 h 0.47 c 0.88,0 1.14,1.26 1.84,2.66 h 1.8 c -0.92,-1.87 -1.13,-2.73 -1.8,-3.06 z m -1.44,-0.8 h -0.87 v -1.48 h 0.83 c 0.61,0 0.93,0.25 0.93,0.73 0,0.48 -0.44,0.74 -0.89,0.74 z"
         id="path13128" /><path
         class="cls-1"
         d="m 86.07,55.52 c -2.42,0 -4.36,-1 -7.52,-3.74 V 58 c 2.19,1.49 4.1,2.8 7.94,2.8 4.9,0 8.45,-3.23 8.45,-8.79 0,-10.12 -11.19,-8.89 -11.19,-13.26 0,-1.45 1.25,-2.38 3.22,-2.38 1.97,0 3.78,0.72 7,2.59 v -5.62 a 14.43,14.43 0 0 0 -7.45,-2.26 c -5.1,0 -8.39,3.32 -8.39,8.33 0,10.42 11.2,8.67 11.2,13.43 -0.03,1.7 -1.16,2.68 -3.26,2.68 z"
         id="path13130" /><path
         class="cls-1"
         d="m 96.3,60.45 h 5.81 l 1.64,-5.74 h 9.84 l 1.81,5.74 h 5.91 l -9.78,-29 h -6.36 z M 108.43,38.39 112,49.66 h -6.8 z"
         id="path13132" /><polygon
         class="cls-1"
         points="129.34,55.14 129.34,31.46 123.86,31.46 123.86,60.45 140.64,60.45 140.64,55.14 "
         id="polygon13134" /><polygon
         class="cls-1"
         points="149.25,42.85 149.25,36.78 159.77,36.78 159.77,31.46 143.77,31.46 143.77,60.45 160,60.45 160,55.14 149.25,55.14 149.25,48.17 159.29,48.17 159.29,42.85 "
         id="polygon13136" /><path
         class="cls-1"
         d="m 171.1,55.52 c -2.42,0 -4.36,-1 -7.52,-3.74 V 58 c 2.19,1.49 4.1,2.8 7.94,2.8 4.9,0 8.45,-3.23 8.45,-8.79 0,-10.12 -11.19,-8.89 -11.19,-13.26 0,-1.45 1.25,-2.38 3.22,-2.38 1.97,0 3.78,0.72 7,2.59 v -5.62 a 14.43,14.43 0 0 0 -7.45,-2.26 c -5.1,0 -8.39,3.32 -8.39,8.33 0,10.42 11.2,8.67 11.2,13.43 -0.03,1.7 -1.16,2.68 -3.26,2.68 z"
         id="path13138" /><rect
         class="cls-1"
         x="183.88"
         y="31.469999"
         width="5.4899998"
         height="28.98"
         id="rect13140" /><path
         class="cls-1"
         d="m 192.07,60.45 h 5.81 l 1.65,-5.74 h 9.84 l 1.81,5.74 h 5.9 l -9.78,-29 H 201 Z m 12.14,-22.06 3.55,11.27 H 201 Z"
         id="path13142" /><polygon
         class="cls-1"
         points="219.66,60.45 225.15,60.45 225.15,41.88 237.31,60.45 241.93,60.45 241.93,31.46 236.44,31.46 236.44,49.19 224.7,31.46 219.66,31.46 "
         id="polygon13144" /><path
         class="cls-1"
         d="m 253.39,31.47 -8.88,29 h 5.81 L 252,54.71 h 9.84 l 1.8,5.74 h 5.91 l -9.78,-29 z m 0,18.19 3.22,-11.27 3.55,11.27 z"
         id="path13146" /><path
         class="cls-1"
         d="m 78,13.69 v 5 c 0,2.75 1.78,3.94 4.25,3.94 2.47,0 4.25,-1 4.25,-4 v -5 h -2.09 v 4.94 a 2,2 0 0 1 -2.15,2.2 2,2 0 0 1 -2.11,-2 v -5.08 z"
         id="path13148" /><polygon
         class="cls-1"
         points="94.86,13.69 94.86,19.11 90.33,13.69 88.38,13.69 88.38,22.55 90.5,22.55 90.5,16.87 95.2,22.55 96.98,22.55 96.98,13.69 "
         id="polygon13150" /><rect
         class="cls-1"
         x="98.970001"
         y="13.69"
         width="2.1199999"
         height="8.8699999"
         id="rect13152" /><polygon
         class="cls-1"
         points="106.21,22.67 107.14,22.67 111.06,13.69 108.78,13.69 106.65,18.75 104.4,13.69 102.1,13.69 "
         id="polygon13154" /><polygon
         class="cls-1"
         points="114.16,17.17 114.16,15.31 118.22,15.31 118.22,13.69 112.04,13.69 112.04,22.55 118.31,22.55 118.31,20.93 114.16,20.93 114.16,18.8 118.03,18.8 118.03,17.17 "
         id="polygon13156" /><path
         class="cls-1"
         d="m 126.51,16.23 a 2.59,2.59 0 0 0 -2.78,-2.54 h -3.8 v 8.86 h 2.12 V 19 h 0.61 c 1.15,0 1.49,1.71 2.4,3.6 h 2.33 c -1.2,-2.6 -1.46,-3.69 -2.33,-4.14 a 2.3,2.3 0 0 0 1.45,-2.23 z m -3.34,1.1 h -1.12 v -2 h 1.07 c 0.8,0 1.21,0.34 1.21,1 0,0.66 -0.57,1 -1.16,1 z"
         id="path13158" /><path
         class="cls-1"
         d="m 131,21.05 a 4.79,4.79 0 0 1 -2.9,-1.15 v 1.91 a 5.51,5.51 0 0 0 3.06,0.86 c 1.9,0 3.27,-1 3.27,-2.69 0,-3.09 -4.33,-2.72 -4.33,-4.06 0,-0.44 0.49,-0.73 1.25,-0.73 a 6.43,6.43 0 0 1 2.69,0.8 v -1.73 a 6.72,6.72 0 0 0 -2.88,-0.69 c -2,0 -3.24,1 -3.24,2.55 0,3.18 4.33,2.65 4.33,4.11 0.04,0.52 -0.4,0.82 -1.25,0.82 z"
         id="path13160" /><rect
         class="cls-1"
         x="135.98"
         y="13.69"
         width="2.1199999"
         height="8.8699999"
         id="rect13162" /><path
         class="cls-1"
         d="M 143.8,13.69 H 140 v 8.86 h 3.52 c 3.39,0 4.94,-1.87 4.94,-4.42 0,-2.55 -1.56,-4.44 -4.66,-4.44 z m -0.25,7.24 h -1.38 v -5.62 h 1.35 a 2.56,2.56 0 0 1 2.8,2.81 2.58,2.58 0 0 1 -2.77,2.81 z"
         id="path13164" /><path
         class="cls-1"
         d="m 151.34,20.8 h 3.81 l 0.7,1.75 h 2.28 l -3.78,-8.86 h -2.46 l -3.43,8.86 h 2.25 z m 1.81,-5 1.37,3.44 h -2.62 z"
         id="path13166" /><path
         class="cls-1"
         d="m 159.1,13.69 v 8.86 h 3.52 c 3.39,0 4.94,-1.87 4.94,-4.42 0,-2.55 -1.6,-4.44 -4.71,-4.44 z m 6.27,4.43 a 2.57,2.57 0 0 1 -2.77,2.81 h -1.38 v -5.62 h 1.36 a 2.56,2.56 0 0 1 2.79,2.81 z"
         id="path13168" /><path
         class="cls-1"
         d="m 172.67,13.69 v 8.86 h 2.12 V 19 h 1.68 a 2.65,2.65 0 1 0 0,-5.3 z m 4.43,2.65 c 0,0.66 -0.35,1 -1.33,1 h -1 v -2.03 h 0.75 c 1.16,0 1.58,0.27 1.58,1.03 z"
         id="path13170" /><path
         class="cls-1"
         d="m 180.4,18.12 a 4.88,4.88 0 1 0 4.88,-4.55 4.62,4.62 0 0 0 -4.88,4.55 z m 7.56,0 a 2.69,2.69 0 1 1 -5.38,0 2.69,2.69 0 1 1 5.38,0 z"
         id="path13172" /><polygon
         class="cls-1"
         points="193.79,20.93 193.79,13.69 191.67,13.69 191.67,22.55 198.16,22.55 198.16,20.93 "
         id="polygon13174" /><rect
         class="cls-1"
         x="199.42"
         y="13.69"
         width="2.1199999"
         height="8.8699999"
         id="rect13176" /><polygon
         class="cls-1"
         points="211.18,15.31 211.18,13.69 202.9,13.69 202.9,15.31 205.98,15.31 205.98,22.55 208.1,22.55 208.1,15.31 "
         id="polygon13178" /><polygon
         class="cls-1"
         points="218.67,13.69 212.49,13.69 212.49,22.55 218.76,22.55 218.76,20.93 214.61,20.93 214.61,18.8 218.49,18.8 218.49,17.17 214.61,17.17 214.61,15.31 218.67,15.31 "
         id="polygon13180" /><polygon
         class="cls-1"
         points="215.41,12.83 217.46,10.93 215.41,10.93 214.48,12.83 "
         id="polygon13182" /><path
         class="cls-1"
         d="m 225.28,15.42 a 5.7,5.7 0 0 1 2.93,0.91 v -2 a 5.78,5.78 0 0 0 -3.08,-0.78 c -3.25,0 -5.11,2.21 -5.11,4.58 0,2.37 1.65,4.52 4.95,4.52 a 6.43,6.43 0 0 0 3.34,-0.88 v -1.92 a 6.43,6.43 0 0 1 -3.08,1 2.73,2.73 0 1 1 0.05,-5.41 z"
         id="path13184" /><polygon
         class="cls-1"
         points="236.49,13.69 236.49,19.11 231.95,13.69 230.01,13.69 230.01,22.55 232.13,22.55 232.13,16.87 236.83,22.55 238.61,22.55 238.61,13.69 "
         id="polygon13186" /><rect
         class="cls-1"
         x="240.60001"
         y="13.69"
         width="2.1199999"
         height="8.8699999"
         id="rect13188" /><path
         class="cls-1"
         d="m 249.57,15.42 a 5.76,5.76 0 0 1 2.94,0.91 v -2 a 5.82,5.82 0 0 0 -3.08,-0.78 c -3.26,0 -5.12,2.21 -5.12,4.58 0,2.37 1.65,4.52 4.95,4.52 a 6.49,6.49 0 0 0 3.35,-0.88 v -1.92 a 6.5,6.5 0 0 1 -3.09,1 2.73,2.73 0 1 1 0,-5.41 z"
         id="path13190" /><path
         class="cls-1"
         d="m 253.38,22.55 h 2.24 l 0.64,-1.75 h 3.8 l 0.7,1.75 H 263 l -3.78,-8.86 h -2.45 z m 4.69,-6.74 1.37,3.44 h -2.62 z"
         id="path13192" /><path
         class="cls-1"
         d="m 61.67,21.62 a 1.34,1.34 0 0 0 -0.26,-0.87 c -0.67,-0.87 -1.48,-0.93 -2.15,-0.07 a 2.13,2.13 0 0 1 -1.86,0.88 0.66,0.66 0 0 0 -0.67,0.48 2.09,2.09 0 0 1 -3,1.33 8.27,8.27 0 0 1 -2.93,-1.86 0.8,0.8 0 0 0 -1.09,-0.15 21.15,21.15 0 0 1 -2.61,1.3 7.78,7.78 0 0 1 -2.17,0.5 c -0.93,0.08 -1.3,-0.44 -0.92,-1.29 0.38,-0.85 -0.28,-1.39 -0.5,-2.17 a 8.26,8.26 0 0 0 -0.62,0.66 c -0.65,0.92 -1.28,1.86 -1.93,2.79 a 3.5,3.5 0 0 0 -0.58,2 c 0,0.51 -0.06,1 -0.12,1.53 a 56.67,56.67 0 0 0 -0.55,7.92 17.77,17.77 0 0 1 0,2.73 A 6.73,6.73 0 0 0 40,40 c 0.26,0.89 0.79,1.73 0.54,2.72 0,0 0,0.09 0,0.14 0.11,0.53 0.42,0.73 0.93,0.56 a 2.23,2.23 0 0 0 0.58,-0.33 c 0.68,-0.48 1.35,-1 2,-1.47 a 0.53,0.53 0 0 1 0.77,0 0.89,0.89 0 0 1 0.2,0.71 3.92,3.92 0 0 1 -0.54,0.89 12.36,12.36 0 0 0 -0.72,1.06 1.16,1.16 0 0 0 0,1.36 1.62,1.62 0 0 0 1.39,0.62 0.75,0.75 0 0 0 0.78,-0.65 c 0.06,-0.36 0.06,-0.73 0.09,-1.1 1.43,1.5 3.15,1.11 4.71,0.76 -0.37,0.59 -0.83,1.22 -1.18,1.91 -0.35,0.69 -0.25,0.91 0.53,1 1.27,0.1 2.55,0.07 3.82,0.08 a 0.36,0.36 0 0 0 0.25,-0.11 2.52,2.52 0 0 1 1.79,-0.9 C 56.28,47.19 56.5,47 56.48,46.68 a 1.9,1.9 0 0 0 -0.22,-1 6.42,6.42 0 0 0 -1.26,-1.29 3.78,3.78 0 0 1 -1.47,-2.12 7.74,7.74 0 0 0 3,2.33 1.74,1.74 0 0 1 1.21,2.15 c 0,0.26 0,0.53 -0.11,0.79 a 3.59,3.59 0 0 0 -0.27,0.8 27.52,27.52 0 0 0 0.16,3.14 c 0.19,1.46 0.81,1.87 2.32,1.65 -0.79,0.72 -1.49,1.45 -2.28,2.05 a 1.81,1.81 0 0 0 -0.7,1.75 c 0,0.29 0.12,0.38 0.41,0.38 a 9.14,9.14 0 0 0 4,-0.79 4,4 0 0 0 2.52,-3.89 c 0,-1 0,-2 0,-3.07 a 0.65,0.65 0 0 1 0.31,-0.63 1.77,1.77 0 0 0 0.61,-0.77 10.54,10.54 0 0 0 0.35,-1.76 11.66,11.66 0 0 0 0,-1.33 c 0.2,0.17 0.32,0.28 0.45,0.37 a 3.4,3.4 0 0 0 0.45,0.28 c 0.54,0.26 0.88,0.09 1.14,-0.45 0.26,-0.54 0.7,-1.31 1.06,-2 a 17.07,17.07 0 0 0 0.88,-1.63 9.66,9.66 0 0 0 0.78,-3.87 c 0,-1.13 -0.41,-1.68 -1.31,-1.9 -0.62,-0.15 -1,0.1 -1,0.75 a 8.62,8.62 0 0 0 0.2,1.22 4.14,4.14 0 0 1 -0.85,3.19 c -0.41,-0.3 -0.48,-0.55 -0.16,-1 A 1.7,1.7 0 0 0 66.61,37.5 c -0.19,-0.2 -0.23,-0.36 -0.08,-0.58 0.51,-0.72 1,-1.47 1.52,-2.15 a 1.44,1.44 0 0 1 2.16,-0.21 9.24,9.24 0 0 1 0.85,0.83 c 0.06,-0.54 0.12,-1 0.16,-1.48 a 0.38,0.38 0 0 0 -0.13,-0.24 3.12,3.12 0 0 0 -2.87,-0.66 3.47,3.47 0 0 0 -2,1.8 c -0.36,0.65 -0.61,1.37 -1,2 A 3.59,3.59 0 0 1 64.7,37.47 L 64.54,37.4 a 9.85,9.85 0 0 1 -0.1,-1.08 3.12,3.12 0 0 0 -0.95,-2.58 c -0.18,-0.16 -0.3,-0.38 -0.46,-0.55 a 2.86,2.86 0 0 1 -1,-2.44 c 0,-0.05 0,-0.09 0,-0.14 a 2.57,2.57 0 0 1 0.39,-1.89 6.94,6.94 0 0 0 1,-4.95 C 63.32,23 63.15,22.39 62.2,22.36 61.87,22.46 61.65,22.15 61.67,21.62 Z M 47.51,36.33 a 5.72,5.72 0 0 0 -0.46,1.6 c -0.12,0.44 -0.31,0.51 -0.58,0.13 a 8.48,8.48 0 0 1 -0.86,-1.53 c -0.14,-0.3 -0.27,-0.45 -0.62,-0.44 A 13.1,13.1 0 0 0 41.57,36.35 0.74,0.74 0 0 1 41.19,36.3 L 41,36.22 v 0 c 0,0 0,-0.09 0,-0.14 a 1.59,1.59 0 0 1 0.16,-0.41 5,5 0 0 1 0.37,-0.43 0.54,0.54 0 0 0 -0.37,-0.93 c -0.9,-0.11 -0.7,-0.15 -0.76,-0.88 a 21.29,21.29 0 0 1 0.44,-4.51 c 0.08,-0.6 0.13,-1.19 0.2,-1.79 h 0.09 l 0.11,0.26 c 0.33,0.61 0.63,1.24 1,1.84 0.25,0.41 0.22,0.66 -0.23,0.73 -0.45,0.07 -0.49,0.32 -0.4,0.67 0.09,0.35 0.14,0.62 0.23,0.93 a 1.54,1.54 0 0 0 1.54,1.25 c 1.08,0.08 2.15,0.23 3.22,0.4 a 1.17,1.17 0 0 1 0.66,0.4 2.2,2.2 0 0 1 0.25,2.72 z M 58.75,37.4 A 0.7,0.7 0 0 1 58,37 1,1 0 0 0 56.43,36.6 2.66,2.66 0 0 1 54.57,36.81 6.85,6.85 0 0 0 53,36.63 2.52,2.52 0 0 1 50.84,35.7 C 50.37,35.15 49.95,34.55 49.5,33.97 l 0.1,-0.09 a 15.82,15.82 0 0 0 5.18,0.28 c 0.76,0 1.52,-0.14 2.28,-0.2 a 0.51,0.51 0 0 1 0.3,0.09 c 0.77,0.75 1.53,1.52 2.32,2.3 -0.53,0.14 -1.26,0.15 -0.93,1.05 z"
         id="path13194" /><path
         class="cls-1"
         d="m 57,52.31 a 5.66,5.66 0 0 0 -0.34,-1.53 c -0.4,-1 -0.93,-1.86 -2.11,-2 -1.44,-0.16 -2.88,-0.32 -4.33,-0.4 a 14.23,14.23 0 0 0 -2.52,0.16 0.53,0.53 0 0 0 -0.18,1 1.88,1.88 0 0 0 0.69,0.31 c 0.45,0.09 0.91,0.14 1.29,0.19 -0.19,0.34 -0.36,0.68 -0.56,1 a 0.55,0.55 0 0 1 -0.29,0.2 4.31,4.31 0 0 1 -0.61,0.1 1.33,1.33 0 0 1 -1.6,-1 6.29,6.29 0 0 0 -0.8,-1.49 0.77,0.77 0 0 0 -0.75,-0.14 3.53,3.53 0 0 0 -1,1.14 c -0.09,0.19 0.18,0.59 0.33,0.88 a 2.19,2.19 0 0 0 0.5,0.7 1.67,1.67 0 0 1 0.57,1.4 1.38,1.38 0 0 0 0.55,1.07 7.9,7.9 0 0 0 0.78,0.55 11.87,11.87 0 0 0 5.94,1.42 4.6,4.6 0 0 0 4.24,-2.73 1.56,1.56 0 0 0 0.2,-0.83 z"
         id="path13196" /><path
         class="cls-1"
         d="M 269.26,25.59 H 73.41 a 5.42,5.42 0 0 0 -0.57,0 0.46,0.46 0 0 1 -0.46,-0.14 0.73,0.73 0 0 1 -0.16,-0.29 c -0.57,-1.44 -1.1,-2.9 -1.76,-4.29 A 35.76,35.76 0 0 0 62.84,10.4 5.76,5.76 0 0 1 62.42,9.93 L 62.32,9.82 H 269.9 V 8.71 H 61.69 A 1.83,1.83 0 0 1 60.84,8.53 1.61,1.61 0 0 1 60.44,8.27 36.44,36.44 0 0 0 50,2.35 37,37 0 0 0 38.58,0.11 c -0.68,0 -1.37,0 -2,0 l -1.73,0.07 a 31,31 0 0 0 -6.78,1 A 37.19,37.19 0 0 0 3.21,22 36.4,36.4 0 0 0 0,36.77 c 0,1.46 0.13,2.93 0.26,4.39 a 31.77,31.77 0 0 0 1.65,7.53 36.53,36.53 0 0 0 9.52,14.93 37.15,37.15 0 0 0 23.34,10.2 c 0.58,0 1.17,0.05 1.76,0.06 v 0 a 36.42,36.42 0 0 0 15.27,-3 3.56,3.56 0 0 1 1.47,-0.31 h 160.47 0.66 V 69.48 H 55.09 V 69.37 A 36.83,36.83 0 0 0 70,54 c 0.48,-0.93 0.93,-1.89 1.34,-2.87 a 37,37 0 0 0 1.4,-24.43 h 196.33 a 4.26,4.26 0 0 0 0.62,0 0.38,0.38 0 0 0 0.25,-0.21 c 0.17,-0.71 0.06,-0.9 -0.68,-0.9 z M 12.73,53.85 c 0,0 0,-0.06 0,-0.09 a 3.74,3.74 0 0 1 0,-0.42 c 0.18,0.32 0.18,0.42 0,0.51 z M 24.21,25.62 c -0.06,0.42 -0.11,0.84 -0.16,1.26 A 1,1 0 0 1 23.16,26.69 1.69,1.69 0 0 0 21.84,26.37 1,1 0 0 1 20.6,25.14 c 0,-0.29 -0.07,-0.44 -0.39,-0.47 a 0.75,0.75 0 0 1 -0.76,-0.58 c -0.05,-0.38 -0.22,-0.37 -0.47,-0.29 -0.25,0.08 -0.6,0.16 -0.78,0 a 7.25,7.25 0 0 0 -1.85,-1 C 15.72,22.48 15.3,21.89 14.61,21.67 a 2.31,2.31 0 0 1 -0.66,-0.34 c 0.08,-0.24 0.16,-0.48 0.23,-0.72 0.07,-0.24 0.26,-0.46 0.68,-0.39 2.74,0.47 5.49,0.91 8.23,1.35 a 9.36,9.36 0 0 0 1.29,0.11 c 0.37,0 0.5,0.14 0.43,0.53 -0.22,1.15 -0.45,2.27 -0.6,3.41 z M 14.15,52.13 a 2.55,2.55 0 0 1 0.44,-2.13 0.66,0.66 0 0 0 0.06,-0.4 1.49,1.49 0 0 1 0.6,-1.22 0.91,0.91 0 0 0 0.34,-0.66 c 0.05,-0.4 0.12,-0.8 0.19,-1.2 0,-0.14 0.11,-0.27 0.27,-0.24 0.16,0.03 0.2,0.16 0.16,0.31 a 2.59,2.59 0 0 0 0,0.28 c 0.37,-0.11 0.63,-0.26 0.38,-0.64 -0.25,-0.38 -0.06,-0.36 0.1,-0.51 l 1.57,-1.53 a 0.59,0.59 0 0 1 0.29,-0.19 45.76,45.76 0 0 0 5,-1.78 c 0.13,1.74 0.33,3.47 0.55,5.2 0.17,1.35 0.44,2.7 0.69,4 0.06,0.34 0,0.43 -0.34,0.46 a 88.49,88.49 0 0 0 -9.7,1.52 c -0.16,0 -0.34,0 -0.52,0.06 -0.12,-0.34 -0.24,-0.68 -0.35,-1 0.12,-0.01 0.31,-0.13 0.27,-0.33 z M 24.74,20.6 c -1.76,-0.24 -3.53,-0.45 -5.29,-0.71 -1.35,-0.2 -2.69,-0.48 -4,-0.72 -0.17,0 -0.33,-0.09 -0.57,-0.15 A 32.58,32.58 0 0 1 25.48,5.14 c 0.7,0.58 1.33,1.17 2,1.66 0.67,0.49 1.44,0.85 2.13,1.25 -0.75,1.68 -1.59,3.32 -2.2,5 -0.83,2.35 -1.5,4.76 -2.21,7.15 -0.06,0.34 -0.2,0.44 -0.46,0.4 z M 8.93,14.83 a 34.64,34.64 0 0 1 9.92,-8.6 c 1.62,-0.92 3.35,-1.64 5,-2.47 0.33,-0.16 0.55,-0.15 0.71,0 a 1,1 0 0 1 0.19,0.39 C 19.61,7.94 16.14,13 13.6,18.86 L 7.65,17.08 7.32,17 C 7.93,16.16 8.41,15.48 8.93,14.83 Z M 4.47,22.08 C 5.08,20.77 5.84,19.52 6.52,18.24 A 0.38,0.38 0 0 1 7,18 v 0 c 1.87,0.61 3.76,1.18 5.65,1.76 l 0.42,0.13 c -0.23,0.69 -0.44,1.35 -0.67,2 a 0.94,0.94 0 0 1 -0.34,0.08 1,1 0 0 0 -0.68,0.26 0.82,0.82 0 0 1 -0.64,0.22 A 1.46,1.46 0 0 0 9.51,22.78 0.72,0.72 0 0 1 9,23 0.89,0.89 0 0 0 8.45,23.16 C 7.96,23.4 7.62,23.95 7,23.9 a 0.53,0.53 0 0 0 -0.6,0.35 0.51,0.51 0 0 0 0.29,0.67 c 0.2,0.08 0.3,0.33 0.2,0.46 -0.24,0.3 -0.14,0.52 0,0.77 0,0.07 0.09,0.16 0,0.21 C 6.8,26.41 6.73,26.72 6.75,26.9 A 2.06,2.06 0 0 1 5.64,28.9 4.85,4.85 0 0 0 4.5,30 0.56,0.56 0 0 0 4.42,30.74 0.89,0.89 0 0 1 4.36,31.85 1.58,1.58 0 0 0 4.12,32.29 c -0.29,0.82 -0.29,0.82 -1.18,0.79 a 0.72,0.72 0 0 0 -0.73,1 2,2 0 0 0 0.38,0.65 A 0.79,0.79 0 0 1 2.67,36 1,1 0 0 0 2.45,36.93 H 1.52 c -0.26,0 -0.35,-0.16 -0.35,-0.5 A 34.74,34.74 0 0 1 4.47,22.08 Z M 6.88,55.61 A 0.49,0.49 0 0 1 6.26,55.32 35.26,35.26 0 0 1 1.69,43 C 1.46,41.69 1.38,40.35 1.27,39 1.22,38.34 1.22,38.12 1.54,38 a 4.19,4.19 0 0 1 0.7,0 H 3 a 1.38,1.38 0 0 1 -1.1,1.86 c -0.33,0.11 -0.15,0.29 0,0.41 a 2.09,2.09 0 0 0 1.1,0.63 1.13,1.13 0 0 1 0.77,0.5 3,3 0 0 0 1.48,1.18 c 0.17,0.06 0.31,0.1 0.39,-0.07 0.25,-0.52 0.78,-0.85 0.91,-1.43 a 0.56,0.56 0 0 1 0.33,-0.43 0.37,0.37 0 0 0 0.07,0.14 c 0.08,0.13 0.16,0.15 0.24,0.24 0.08,0.09 0.08,0.4 0.12,0.4 0.04,0 0.09,-0.34 0.1,-0.4 A 5.27,5.27 0 0 0 7.54,39.9 c 0,-0.26 -0.08,-0.39 0,-0.53 a 0.53,0.53 0 0 1 0.33,-0.21 c 0,0.8 -0.28,1.63 0.35,2.36 a 0.54,0.54 0 0 1 0,0.65 7.86,7.86 0 0 0 -0.62,1.7 2.62,2.62 0 0 1 -1,1.83 2,2 0 0 1 -1.12,0.3 c -0.1,0 -0.22,0 -0.26,0.09 -0.04,0.09 0.07,0.14 0.13,0.2 a 1.49,1.49 0 0 1 0.5,1.27 2.58,2.58 0 0 0 0.15,1.09 0.3,0.3 0 0 1 -0.2,0.44 c -0.23,0.1 -0.33,0.52 -0.7,0.25 a 0.48,0.48 0 0 0 -0.61,0 0.72,0.72 0 0 0 -0.14,0.84 c 0.06,0.19 0.07,0.4 0.38,0.35 0.31,-0.05 0.3,0.1 0.16,0.3 L 4.63,51.2 c -0.1,0.17 -0.3,0.34 -0.09,0.53 A 0.54,0.54 0 0 0 5.2,51.81 2.09,2.09 0 0 0 5.83,51.22 C 6.1,50.87 6.38,50.91 6.69,51.17 7,51.43 7.07,51.45 7.26,51.59 a 1.23,1.23 0 0 0 1.27,0.22 c 0.42,-0.18 0.67,0 0.84,0.41 A 5,5 0 0 1 9.76,53.47 1,1 0 0 0 10,54 a 2,2 0 0 0 0.53,0.49 l -3.59,1.1 z m 18.44,15 a 2.93,2.93 0 0 1 -0.53,-0.09 35.6,35.6 0 0 1 -7,-3.43 32.54,32.54 0 0 1 -6.64,-5.45 C 9.82,60.21 8.65,58.64 7.41,57.1 A 3.09,3.09 0 0 1 7.19,56.7 l 0.33,-0.11 c 0.45,-0.16 0.88,-0.32 1.32,-0.45 1.36,-0.38 2.73,-0.71 4.09,-1.11 0.42,-0.12 0.55,0 0.7,0.37 a 37,37 0 0 0 5.5,9.31 28.68,28.68 0 0 0 5.7,5.36 l 0.22,0.16 0.3,0.23 z m 0.46,-1.34 a 27.85,27.85 0 0 1 -5.93,-5.59 35.73,35.73 0 0 1 -5,-8.51 c -0.06,-0.14 -0.11,-0.29 -0.2,-0.51 A 98.46,98.46 0 0 1 25,53.06 c 0.75,2.39 1.44,4.75 2.23,7.08 a 36.18,36.18 0 0 0 3.11,6.69 11,11 0 0 0 -1.14,0.56 c -0.9,0.6 -1.79,1.21 -2.64,1.87 a 0.5,0.5 0 0 1 -0.78,0.04 z m 10,3.37 a 34.83,34.83 0 0 1 -9.34,-1.58 l 0.26,-0.3 c 2.48,-2.79 5.64,-3.63 9.08,-3.9 z m 0,-7 c -0.69,0.07 -1.38,0.14 -2.06,0.24 a 14.65,14.65 0 0 0 -1.86,0.4 0.43,0.43 0 0 1 -0.58,-0.23 37.48,37.48 0 0 1 -3.12,-6.82 c -0.65,-2 -1.18,-4 -1.77,-6 0,-0.12 0,-0.24 -0.06,-0.47 l 9.45,-0.51 z m 0,-14.52 c -1.1,0 -2.19,0 -3.28,0.1 -2,0.13 -4,0.29 -6,0.45 -0.33,0 -0.51,0 -0.56,-0.39 -0.36,-2.52 -0.77,-5 -1.05,-7.55 -0.08,-0.67 -0.12,-1.35 -0.15,-2 a 6.66,6.66 0 0 0 2.12,-1.41 L 28.25,39 c 0.31,-0.31 0.61,-0.62 0.9,-0.94 q 3.3,0 6.6,0 z m 0,-14.29 h -5.64 a 6.15,6.15 0 0 0 1.17,-3 c 0,-0.34 0.15,-0.56 0.57,-0.48 0.42,0.08 0.5,0 0.38,-0.46 a 1.81,1.81 0 0 1 -0.06,-1.46 0.52,0.52 0 0 0 -0.26,-0.7 1.21,1.21 0 0 1 -0.76,-1 1.12,1.12 0 0 0 -0.64,-0.69 c -0.08,-0.05 -0.25,0 -0.21,-0.22 a 0.32,0.32 0 0 1 0.42,0 c 0.3,0.21 0.62,0.08 0.93,0.09 0.09,0 0.23,0 0.25,-0.11 0.02,-0.11 -0.1,-0.23 -0.22,-0.23 a 1.83,1.83 0 0 1 -1,-0.48 0.67,0.67 0 0 0 -0.34,-0.1 1.93,1.93 0 0 1 -1.61,-0.81 c -0.13,-0.15 -0.28,-0.29 -0.41,-0.44 a 2.19,2.19 0 0 0 -2,-0.67 c -0.14,0 -0.19,0.07 -0.24,0.2 -0.18,0.46 -0.48,0.68 -0.86,0.62 0.19,-1.52 0.44,-3 0.74,-4.55 0.09,-0.42 0.26,-0.51 0.69,-0.46 1,0.13 2,0.19 3,0.24 2,0.11 4.08,0.19 6.12,0.27 z m 0,-15.63 c -3.12,0 -6.23,-0.26 -9.44,-0.52 0.19,-0.77 0.37,-1.47 0.56,-2.18 A 47,47 0 0 1 30.65,8.81 C 30.83,8.47 31,8.4 31.35,8.51 a 17,17 0 0 0 4.43,0.74 z m 0,-13.15 A 37.65,37.65 0 0 1 31.95,7.46 10.58,10.58 0 0 1 27.08,5 C 26.6,4.55 26.18,4 25.68,3.46 L 25.48,3.24 A 35.07,35.07 0 0 1 35.75,1.34 Z M 37.31,1.46 A 35.44,35.44 0 0 1 48,3.26 12.25,12.25 0 0 1 43.52,7 13.54,13.54 0 0 1 39.93,8 13.78,13.78 0 0 1 37.28,8.17 Z m 0,70.79 v -5.33 a 14.64,14.64 0 0 1 2.65,0.18 12.77,12.77 0 0 1 3.59,1.05 12.29,12.29 0 0 1 3.7,2.72 35.09,35.09 0 0 1 -9.97,1.46 z M 48.55,70.38 A 13.23,13.23 0 0 0 44.05,67 14.1,14.1 0 0 0 40.12,65.85 15.83,15.83 0 0 0 37.28,65.66 V 9.43 h 0.38 A 15.6,15.6 0 0 0 40.12,9.23 14.56,14.56 0 0 0 44,8.09 13.52,13.52 0 0 0 49.24,3.68 35.34,35.34 0 0 1 48.48,70.46 Z"
         id="path13198" /></g></g></svg>
