<?xml version="1.0" encoding="UTF-8" standalone="no"?>
<!-- Created with Inkscape (http://www.inkscape.org/) -->

<svg
   width="177.16501mm"
   height="177.16249mm"
   viewBox="0 0 177.16507 177.16259"
   version="1.1"
   id="svg5"
   xml:space="preserve"
   inkscape:export-filename="../ups-iso.webp"
   inkscape:export-xdpi="96"
   inkscape:export-ydpi="96"
   inkscape:version="1.2.2 (b0a84865, 2022-12-01)"
   sodipodi:docname="ups-dev-iso.svg"
   xmlns:inkscape="http://www.inkscape.org/namespaces/inkscape"
   xmlns:sodipodi="http://sodipodi.sourceforge.net/DTD/sodipodi-0.dtd"
   xmlns="http://www.w3.org/2000/svg"
   xmlns:svg="http://www.w3.org/2000/svg"><sodipodi:namedview
     id="namedview7"
     pagecolor="#ffffff"
     bordercolor="#000000"
     borderopacity="0.25"
     inkscape:showpageshadow="2"
     inkscape:pageopacity="0.0"
     inkscape:pagecheckerboard="0"
     inkscape:deskcolor="#d1d1d1"
     inkscape:document-units="mm"
     showgrid="false"
     showguides="false"
     inkscape:zoom="0.47975554"
     inkscape:cx="482.53742"
     inkscape:cy="434.59634"
     inkscape:window-width="1920"
     inkscape:window-height="1027"
     inkscape:window-x="0"
     inkscape:window-y="25"
     inkscape:window-maximized="1"
     inkscape:current-layer="g11879" /><defs
     id="defs2"><style
       id="style148">.cls-1{fill:none;}.cls-2{fill:#003976;}.cls-3{fill:#ccd7e4;}.cls-4{fill:#feecb2;}.cls-5{fill:#6688ad;}.cls-6{fill:#fcc000;}</style><style
       id="style11622">.cls-1{fill:none;}.cls-2{fill:#003976;}.cls-3{fill:#ccd7e4;}.cls-4{fill:#feecb2;}.cls-5{fill:#6688ad;}.cls-6{fill:#fcc000;}</style></defs><g
     inkscape:label="Capa 1"
     inkscape:groupmode="layer"
     id="layer1"
     transform="translate(-13.229167,-13.229167)"><g
       id="g11879"
       transform="matrix(0.26458333,0,0,0.26458333,13.229167,13.229221)"><path
         class="cls-3"
         d="m 47.74,465.46 c 0,0 -1.61,-7.31 -5.21,-9.34 0,0 -4.18,-8.85 7.29,-3.13 l 6.2,-2.06 1.56,-11.93 c 0,0 -8.32,-12 0,-13 0,0 5.19,-0.54 5.71,-11.44 l 4.13,-0.68 2.43,2.93 5.59,-2.12 4.56,-6.47 c -1.27,-2 -2.31,-3.75 -3.1,-5.1 0,0 -0.82,-1.4 -2.12,-3.82 -0.17,-0.31 -0.48,-1 -1.09,-2.25 A 8.51,8.51 0 0 1 73,395.17 5.8,5.8 0 0 1 72.86,394.38 c -0.08,-1.77 -0.17,-3.55 -0.25,-5.32 l 1.79,-0.15 c 0.32,0.11 3.56,1.21 5.6,-0.43 2.22,-1.79 2.53,-6.43 -0.74,-10.06 l -3,-0.26 -2.02,-5.16 -0.54,-10.41 2,-3.65 v -3.63 l -3.62,1 L 69,378.65 64.08,365 l -1.81,7 v 3.12 l -2.06,2.07 -0.58,4.15 -5.15,2.58 v 3.62 H 43 c 0,0 -11.47,-7.71 -14,-12.42 0,0 -14,1 -6.78,-12.48 L 29,360.5 c 0,0 3.65,-12.46 -4.13,-15.63 V 344.8 H 9.73 a 319.81,319.81 0 0 0 25.42,116.28 q 4.08,9.57 8.74,18.81 l 2.07,-4 c -2.08,-0.52 -3.07,-2.89 1.78,-10.43 z"
         id="path11716" /><path
         class="cls-3"
         d="m 268.79,60.69 c 3.84,-3.64 5.3,-6.72 2.56,-10.87 -7.16,-10.8 7.17,-7.18 3.55,-18 a 33.14,33.14 0 0 1 -0.84,-15 324.27,324.27 0 0 0 -43.4,11.35 C 239.9,42.4 253,53.19 268.79,60.69 Z"
         id="path11718" /><path
         class="cls-3"
         d="m 132.21,183.16 -3,-0.64 q -2.13,5.43 -4.09,10.95 a 25.39,25.39 0 0 1 3.5,2.52 z"
         id="path11720" /><path
         class="cls-3"
         d="m 28,324.13 -4.2,-4.69 -0.51,-14 c 0,0 14,-1.53 15.86,-6.48 0,0 -5.44,-11.68 8.6,-6.23 0,0 6.74,-2.84 1,-6.5 0,0 -15.61,-8.29 -1.56,-17.65 0,0 8.83,-4.17 11.94,-7.25 l 1.55,-12.5 3.13,-1 0.52,-16.64 c 0,0 -11.44,-6.76 2.1,-11.42 0,0 6.21,-10.41 36.87,-11.94 a 28.58,28.58 0 0 1 7.27,-5.48 q 3.6,-11.26 7.8,-22.17 l -1.51,-0.35 c -31,-7.25 -48.44,-13.94 -57,-17.8 a 323.62,323.62 0 0 0 -24.71,47 320.21,320.21 0 0 0 -25.57,124.8 h 16.6 z"
         id="path11722" /><path
         class="cls-3"
         d="m 139.29,159 c -2,4.33 -4,8.74 -5.88,13.19 2.82,0.59 5.73,1.19 8.76,1.79 6.61,-5.5 15.79,-12.18 25.19,-16 17.94,-7.24 21.49,-7.24 39.44,-21.68 17.95,-14.44 10.75,-10.8 21.52,-28.84 10.77,-18.04 -7.19,7.24 10.73,-18 A 104.55,104.55 0 0 1 259.59,68.25 103.85,103.85 0 0 1 230.51,45.9 C 193.48,72 162.06,110.91 139.29,159 Z"
         id="path11724" /><path
         class="cls-3"
         d="m 122.52,169.81 c 2.19,-5.23 4.45,-10.41 6.86,-15.5 23.47,-49.57 55.93,-89.81 94.27,-117 q -1.86,-2.62 -3.56,-5.42 c -3.89,1.47 -7.77,3 -11.62,4.61 A 326.77,326.77 0 0 0 66,152.66 c 8.9,3.84 25.7,10 53.89,16.55 z"
         id="path11726" /><path
         class="cls-4"
         d="m 237.17,479.81 q 1.1,4.8 2.28,9.57 c 10.72,43.26 26.13,82.1 44.69,112.83 a 173.4,173.4 0 0 1 45.64,-7 V 474.56 c -34.24,0.69 -65.12,2.61 -92.61,5.25 z"
         id="path11728" /><path
         class="cls-4"
         d="m 131.54,495.75 c 23.55,57.53 59.69,105.09 104.64,134.71 10.24,-10.94 23.14,-19 37.36,-24.59 -20.61,-34.66 -36.68,-77.35 -47.45,-124.95 a 900,900 0 0 0 -94.55,14.83 z"
         id="path11730" /><path
         class="cls-4"
         d="m 274.9,31.82 c 3.62,10.82 -10.71,7.2 -3.55,18 2.74,4.15 1.28,7.23 -2.56,10.87 17.51,8.3 38.34,12.58 61,13.08 V 11.12 a 329.94,329.94 0 0 0 -55.72,5.65 33.14,33.14 0 0 0 0.83,15.05 z"
         id="path11732" /><path
         class="cls-4"
         d="m 91.87,487.81 c 0,0 0,-14 -12,-12.49 0,0 -8.82,2.62 -18.13,-8.85 0,0 -8.89,-4.17 -11,8.85 0,0 -2.92,1.1 -4.87,0.59 l -2.07,4 q 6.47,12.86 14,25.05 c 6.79,-2.64 18.89,-6.84 38.37,-12 a 41.26,41.26 0 0 1 -4.3,-5.15 z"
         id="path11734" /><path
         class="cls-4"
         d="M 329.78,192.7 V 84.75 a 173.39,173.39 0 0 1 -51.06,-8.36 c -17.48,31.47 -31.36,69.37 -41.09,111.2 27.37,2.56 58.03,4.41 92.15,5.11 z"
         id="path11736" /><path
         class="cls-4"
         d="m 239.05,89.48 c -17.92,25.27 0,0 -10.73,18 -10.73,18 -3.61,14.43 -21.52,28.84 -17.91,14.41 -21.5,14.47 -39.44,21.68 -9.4,3.78 -18.58,10.46 -25.19,16 22.58,4.49 50.74,9 84.46,12.51 9.83,-42.78 23.94,-81.64 41.73,-114.06 -3,-1.29 -5.93,-2.67 -8.77,-4.17 a 104.55,104.55 0 0 0 -20.54,21.2 z"
         id="path11738" /><path
         class="cls-4"
         d="m 240.54,248.27 4.08,-8.32 c 0,0 0.52,-7.25 25,16.07 l 8.83,0.58 2.11,6.27 14,2 c 0,0 4.16,3.63 -15.05,2.58 l 1.07,8.3 c 0,0 10.4,4.17 15.05,11 l 1,20.68 c 0,0 -7.27,-1.5 -11.4,10.45 l -0.51,10.87 c 0,0 -1.16,1.91 -3.37,5 h 48.48 V 203.68 c -35,-0.69 -66.57,-2.63 -94.55,-5.29 -3.41,16.06 -6.21,32.67 -8.38,49.66 z"
         id="path11740" /><path
         class="cls-4"
         d="m 131,521.51 q -5.53,-11.4 -10.33,-23.32 l -1.77,0.41 C 90.32,505.33 73.13,511 64,514.38 a 326.51,326.51 0 0 0 144.47,119.11 q 9.6,4 19.38,7.42 c 0.44,-0.64 0.87,-1.29 1.32,-1.92 C 189.33,612.46 155.51,572 131,521.51 Z"
         id="path11742" /><path
         class="cls-4"
         d="m 205.7,389.06 a 206.6,206.6 0 0 0 -41.61,19.26 c 0,0 -17.19,13 -18.15,15.59 l -1.58,16.63 c 0,0 -3.63,9.88 -8.85,10.89 0,0 1.62,14.56 -3.08,15 0,0 9.4,13.69 -5.9,16.35 0.31,0.86 0.63,1.72 1,2.58 a 905.41,905.41 0 0 1 96.29,-15.26 650.62,650.62 0 0 1 -11.4,-82.75 c -2.24,0.65 -4.42,1.25 -6.72,1.71 z"
         id="path11744" /><path
         class="cls-4"
         d="m 272.81,344.8 c -10.53,12.54 -27.66,29.38 -49.72,38.79 A 630.61,630.61 0 0 0 234.81,469 c 28.14,-2.73 59.81,-4.72 95,-5.42 V 344.8 Z"
         id="path11746" /><path
         class="cls-4"
         d="m 132.21,183.16 -3.6,12.84 a 29.4,29.4 0 0 1 5.37,6 c 0,0 9.85,3.12 10.88,8.3 0,0 13,2.07 18.71,12.49 0,0 7.81,2.05 8.34,-0.55 0,0 0.52,-6.73 14.56,8.86 l 2.61,10.38 17.11,1.52 1.53,4.73 8.09,0.12 c 2.18,-17.3 5,-34.21 8.46,-50.59 a 920,920 0 0 1 -92.06,-14.1 z"
         id="path11748" /><path
         class="cls-4"
         d="m 238.71,644.48 a 326,326 0 0 0 91.07,14.41 v -52.66 c -34.6,0.77 -71.04,10.91 -91.07,38.25 z"
         id="path11750" /><path
         class="cls-5"
         d="m 90.18,332.84 a 441.12,441.12 0 0 1 20.39,-130.56 28.58,28.58 0 0 0 -7.27,5.48 c -30.66,1.53 -36.87,11.94 -36.87,11.94 -13.54,4.66 -2.1,11.42 -2.1,11.42 l -0.52,16.64 -3.13,1 -1.55,12.5 c -3.11,3.08 -11.94,7.25 -11.94,7.25 -14,9.36 1.56,17.65 1.56,17.65 5.73,3.66 -1,6.5 -1,6.5 -14,-5.45 -8.6,6.23 -8.6,6.23 -1.82,4.95 -15.86,6.48 -15.86,6.48 l 0.51,14 4.2,4.69 -1.81,9.7 H 89.9 Z"
         id="path11752" /><path
         class="cls-5"
         d="m 90.24,344.8 h -65.4 v 0.07 C 32.65,348 29,360.5 29,360.5 l -6.78,2.09 C 15,376.1 29,375.07 29,375.07 c 2.56,4.71 14,12.42 14,12.42 h 11.48 v -3.62 l 5.15,-2.58 0.58,-4.15 2.06,-2.07 V 372 l 1.81,-7 4.92,13.65 3.18,-22.31 3.62,-1 v 3.63 l -2,3.65 0.44,10.38 q 1,2.58 2.06,5.16 l 3,0.26 a 9,9 0 0 1 1,1.34 c 1.63,2.66 1.77,6.29 0.33,8.1 a 4.4,4.4 0 0 1 -0.89,0.83 4.69,4.69 0 0 1 -2.54,0.68 6.61,6.61 0 0 1 -1.27,-0.07 8.76,8.76 0 0 1 -1.51,-0.39 l -1.79,0.15 0.1,2.07 c 0.13,2.87 0.15,3.21 0.15,3.25 0.07,1.38 1.52,4.88 7.14,13.84 l -4.59,6.45 -5.59,2.12 -2.43,-2.93 -4.13,0.68 c -0.52,10.9 -5.71,11.44 -5.71,11.44 -8.32,1 0,13 0,13 L 56,450.93 49.82,453 c -11.47,-5.72 -7.29,3.13 -7.29,3.13 3.6,2 5.21,9.34 5.21,9.34 -4.85,7.54 -3.86,9.91 -1.78,10.45 2.08,0.54 4.87,-0.59 4.87,-0.59 2.06,-13 11,-8.85 11,-8.85 9.31,11.47 18.13,8.85 18.13,8.85 12,-1.53 12,12.49 12,12.49 a 41.26,41.26 0 0 0 4.41,5.12 c 5.83,-1.54 12.32,-3.18 19.53,-4.89 l 0.82,-0.19 C 100.17,443.58 91.17,394.89 90.24,344.8 Z"
         id="path11754" /><path
         class="cls-5"
         d="m 101.2,344.8 c 0.93,48.86 9.83,95.84 25.33,138 15.3,-2.66 5.9,-16.35 5.9,-16.35 4.7,-0.48 3.08,-15 3.08,-15 5.22,-1 8.85,-10.89 8.85,-10.89 l 1.58,-16.63 c 1,-2.6 18.15,-15.59 18.15,-15.59 a 206.6,206.6 0 0 1 41.61,-19.26 c 2.27,-0.46 4.48,-1 6.67,-1.67 q -1.55,-21 -1.87,-42.59 z"
         id="path11756" /><path
         class="cls-5"
         d="m 272.81,344.8 h -51.33 q 0.27,19.62 1.61,38.79 c 22.06,-9.41 39.19,-26.25 49.72,-38.79 z"
         id="path11758" /><path
         class="cls-5"
         d="m 207.72,247.76 -1.53,-4.76 -17.11,-1.53 -2.61,-10.38 c -14,-15.59 -14.56,-8.86 -14.56,-8.86 -0.53,2.6 -8.34,0.55 -8.34,0.55 -5.69,-10.42 -18.71,-12.49 -18.71,-12.49 -1,-5.18 -10.88,-8.3 -10.88,-8.3 a 29.4,29.4 0 0 0 -5.37,-6 25.39,25.39 0 0 0 -3.5,-2.52 415.2,415.2 0 0 0 -20.7,88.67 446.6,446.6 0 0 0 -3.27,51.69 h 109.29 a 698.17,698.17 0 0 1 5.38,-85.95 z"
         id="path11760" /><path
         class="cls-5"
         d="m 284.67,328.79 0.51,-10.87 c 4.13,-11.95 11.4,-10.45 11.4,-10.45 l -1,-20.68 c -4.65,-6.83 -15.05,-11 -15.05,-11 l -1.07,-8.3 c 19.21,1.05 15.05,-2.58 15.05,-2.58 l -14,-2 -2.11,-6.27 -8.83,-0.58 c -24.44,-23.32 -25,-16.07 -25,-16.07 l -4.08,8.32 -13.69,-0.22 a 686.7,686.7 0 0 0 -5.44,85.78 h 59.94 c 2.21,-3.17 3.37,-5.08 3.37,-5.08 z"
         id="path11762" /><path
         class="cls-6"
         d="m 594.49,330.7 c -6.35,14.27 -9.5,9.46 -9.5,9.46 l -1.58,-23.72 -20.58,-25.34 -1.61,-23.78 a 66.34,66.34 0 0 0 12.52,-25.09 65.11,65.11 0 0 0 1.77,-11 63.16,63.16 0 0 0 -3.17,-25.71 c -12.69,-1.57 -14.27,-4.76 -14.27,-4.76 v -9.52 c -14.27,-22.17 -26.92,3.18 -26.92,3.18 L 515.23,196 c -9.4,31.84 -38.11,13.67 -52.2,2.28 -4.85,-3.92 -8,-7 -8,-7 l -31.68,15.88 c -39.63,12.66 -23.78,-14.27 -23.78,-14.27 l -6.24,-13.8 c -15.12,15.2 -26.91,38.76 -26.91,38.76 l -1.73,21.93 -1.5,16.47 c -5.22,23.9 -3.2,82.39 -3.2,82.39 -4.77,12.68 7.92,39.63 7.92,39.63 -4.72,22.12 9.48,14.28 9.48,14.28 l 23.8,-17.46 c 15.86,3.18 1.59,17.46 1.59,17.46 -20.6,23.73 4.75,26.85 4.75,26.85 14.23,0 6.32,-22.11 6.32,-22.11 9.86,23.41 39.89,15.14 52.7,10.33 -15.6,8.27 -19.43,26.09 -19.43,26.09 2.21,2.95 11.64,3.83 21.08,3.93 10.84,0.12 21.71,-0.8 21.71,-0.8 3.15,-7.91 19,-9.48 19,-9.48 9.5,-9.52 -9.48,-23.77 -9.48,-23.77 -14.3,-7.88 -15.88,-23.74 -15.88,-23.74 7.94,15.86 39.64,30.12 39.64,30.12 v 20.54 c -8,3.2 -1.63,39.61 -1.63,39.61 6.67,21.31 23.42,9 28.6,4.57 l -35,31.86 v 12.74 c 63.41,0 61.84,-38 61.84,-38 v -36.53 c 15.83,-4.74 11.07,-38 11.07,-38 17.47,17.38 19,3.18 20.61,-1.63 1.61,-4.81 12.7,-18.95 12.7,-18.95 19,-44.4 6.34,-57.11 6.34,-57.11 -22.18,-12.64 -14.3,11.08 -14.3,11.08 4.81,19 -7.88,33.29 -7.88,33.29 l -4.79,-6.27 c 17.48,-17.49 0,-28.56 0,-28.56 6.35,-14.24 17.48,-25.34 17.48,-25.34 14.23,-11.12 25.3,7.91 25.3,7.91 l 1.6,-14.31 C 608.75,280 594.49,330.7 594.49,330.7 Z m -164.75,-1.61 -4.76,19 c 0,0 -7.9,0 -14.29,-20.57 h -25.32 c 0,0 -28.54,9.5 -9.49,-9.54 v -6.28 l -11.13,-1.58 v -26.94 l 3.19,-12.71 3.14,-30.13 c 0,0 4.8,19.06 11.13,23.81 0,0 6.28,7.9 -6.33,7.9 0,0 1.54,23.83 12.61,23.83 l 36.51,4.68 c 0,0 15.82,15.88 4.74,28.53 z m 101.42,3.19 c 4.7,14.25 -6.41,4.77 -6.41,4.77 -3.15,-9.5 -12.65,-6.35 -12.65,-6.35 -7.9,7.92 -25.33,1.58 -25.33,1.58 h -12.68 a 19.28,19.28 0 0 1 -8.21,-3 c -11.81,-7.4 -20.28,-25.5 -20.28,-25.5 2.42,3.39 10.21,5 19.84,5.59 21.78,1.35 53,-2.46 53,-2.46 9.54,12.72 23.76,22.21 23.76,22.21 z"
         id="path11764" /><path
         class="cls-6"
         d="m 497.83,443.19 c 0,0 -14,-2 -29.55,-3.37 -20.59,-1.77 -43.77,-2.27 -40.16,4.94 0,0 -3.15,7.95 23.79,7.95 0,0 -12.63,6.31 -7.92,11.07 0,0 -20.61,6.32 -23.76,-4.76 0,0 -7.93,-36.4 -23.77,-6.31 0,0 6.35,12.67 12.65,17.39 l 1.58,12.69 c 0,0 6.39,15.82 50.75,22.18 a 46.88,46.88 0 0 0 8.28,1 c 12.09,0.57 34.36,-2.22 45.51,-28 0,0.03 1.62,-23.69 -17.4,-34.78 z"
         id="path11766" /><polygon
         class="cls-2"
         points="70.58,402.58 70.58,402.62 70.59,402.57 "
         id="polygon11784" /><path
         class="cls-2"
         d="m 388.49,295.88 c -11.07,0 -12.61,-23.83 -12.61,-23.83 12.61,0 6.33,-7.9 6.33,-7.9 -6.33,-4.75 -11.13,-23.81 -11.13,-23.81 l -3.14,30.13 -3.19,12.71 v 26.94 l 11.13,1.58 v 6.3 c -19.05,19 9.49,9.54 9.49,9.54 h 25.32 c 6.39,20.57 14.29,20.57 14.29,20.57 l 4.76,-19 c 11.08,-12.65 -4.76,-28.53 -4.76,-28.53 z"
         id="path11786" /><path
         class="cls-2"
         d="m 518.44,306.88 c 0,0 -31.22,3.81 -53,2.46 -9.63,-0.6 -17.42,-2.2 -19.84,-5.59 0,0 8.47,18.1 20.28,25.5 a 19.28,19.28 0 0 0 8.21,3 h 12.68 c 0,0 17.43,6.34 25.33,-1.58 0,0 9.5,-3.15 12.65,6.35 0,0 11.11,9.48 6.41,-4.77 l 11,-3.19 c 0,0 -14.16,-9.46 -23.72,-22.18 z"
         id="path11788" /><path
         class="cls-2"
         d="M 549.83,78.21 C 489.91954,27.842499 414.19956,0.15638562 335.93,0 H 334.8 C 291.82548,-0.04772951 249.24605,8.2033089 209.4,24.3 86.63,73.93 0,194.24 0,334.8 c 0,184.9 149.89,334.79 334.8,334.79 47.22095,0.0647 93.91742,-9.89833 137,-29.23 9.81658,-4.38727 9.58845,-4.26213 22.2,-11 104.58,-56.63 175.6,-167.32 175.6,-294.59 0.0142,-31.31258 -4.36168,-62.47253 -13,-92.57 -1.98487,-6.5773 -2.02583,-6.53341 -3.34,-11 -17.72109,-54.3423 -49.04717,-103.24885 -91,-142.07 -6.01731,-5.549279 -5.95593,-5.528472 -12.43,-10.92 z M 210.43,333.83 H 101.14 c 0.0891,-17.27875 1.18097,-34.53777 3.27,-51.69 3.62842,-30.22617 10.57015,-59.96159 20.7,-88.67 1.33333,-3.68 2.69667,-7.33 4.09,-10.95 l 3,0.64 c 30.42842,6.26129 61.15445,10.97733 92.06,14.13 -3.44,16.38 -6.28,33.29 -8.46,50.59 -3.55693,28.5122 -5.35034,57.21679 -5.37,85.95 z m 13.34,136.31 c -32.34743,3.35369 -64.49068,8.44774 -96.29,15.26 -0.32,-0.86 -0.64,-1.72 -1,-2.58 -15.5,-42.18 -24.4,-89.16 -25.33,-138 H 210.5 c 0.2,14.37333 0.82333,28.57 1.87,42.59 2.02442,27.79234 5.83226,55.42592 11.4,82.73 z M 142.17,174 c -3,-0.6 -5.94,-1.2 -8.76,-1.79 1.89,-4.45 3.83,-8.86 5.88,-13.19 22.77,-48.1 54.19,-87 91.22,-113.09 8.2906,9.116245 18.13746,16.684245 29.08,22.35 2.84,1.5 5.77,2.88 8.77,4.17 -17.79,32.42 -31.9,71.28 -41.73,114.06 C 192.91,183 164.75,178.48 142.17,174 Z m -37.23,-68 c 29.6969,-29.631376 64.85514,-53.226415 103.53,-69.48 3.85,-1.62 7.73,-3.14 11.62,-4.61 1.12667,1.86 2.31333,3.666667 3.56,5.42 -38.34,27.17 -70.8,67.41 -94.27,117 -2.41,5.09 -4.67,10.27 -6.86,15.5 l -2.62,-0.6 C 91.71,162.66 74.9,156.52 66.01,152.68 77.501238,135.93902 90.534793,120.3108 104.94,106 Z M 35.15,209 c 6.935293,-16.3171 15.199772,-32.03666 24.71,-47 8.56,3.86 26,10.55 57,17.8 l 1.51,0.35 c -2.8,7.26667 -5.4,14.65667 -7.8,22.17 -13.309581,42.23655 -20.183307,86.2365 -20.39,130.52 l -0.28,1 H 9.58 c 0.063963,-42.92976 8.759646,-85.40835 25.57,-124.91 z m 8.74,271 C 40.79,473.84 37.876667,467.57 35.15,461.19 19.461532,424.32793 10.838616,384.84637 9.73,344.8 h 80.51 c 0.93,50.09 9.93,98.78 26.39,143.05 l -0.82,0.19 c -7.21,1.71 -13.7,3.35 -19.53,4.89 -19.48,5.17 -31.58,9.37 -38.37,12 -5.04,-8.12 -9.713333,-16.46667 -14.02,-25.04 z m 184,161 c -6.50667,-2.26667 -12.96667,-4.74 -19.38,-7.42 C 149.73126,608.81442 99.493278,567.3753 64,514.38 c 9.13,-3.41 26.32,-9.05 54.87,-15.78 l 1.77,-0.41 c 3.20667,7.93333 6.65,15.70667 10.33,23.32 24.54,50.52 58.36,91 98.2,117.48 -0.45,0.63 -0.88,1.28 -1.32,1.92 z M 131.54,495.75 c 31.23134,-6.61676 62.79262,-11.56709 94.55,-14.83 10.77,47.6 26.84,90.29 47.45,125 -14.22,5.6 -27.12,13.65 -37.36,24.59 -44.95,-29.67 -81.09,-77.23 -104.64,-134.76 z m 198.24,133.79 v 29.35 c -30.88606,-0.46449 -61.54934,-5.31634 -91.07,-14.41 20,-27.34 56.47,-37.44 91.07,-38.25 z m 0,-34.28 c -15.45736,0.28831 -30.80675,2.64251 -45.64,7 -18.56,-30.73 -34,-69.57 -44.69,-112.83 -0.79333,-3.18 -1.55333,-6.37 -2.28,-9.57 27.49,-2.64 58.37,-4.56 92.61,-5.25 z m 0,-131.67 c -35.16,0.7 -66.83,2.69 -95,5.42 -5.85088,-28.17261 -9.7667,-56.71263 -11.72,-85.42 -0.89333,-12.78 -1.43,-25.71 -1.61,-38.79 h 108.3 z m 0,-129.76 H 221.41 c 0.0203,-28.67888 1.83722,-57.32832 5.44,-85.78 2.17,-17 5,-33.6 8.38,-49.66 28,2.66 59.5,4.6 94.55,5.29 z m 0,-141.13 c -34.12,-0.67 -64.83,-2.55 -92.15,-5.11 9.73,-41.83 23.61,-79.73 41.09,-111.2 16.5061,5.324673 33.71768,8.142707 51.06,8.36 z m 0,-118.93 C 307.13,73.27 286.3,68.99 268.78,60.69 253,53.19 239.9,42.4 230.66,28.12 c 14.18731,-4.780658 28.68867,-8.573064 43.4,-11.35 18.37963,-3.459145 37.0201,-5.349286 55.72,-5.65 z M 469.72,506 c -2.78423,-0.0867 -5.55519,-0.42133 -8.28,-1 -44.36,-6.36 -50.75,-22.18 -50.75,-22.18 l -1.58,-12.69 c -6.3,-4.72 -12.65,-17.39 -12.65,-17.39 15.84,-30.09 23.77,6.31 23.77,6.31 3.15,11.08 23.76,4.76 23.76,4.76 -4.71,-4.76 7.92,-11.07 7.92,-11.07 -26.94,0 -23.79,-7.95 -23.79,-7.95 -3.61,-7.21 19.57,-6.71 40.16,-4.94 15.51,1.33 29.55,3.37 29.55,3.37 19,11.09 17.4,34.84 17.4,34.84 -11.15,25.73 -33.42,28.52 -45.51,27.94 z M 572.34,205.54 c 2.82166,8.25893 3.90103,17.01303 3.17,25.71 -0.27462,3.7105 -0.86679,7.39064 -1.77,11 -2.33799,9.15986 -6.60666,17.71425 -12.52,25.09 l 1.61,23.78 20.58,25.34 1.59,23.7 c 0,0 3.15,4.81 9.5,-9.46 0,0 14.26,-50.7 50.71,-23.82 l -1.6,14.31 c 0,0 -11.07,-19 -25.3,-7.91 0,0 -11.13,11.1 -17.48,25.34 0,0 17.48,11.07 0,28.56 l 4.79,6.27 c 0,0 12.69,-14.27 7.88,-33.29 0,0 -7.88,-23.72 14.3,-11.08 0,0 12.67,12.71 -6.34,57.11 0,0 -11.09,14.18 -12.7,18.95 -1.61,4.77 -3.14,19 -20.61,1.63 0,0 4.76,33.25 -11.07,38 v 36.46 c 0,0 1.57,38 -61.84,38 v -12.7 l 35,-31.86 c -5.18,4.46 -21.93,16.74 -28.6,-4.57 0,0 -6.36,-36.41 1.63,-39.61 V 410 c 0,0 -31.7,-14.26 -39.64,-30.12 0,0 1.58,15.86 15.88,23.74 0,0 19,14.25 9.48,23.77 0,0 -15.85,1.57 -19,9.48 0,0 -10.87,0.92 -21.71,0.8 -9.44,-0.1 -18.87,-1 -21.08,-3.93 0,0 3.83,-17.82 19.43,-26.09 -12.81,4.81 -42.84,13.08 -52.7,-10.33 0,0 7.91,22.11 -6.32,22.11 0,0 -25.35,-3.12 -4.75,-26.85 0,0 14.27,-14.28 -1.59,-17.46 l -23.8,17.46 c 0,0 -14.2,7.84 -9.48,-14.28 0,0 -12.69,-26.95 -7.92,-39.63 0,0 -2,-58.49 3.2,-82.39 l 1.5,-16.47 1.73,-21.93 c 0,0 11.79,-23.56 26.91,-38.76 l 6.24,13.8 c 0,0 -15.85,26.93 23.78,14.27 l 31.68,-15.88 c 0,0 3.12,3.12 8,7 14.09,11.39 42.8,29.56 52.2,-2.28 l 15.92,-1.58 c 0,0 12.65,-25.35 26.92,-3.18 v 9.52 c 0,0 1.5,3.21 14.19,4.75 z"
         id="path11790"
         sodipodi:nodetypes="ccccscccccccccccccccccccccccccccccccccccccccccccccccccccccccccccccccccccccccccccccccccccccccccccccccccccccccccccccccccccccccccccccccccccccccccccscccccccccccccccccccccccccccccccccccc" /></g></g></svg>
