<svg xmlns="http://www.w3.org/2000/svg"
	viewBox="0 0 64 64"
	fill="currentColor">
	<defs>
		<style>
			.a{fill:#fff;}</style>

	</defs>
	<title>
		correo</title>
	<g id="_x34_hS7zV.tif">
		<g>
			<path class="st0"
				d="M64,47.25c-0.07,0.28-0.14,0.55-0.2,0.83c-1.01,4.55-4.73,7.51-9.52,7.52c-8.17,0.02-16.33,0-24.5,0
			c-6.69,0-13.37,0-20.06,0c-4.75,0-8.52-2.98-9.5-7.53c-0.14-0.65-0.2-1.32-0.2-1.98C0,38.11,0,30.13,0,22.15c0-0.1,0-0.21,0-0.43
			c0.27,0.15,0.47,0.27,0.67,0.39c9.61,5.86,19.24,11.71,28.83,17.59c1.72,1.06,3.29,1.04,5.01-0.01
			c9.65-5.92,19.33-11.8,28.99-17.69c0.16-0.1,0.33-0.17,0.49-0.26C64,30.25,64,38.75,64,47.25z" />
			<path class="st0"
				d="M0.3,15.79c0.64-3.64,4.14-6.88,7.82-7.29c0.64-0.07,1.29-0.11,1.93-0.11c14.75,0,29.49,0,44.24,0
			c4.37,0,8.04,2.68,9.28,6.73c0.15,0.5,0.06,0.75-0.4,1.03c-10.2,6.21-20.39,12.44-30.58,18.68c-0.42,0.26-0.72,0.29-1.16,0.02
			C21.25,28.6,11.05,22.38,0.86,16.15C0.67,16.03,0.48,15.91,0.3,15.79z" />
		</g>
	</g>
</svg>