<svg xmlns="http://www.w3.org/2000/svg" viewBox="0 0 128 128">
    <defs>
        <style>
            .a{fill:#fff;}</style>
    </defs>
    <title>
        facebook</title>
    <path class="a"
        d="M74.89,126.38h-25V70.29H31.18v-25H49.86v-1c0-5-.09-9.9,0-14.85A29.31,29.31,0,0,1,55.39,12.3,25.7,25.7,0,0,1,69.68,2.83,36.17,36.17,0,0,1,79,1.62c5.47,0,10.91.25,16.35.76.27,0,.53.06.84.1V22.26c-.24,0-.47,0-.71,0-3.65,0-7.31,0-11,0a22.44,22.44,0,0,0-3.92.38c-3.58.71-5.33,2.59-5.54,6.23-.21,3.43-.15,6.87-.19,10.31,0,2,0,3.94,0,6h22c-.12,1.13-.22,2.16-.33,3.19Q95.4,58,94.31,67.53c-.08.68-.22,1.35-.25,2,0,.53-.19.7-.73.7-2.88,0-5.76,0-8.63,0H74.89Z" />
</svg>