<svg xmlns="http://www.w3.org/2000/svg"
	viewBox="0 0 64 64">
	<defs>
		<style>
			.a{fill:#fff;}</style>

	</defs>
	<title>
		login</title>
	<g>
		<path class="st0"
			d="M62.51,22.35C58.32,9.04,45.82-0.17,31.52,0.02C17.62,0.19,5.23,9.54,1.3,22.95
		C-0.5,29.12-0.33,35.2,1.2,40.63c1.61-3.43,4.72-6.04,8.53-6.95c0.5-0.12,1-0.22,1.5-0.32c0.15-0.03,0.3-0.05,0.45-0.05h2
		c0.19,0,0.39,0.03,0.57,0.09c0.03,0.01,0.07,0.02,0.1,0.02c3.39,0.45,6.26,2.16,8.24,4.58c0.56-0.27,1.14-0.52,1.73-0.75
		c-2.61-1.68-4.53-3.86-5.75-6.64c-1.22-2.78-1.53-5.68-0.97-8.66c0.56-2.99,1.93-5.56,4.08-7.71c5.8-5.78,15.27-5.7,20.82,0.16
		c2.84,3,4.28,6.57,4.15,10.68c-0.17,5.22-2.6,9.22-6.9,12.14c8,3.42,12.73,9.39,14.13,17.99C61.9,47.99,66.57,35.24,62.51,22.35z"
		/>
		<path class="st0"
			d="M24.46,41.11c0.93,2.21,1.24,4.72,0.76,7.28c-1.01,5.43-5.49,9.6-10.81,10.28c5.33,3.47,11.18,5.22,17.57,5.31
		c1.36-0.11,2.73-0.16,4.08-0.33c5.1-0.63,9.77-2.43,14.02-5.32c0.2-0.14,0.27-0.29,0.26-0.53c-0.09-4.58-1.61-8.6-4.6-12.08
		C40.56,39.68,31.61,37.77,24.46,41.11z" />
		<path class="st0"
			d="M42.99,24.69c0.02-6.06-4.92-11.02-10.98-11.03c-6.05-0.01-10.98,4.92-11,10.97
		C21,30.8,25.87,35.77,31.95,35.79C38.07,35.81,42.97,30.88,42.99,24.69z" />
		<path class="st0"
			d="M18.59,47.62c0.72-0.72,0.83-1.8,0.35-2.64c-0.09-0.16-0.21-0.32-0.35-0.46c-0.72-0.72-1.44-1.44-2.16-2.16
		c-1.34-1.34-2.69-2.69-4.04-4.03c-0.86-0.86-2.24-0.85-3.1,0c-0.01,0.01-0.02,0.02-0.03,0.03c-0.86,0.86-0.86,2.25,0.01,3.11
		c1,1,2.02,2,3.05,3.03c0.86,0.86,0.86,2.25,0,3.11c-1.02,1.01-2.01,2-2.98,2.97c-0.86,0.86-0.86,2.25,0,3.1
		c0.01,0.01,0.03,0.03,0.04,0.04c0.27,0.27,0.58,0.45,0.92,0.55c0.75,0.22,1.59,0.04,2.18-0.55c0.79-0.79,1.59-1.59,2.38-2.38
		C16.11,50.1,17.36,48.86,18.59,47.62z" />
	</g>
</svg>