<svg xmlns="http://www.w3.org/2000/svg" viewBox="0 0 128 128"><defs><style>.a{fill:#fff;}</style></defs><title>instagram</title><path class="a" d="M98.38,22.26h.1a7.63,7.63,0,0,1,7.6,7.71,7.76,7.76,0,0,1-7.77,7.66,7.69,7.69,0,0,1,.07-15.37Z"/><path class="a" d="M127.24,32.13c1,10.08,1.57,57.69-1.39,68.84-4,14.6-13.5,23.24-28.27,25.6-5.52.89-20.43,1.43-35.32,1.43-15.24,0-30.46-.56-35.57-1.89C12.17,122.36,3.5,112.9,1.2,98.19-.52,87.4-.7,37.22,2.41,26.32,6.48,12.13,16,3.81,30.31,1.44,36.82.37,49.55,0,62.4,0c11.94,0,24,.32,31.26.72,8.78.46,16.83,3.29,23.37,9.56C123.25,16.25,126.43,23.7,127.24,32.13Zm-12.31,64c1.84-11.26,1.84-52.34.79-62.88-1.15-11.26-8-18.66-19.17-20.41-5.52-.83-18.8-1.21-32-1.21-12.75,0-25.44.35-31,1-11.17,1.28-18.67,8.17-20.46,19.27-1.83,11.78-1.81,55.78-.44,64.63,1.42,9.2,6.62,15.52,15.8,18.09,5,1.39,19.85,1.89,34.43,1.89,13.43,0,26.62-.42,31.58-1,11.26-1.23,18.72-8.18,20.5-19.38"/><path class="a" d="M64.27,31.21A32.53,32.53,0,0,1,96.82,64.06a33.14,33.14,0,0,1-33.1,32.8A32.5,32.5,0,0,1,31.17,64,33.08,33.08,0,0,1,64.27,31.21Zm-.47,54a21.43,21.43,0,0,0,21.4-21A21,21,0,0,0,64.34,42.77h-.19a21.44,21.44,0,0,0-21.41,21A21,21,0,0,0,63.6,85.24h.2"/></svg>