<svg xmlns="http://www.w3.org/2000/svg" viewBox="0 0 128 128"><defs><style>.a{fill:#fff;}</style></defs><title>ius</title><path class="a" d="M0,49.34l.39,0H20c.51,0,.45-.06.45.46v28.3a13.87,13.87,0,0,0,.88,5.1,8.71,8.71,0,0,0,7,5.68l.85.14v10c0,.35,0,.35-.36.31-1.32-.13-2.66-.21-4-.42a19.46,19.46,0,0,1-9.56-4.15,17.22,17.22,0,0,1-5.17-7.64A23.69,23.69,0,0,1,8.8,81c-.09-1.21-.14-2.43-.15-3.65q0-11.31,0-22.61v-.43H0Z"/><path class="a" d="M60.84,26.76c0,.12,0,.24,0,.36q0,4.81,0,9.65c0,.3-.08.39-.39.43a8.77,8.77,0,0,0-7.7,6.68,14.09,14.09,0,0,0-.55,4q0,6,0,12v.37H40.26v-.32c0-4.21,0-8.43,0-12.65a23.21,23.21,0,0,1,2.59-10.83,17.36,17.36,0,0,1,10.93-8.72,24.27,24.27,0,0,1,5.56-.9,1.77,1.77,0,0,0,.32,0Z"/><path class="a" d="M40.26,62.78H52.17v.31c0,5.36,0,10.71,0,16.07A22.73,22.73,0,0,1,49.6,89.72a17.25,17.25,0,0,1-10.12,8.49,22.91,22.91,0,0,1-5.8,1.12c-.57,0-1.14.06-1.71.09h-.3V89.08c.64-.14,1.29-.24,1.91-.42a8.59,8.59,0,0,0,6-5.81,14.36,14.36,0,0,0,.73-4.74V62.78Z"/><path class="a" d="M7.24,39.09a7.34,7.34,0,1,1,7.33,7.36A7.32,7.32,0,0,1,7.24,39.09Z"/><path class="a" d="M84.74,89.47V82.32H89V83H85.44v2.42h2.65V86H85.44v2.83h3.77v.63Z"/><path class="a" d="M71.35,97.55l.62-.23c0,.1.09.2.13.3a2.21,2.21,0,0,0,3.18.88,1.17,1.17,0,0,0,0-2A7.34,7.34,0,0,0,74,96c-.41-.17-.84-.29-1.24-.47a1.65,1.65,0,0,1-1.15-1.79,1.84,1.84,0,0,1,1.32-1.56,2.64,2.64,0,0,1,3.19,1.09c.07.12.12.26.19.41l-.58.29c-.06-.12-.11-.22-.17-.32a2,2,0,0,0-2.74-.72,1.06,1.06,0,0,0,0,1.84,14.4,14.4,0,0,0,1.57.65,10.47,10.47,0,0,1,1.36.62A1.79,1.79,0,0,1,76,98.78a2.93,2.93,0,0,1-4.4-.72C71.48,97.9,71.43,97.74,71.35,97.55Z"/><path class="a" d="M71.37,77.89l.59-.22c.07.14.13.28.2.41a2.22,2.22,0,0,0,3.14.75,1.17,1.17,0,0,0,0-2,10.34,10.34,0,0,0-1.41-.61c-.44-.18-.89-.33-1.31-.53a1.72,1.72,0,0,1-.09-3,2.67,2.67,0,0,1,3.74,1c0,.08.07.17.11.27l-.57.28c0-.09-.09-.16-.12-.23a2,2,0,0,0-2.68-.87,1.06,1.06,0,0,0-.63.94,1,1,0,0,0,.56,1c.51.24,1.06.42,1.59.63a9.64,9.64,0,0,1,1.18.53,1.79,1.79,0,0,1,.07,3A2.87,2.87,0,0,1,71.39,78S71.38,78,71.37,77.89Z"/><path class="a" d="M93.63,88.89a6,6,0,0,1-1.11.6A2,2,0,0,1,90,88.15a3.93,3.93,0,0,1,0-2.4,2.06,2.06,0,0,1,3.36-1l.27.22V82.33h.69v6c0,.36,0,.72.08,1.1-.19,0-.47.08-.62,0S93.67,89,93.63,88.89Zm0-2c0-.36,0-.71,0-1.06a.51.51,0,0,0-.13-.31,4,4,0,0,0-.78-.56,1.42,1.42,0,0,0-2,.87,3.2,3.2,0,0,0,0,2,1.41,1.41,0,0,0,1.76,1.1,3.87,3.87,0,0,0,1-.51.59.59,0,0,0,.29-.61C93.64,87.53,93.65,87.23,93.65,86.94Z"/><path class="a" d="M83.8,98.67v2.57h-.68v-7h.67v.65L84,94.7a2,2,0,0,1,3.48,1.13,3.68,3.68,0,0,1-.17,2.36,2,2,0,0,1-3.17.77Zm0-1.92c0,.37,0,.73,0,1.09a.33.33,0,0,0,.1.26,4.18,4.18,0,0,0,1,.63,1.38,1.38,0,0,0,1.88-.9,3.12,3.12,0,0,0,0-2.15,1.43,1.43,0,0,0-2-.84,4,4,0,0,0-.67.43.58.58,0,0,0-.26.57C83.81,96.14,83.8,96.45,83.8,96.75Z"/><path class="a" d="M75.85,89.47c-.65.07-.65.07-.77-.66l-.21.18a2,2,0,0,1-3.46-1.06,4,4,0,0,1,0-2.14,2.06,2.06,0,0,1,3.4-1l.25.21V82.32h.65C75.83,84.7,75.68,87.08,75.85,89.47Zm-.76-2.54c0-.35,0-.7,0-1.05a.4.4,0,0,0-.09-.27,4.09,4.09,0,0,0-.84-.61,1.4,1.4,0,0,0-2,.81,3.09,3.09,0,0,0,0,2.18,1.44,1.44,0,0,0,2,.86,4.18,4.18,0,0,0,.63-.4.66.66,0,0,0,.3-.66A8.19,8.19,0,0,1,75.09,86.93Z"/><path class="a" d="M100.75,79.65h-.62L100,79a3,3,0,0,1-1.57.74,3.17,3.17,0,0,1-.69,0A1.17,1.17,0,0,1,96.65,79a1.4,1.4,0,0,1,.29-1.47,2.79,2.79,0,0,1,1.38-.79c.48-.14,1-.24,1.48-.34.17,0,.22-.09.22-.27A.93.93,0,0,0,99,75a2.5,2.5,0,0,0-1.49.5l-.4.29-.36-.41a3.16,3.16,0,0,1,1.87-.93,3.65,3.65,0,0,1,.74,0,1.35,1.35,0,0,1,1.35,1.43c0,.63,0,1.27,0,1.91S100.73,79,100.75,79.65ZM100,76.8a8.71,8.71,0,0,0-1.14.26,6.87,6.87,0,0,0-1.29.6.84.84,0,0,0-.3,1,.8.8,0,0,0,.84.5,2.53,2.53,0,0,0,1.78-.71.25.25,0,0,0,.1-.18C100,77.81,100,77.32,100,76.8Z"/><path class="a" d="M110.59,76.31c.12-1-.39-1.42-1.37-1.26a3,3,0,0,0-1.54.78l-.37-.43a3.13,3.13,0,0,1,3-.85,1.28,1.28,0,0,1,.94,1.34c0,.68,0,1.35,0,2s0,1.13.07,1.72h-.63l-.14-.65a3,3,0,0,1-1.56.73,3.18,3.18,0,0,1-.69,0,1.15,1.15,0,0,1-1.1-.82,1.33,1.33,0,0,1,.44-1.55,4.73,4.73,0,0,1,1.24-.65,11.36,11.36,0,0,1,1.45-.35Zm0,.49a7,7,0,0,0-2.39.83.86.86,0,0,0-.34,1.05.83.83,0,0,0,.88.5,2.57,2.57,0,0,0,1.73-.69.4.4,0,0,0,.12-.23C110.62,77.79,110.61,77.32,110.61,76.8Z"/><path class="a" d="M81.63,79.63c-.81.07-.65.12-.78-.64l-.41.28a2.69,2.69,0,0,1-1.76.47A1.2,1.2,0,0,1,77.51,79a1.4,1.4,0,0,1,.28-1.52,3.45,3.45,0,0,1,1.75-.89c.43-.12.86-.19,1.3-.29a1,1,0,0,0-1-1.27,2.53,2.53,0,0,0-1.52.53l-.35.26-.36-.41a3.21,3.21,0,0,1,1.88-.93,3.47,3.47,0,0,1,.72,0A1.37,1.37,0,0,1,81.53,76c0,.94,0,1.89,0,2.83C81.55,79.07,81.6,79.35,81.63,79.63Zm-.77-2.86c-.55.15-1.07.25-1.57.43a3.76,3.76,0,0,0-1,.59.79.79,0,0,0-.17.9.72.72,0,0,0,.65.48,2.51,2.51,0,0,0,2-.74.18.18,0,0,0,.06-.14C80.87,77.8,80.86,77.31,80.86,76.77Z"/><path class="a" d="M110.15,89.46c-.8.05-.65.12-.78-.64l-.31.22a2.83,2.83,0,0,1-1.83.53,1.24,1.24,0,0,1-1.23-.81,1.47,1.47,0,0,1,.44-1.59,4.4,4.4,0,0,1,1.88-.82c.34-.08.69-.14,1-.21a1,1,0,0,0-1-1.29,2.59,2.59,0,0,0-1.49.52c-.12.08-.24.18-.37.28l-.37-.41a3.18,3.18,0,0,1,2-.94,4.69,4.69,0,0,1,.53,0,1.39,1.39,0,0,1,1.48,1.5c0,.92,0,1.85,0,2.77C110.07,88.85,110.12,89.15,110.15,89.46Zm-.77-2.85c-.51.13-1,.22-1.46.38a4.07,4.07,0,0,0-1,.52.85.85,0,0,0-.27,1,.8.8,0,0,0,.82.5,2.56,2.56,0,0,0,1.81-.72.31.31,0,0,0,.09-.21C109.39,87.61,109.38,87.14,109.38,86.61Z"/><path class="a" d="M120.07,68.44l.4.32a2.16,2.16,0,0,1-1.74,1.16,2.24,2.24,0,0,1-2.52-2.12,3.52,3.52,0,0,1,.21-1.79,2.13,2.13,0,0,1,2.12-1.38,2,2,0,0,1,1.86,1.65,6.49,6.49,0,0,1,.11.77c0,.11,0,.22,0,.36h-3.6a1.79,1.79,0,0,0,.9,1.8C118.57,69.58,119.26,69.34,120.07,68.44Zm-3.18-1.6h2.93a1.48,1.48,0,0,0-1.33-1.64A1.59,1.59,0,0,0,116.89,66.84Z"/><path class="a" d="M89,77.24H85.4a1.83,1.83,0,0,0,.94,1.82c.75.34,1.5.08,2.22-.79l.42.33a2.24,2.24,0,0,1-2,1.16,2,2,0,0,1-1.94-1.05,3.21,3.21,0,0,1,0-3.11,2.1,2.1,0,0,1,2.67-1A2.14,2.14,0,0,1,89,76.4C89,76.66,89,76.93,89,77.24Zm-.71-.56A1.47,1.47,0,0,0,86.92,75a1.58,1.58,0,0,0-1.51,1.65Z"/><path class="a" d="M92.78,96.9H89.16a1.83,1.83,0,0,0,1,1.82c.77.34,1.45.1,2.23-.79l.41.32a2.23,2.23,0,0,1-2.07,1.18,2,2,0,0,1-1.92-1.23,3.31,3.31,0,0,1,0-2.85,2.13,2.13,0,0,1,2.46-1.18,1.8,1.8,0,0,1,1.19.92A3.36,3.36,0,0,1,92.78,96.9Zm-.68-.57a1.49,1.49,0,0,0-1.43-1.65,1.59,1.59,0,0,0-1.49,1.65Z"/><path class="a" d="M81.24,87.08H77.55a1.85,1.85,0,0,0,1,1.83c.74.31,1.38.07,2.17-.8l.41.32a2.26,2.26,0,0,1-2.22,1.16,2.06,2.06,0,0,1-1.87-1.46,3.29,3.29,0,0,1,.15-2.71,2.09,2.09,0,0,1,2.18-1.12A1.87,1.87,0,0,1,81,85.78,9.77,9.77,0,0,1,81.24,87.08Zm-3.67-.58h2.94c-.08-1-.61-1.65-1.43-1.65A1.62,1.62,0,0,0,77.57,86.5Z"/><path class="a" d="M122.79,87a7.67,7.67,0,0,1-.33,1.24,2.05,2.05,0,0,1-2,1.31,2.08,2.08,0,0,1-2-1.21,3.2,3.2,0,0,1,0-2.89,2.19,2.19,0,0,1,2.33-1.19A2.23,2.23,0,0,1,122.63,86C122.7,86.33,122.73,86.63,122.79,87Zm-.66-.14a10,10,0,0,0-.35-1.18,1.38,1.38,0,0,0-1.37-.85,1.42,1.42,0,0,0-1.37.9,2.77,2.77,0,0,0,0,2.34,1.44,1.44,0,0,0,1.41.9,1.41,1.41,0,0,0,1.37-.93A9.2,9.2,0,0,0,122.13,86.9Z"/><path class="a" d="M99.36,96.91a2.74,2.74,0,0,1,1-2.4,2.26,2.26,0,0,1,3.56,1.62,3.43,3.43,0,0,1-.06,1.56,2.24,2.24,0,0,1-2.22,1.74,2.27,2.27,0,0,1-2.2-1.84C99.4,97.32,99.38,97,99.36,96.91Zm.69-.11a2.53,2.53,0,0,0,.3,1.25,1.51,1.51,0,0,0,2.6.11,2.84,2.84,0,0,0,0-2.82,1.51,1.51,0,0,0-2.49,0A2.5,2.5,0,0,0,100.05,96.8Z"/><path class="a" d="M105.22,67.37a3,3,0,0,1,.69-2,2.25,2.25,0,0,1,3.69.56,3.24,3.24,0,0,1,0,2.69,2.16,2.16,0,0,1-2.24,1.34,2.22,2.22,0,0,1-2-1.64A9.35,9.35,0,0,1,105.22,67.37Zm.72-.11a2.4,2.4,0,0,0,.35,1.38,1.51,1.51,0,0,0,2.55,0,2.79,2.79,0,0,0,0-2.82,1.51,1.51,0,0,0-2.44,0A2.4,2.4,0,0,0,105.94,67.26Z"/><path class="a" d="M102.7,79.65H102v-5.1h.67v.76l.28-.23a2.55,2.55,0,0,1,1.87-.62,1.25,1.25,0,0,1,1.29,1.26c0,1.3,0,2.6,0,3.92h-.66c0-.1,0-.2,0-.29V76.19a2.17,2.17,0,0,0,0-.36.79.79,0,0,0-.73-.78,2.3,2.3,0,0,0-2,.83.45.45,0,0,0-.06.29v3.48Z"/><path class="a" d="M78.29,94.22v2.63c0,.3,0,.59,0,.89,0,.85.43,1.22,1.27,1.08A2.59,2.59,0,0,0,81,98a.48.48,0,0,0,.08-.3V94.22h.68v5.09h-.67v-.75c-.23.17-.39.31-.57.43a2.37,2.37,0,0,1-1.63.42,1.23,1.23,0,0,1-1.24-1.27c0-1.3,0-2.6,0-3.92Z"/><path class="a" d="M124.52,89.47h-.66V84.4h.65v.74c.16-.13.27-.22.39-.3a2.51,2.51,0,0,1,1.81-.55A1.27,1.27,0,0,1,128,85.56c0,1.29,0,2.59,0,3.9h-.66c0-.09,0-.19,0-.29V86c0-.84-.45-1.21-1.28-1.07a2.66,2.66,0,0,0-1.43.8.49.49,0,0,0-.06.28c0,1,0,2.1,0,3.16Z"/><path class="a" d="M115.1,69.81h-.67V66.32c0-.84-.4-1.21-1.23-1.1a2.55,2.55,0,0,0-1.47.82c-.06,0-.07.18-.07.28V69.8H111V64.73h.66v.76l.25-.2a2.57,2.57,0,0,1,2.07-.64,1.22,1.22,0,0,1,1.13,1.18C115.12,67.14,115.1,68.47,115.1,69.81Z"/><path class="a" d="M99.78,89.47h-.66v-.76l-.29.24a2.54,2.54,0,0,1-2,.62,1.24,1.24,0,0,1-1.12-1.13,10.59,10.59,0,0,1,0-1.13V84.4h.69v.31c0,1.09,0,2.19,0,3.28a.9.9,0,0,0,1.09,1A2.56,2.56,0,0,0,99,88.17a.42.42,0,0,0,.07-.28V84.4h.67Z"/><path class="a" d="M74.07,64.72h.66v.77l.27-.22a2.55,2.55,0,0,1,2-.63,1.21,1.21,0,0,1,1.2,1.2c0,1.31,0,2.63,0,4h-.66V66.28a1,1,0,0,0-1.28-1.06,2.6,2.6,0,0,0-1.42.8.51.51,0,0,0-.09.33c0,1.05,0,2.09,0,3.14v.32h-.66Z"/><path class="a" d="M93,64.72h.68V65c0,1.06,0,2.11,0,3.16s.52,1.31,1.4,1.13a2.86,2.86,0,0,0,1.31-.79.43.43,0,0,0,.06-.28c0-1.07,0-2.13,0-3.19v-.32h.66V69.8h-.66v-.72c-.29.2-.52.39-.78.54a2.2,2.2,0,0,1-1.66.26,1.21,1.21,0,0,1-1-1.09c0-.42,0-.85,0-1.27Z"/><path class="a" d="M79.15,69l.42-.38a1.93,1.93,0,0,0,1.45.72,3.22,3.22,0,0,0,1-.15.66.66,0,0,0,.48-.67.67.67,0,0,0-.41-.72,9.37,9.37,0,0,0-.89-.31c-.37-.13-.76-.23-1.12-.38A1.13,1.13,0,0,1,79.3,66a1.25,1.25,0,0,1,.76-1.14,2.63,2.63,0,0,1,2.87.55l-.37.45a2,2,0,0,0-1.39-.62,2.32,2.32,0,0,0-.78.13.66.66,0,0,0,0,1.21c.33.13.67.22,1,.34a6.72,6.72,0,0,1,1.16.43,1.33,1.33,0,0,1,.27,2.07A2.63,2.63,0,0,1,79.15,69Z"/><path class="a" d="M89.78,78.83l.42-.39a2,2,0,0,0,1.7.74,3,3,0,0,0,.72-.15.73.73,0,0,0,.49-.71.68.68,0,0,0-.42-.69,8.88,8.88,0,0,0-.91-.32,8.11,8.11,0,0,1-1.17-.41,1.23,1.23,0,0,1-.12-2.14,2.59,2.59,0,0,1,3.07.45l-.35.41c-.21-.13-.4-.28-.61-.39a1.92,1.92,0,0,0-1.45-.14.72.72,0,0,0-.55.63.66.66,0,0,0,.46.69c.35.13.72.22,1.08.34a6,6,0,0,1,1,.38,1.36,1.36,0,0,1,.31,2A2.64,2.64,0,0,1,89.78,78.83Z"/><path class="a" d="M125.06,65.38l-.38.44a2,2,0,0,0-1.78-.61,1.28,1.28,0,0,0-.53.21.63.63,0,0,0,.07,1.1,9.11,9.11,0,0,0,1,.36,8,8,0,0,1,1.07.37,1.34,1.34,0,0,1,.11,2.33,2.81,2.81,0,0,1-3.22-.35l-.17-.22.43-.39a1.93,1.93,0,0,0,1.46.72,2.92,2.92,0,0,0,.92-.13.71.71,0,0,0,.52-.68.71.71,0,0,0-.45-.75c-.27-.12-.57-.2-.86-.3s-.77-.23-1.15-.39a1.11,1.11,0,0,1-.71-1.06,1.24,1.24,0,0,1,.64-1.15A2.63,2.63,0,0,1,125.06,65.38Z"/><path class="a" d="M112.22,78.83l.41-.38.19.17a2.08,2.08,0,0,0,2.11.46.75.75,0,0,0,.61-.7.72.72,0,0,0-.5-.8c-.33-.14-.69-.21-1-.33a6.86,6.86,0,0,1-1-.34,1.23,1.23,0,0,1-.12-2.14,2.62,2.62,0,0,1,2.73.13,4.16,4.16,0,0,1,.36.29l-.38.45-.24-.19a2,2,0,0,0-1.78-.36.71.71,0,0,0-.58.62.64.64,0,0,0,.47.7c.35.14.73.22,1.09.34a7.14,7.14,0,0,1,1,.39,1.34,1.34,0,0,1,.19,2.12A2.66,2.66,0,0,1,112.22,78.83Z"/><path class="a" d="M101.94,68.27l.51.23a2.11,2.11,0,0,1-3.91.24,3.29,3.29,0,0,1,0-2.92,2,2,0,0,1,2-1.19A2,2,0,0,1,102.46,66l-.56.26c-.08-.14-.14-.26-.21-.37a1.43,1.43,0,0,0-2.38-.13,2.86,2.86,0,0,0,0,3,1.41,1.41,0,0,0,2.3,0Z"/><path class="a" d="M114.79,87.93l.52.22a2.06,2.06,0,0,1-2,1.45,2.11,2.11,0,0,1-2-1.41,3.34,3.34,0,0,1,0-2.56,2.11,2.11,0,0,1,2.12-1.34,2,2,0,0,1,1.87,1.39l-.56.26-.21-.38a1.43,1.43,0,0,0-2.38-.12,2.86,2.86,0,0,0,0,3,1.42,1.42,0,0,0,2.32-.07C114.61,88.25,114.69,88.1,114.79,87.93Z"/><path class="a" d="M104.59,87.93l.54.23a2.13,2.13,0,0,1-1.55,1.39,2,2,0,0,1-2.12-.75,3.31,3.31,0,0,1-.1-3.6,2.15,2.15,0,0,1,2.14-.9,2,2,0,0,1,1.62,1.38l-.56.26-.17-.32a1.34,1.34,0,0,0-1.26-.76,1.38,1.38,0,0,0-1.29.81,2.81,2.81,0,0,0,0,2.54,1.42,1.42,0,0,0,2.51.11C104.44,88.2,104.5,88.08,104.59,87.93Z"/><path class="a" d="M86.65,69.27v.57a2.61,2.61,0,0,1-1.44-.08,1,1,0,0,1-.56-1c0-1,0-2,0-3.08v-.33h-.88v-.62h.88v-1.8h.68v1.8h1.3v.6h-1.3v3c0,.8.24,1,1,1A1.86,1.86,0,0,0,86.65,69.27Z"/><path class="a" d="M90.07,65.32H89.2v-.61h.87v-1.8h.66V64.7h1.32v.6H90.74v3c0,.88.31,1.14,1.19,1l.15,0a3.65,3.65,0,0,1,0,.47.18.18,0,0,1-.12.13,6.47,6.47,0,0,1-1.08,0,.91.91,0,0,1-.79-1c0-1.06,0-2.13,0-3.19Z"/><path class="a" d="M82.91,72.49h.65v7.15h-.65Z"/><path class="a" d="M72.5,62.67V69.8h-.66V62.67Z"/><path class="a" d="M105.77,99.31h-.66V94.22h.65v.86c.33-.25.63-.53,1-.74a2,2,0,0,1,1.19-.22l-.06.59c-.21,0-.41,0-.59.06a2.05,2.05,0,0,0-1.45,1.14.68.68,0,0,0,0,.32Z"/><path class="a" d="M96.71,94.12l-.06.6c-.17,0-.33,0-.48,0a2,2,0,0,0-1.53,1.11.87.87,0,0,0-.08.37V99.3H93.9V94.23h.66v1A2.32,2.32,0,0,1,96.71,94.12Z"/><path class="a" d="M97.63,94.22h.64V99.3h-.64Z"/><path class="a" d="M116.34,84.4H117v5.06h-.66Z"/><path class="a" d="M103.5,64.73h.65V69.8h-.65Z"/><path class="a" d="M94.86,74.56h.63v5.09h-.63Z"/><path class="a" d="M88.28,69.81h-.63V64.73h.63Z"/><path class="a" d="M120.08,83.82l.87-1.41a.23.23,0,0,1,.16-.08c.24,0,.47,0,.78,0l-.62.69c-.17.2-.36.38-.51.58A.57.57,0,0,1,120.08,83.82Z"/><path class="a" d="M117,83.2h-.68v-.71H117Z"/><path class="a" d="M97.57,93v-.69h.7V93Z"/><path class="a" d="M87.62,62.84h.69v.69h-.69Z"/><path class="a" d="M104.15,63.53h-.68v-.69h.68Z"/><path class="a" d="M95.5,73.37h-.68v-.71h.68Z"/></svg>