<svg xmlns="http://www.w3.org/2000/svg" viewBox="0 0 128 128"><defs><style>.a{fill:#fff;}</style></defs><title>youtube</title><path class="a" d="M124.83,30.75c4.59,12.11,4.41,56.18-1.11,67.84a15.5,15.5,0,0,1-7,7c-4.32,2.23-29.39,3.28-54,3.28-22.61,0-44.79-.89-50-2.59A14.84,14.84,0,0,1,3,96.74C-1.13,85-2.06,36,6.24,26.37A16,16,0,0,1,17,20.69c9.85-1.06,28.86-1.58,47.61-1.58,23.35,0,46.29.81,50.64,2.38A15.07,15.07,0,0,1,124.83,30.75ZM48.08,83.35c13.3-6.93,26.55-13.75,40-20.67-13.29-7-26.44-13.85-39.63-20.77-.11,13.84-.21,27.54-.32,41.44"/></svg>